<svg xmlns="http://www.w3.org/2000/svg" width="193.3" height="19.12" viewBox="0 0 193.3 19.12">
  <path id="app-name" data-name="app-name" d="M15.06,0V-5.74c0-2-.9-3.58-3.1-3.58A3.084,3.084,0,0,0,8.9-7.38,2.71,2.71,0,0,0,6.08-9.32,2.774,2.774,0,0,0,3.3-7.46V-9.08H1.56V0H3.3V-4.62c0-2.14.92-3.16,2.26-3.16,1.2,0,1.88.84,1.88,2.66V0H9.18V-4.62c0-2.12.88-3.16,2.22-3.16,1.24,0,1.92.88,1.92,2.56V0ZM25.14-9.08v1.56a3.585,3.585,0,0,0-3.26-1.8A4.65,4.65,0,0,0,17.3-4.54,4.628,4.628,0,0,0,21.86.22a3.6,3.6,0,0,0,3.28-1.8V0h1.72V-9.08ZM22.08-1.34a3.043,3.043,0,0,1-3.06-3.2,3.06,3.06,0,0,1,3.06-3.22,3.06,3.06,0,0,1,3.06,3.22A3.043,3.043,0,0,1,22.08-1.34ZM38.1-5.78a3.863,3.863,0,0,0-4.2-3.54,4.474,4.474,0,0,0-4.62,4.78A4.463,4.463,0,0,0,33.92.22a3.891,3.891,0,0,0,4.2-3.34H36.38a2.195,2.195,0,0,1-2.4,1.78c-2.08,0-2.96-1.48-2.96-3.2,0-1.7.88-3.22,2.92-3.22a2.177,2.177,0,0,1,2.42,1.98ZM40.56,0H42.3V-4.68c0-1.62.82-3.1,2.6-3.1,1.66,0,2.28,1.28,2.28,2.96V0h1.74V-5.36a4.372,4.372,0,0,0-.7-2.76,3.21,3.21,0,0,0-2.7-1.2A3.379,3.379,0,0,0,42.3-7.48V-14H40.56ZM52.2,0h1.72V-9.08H52.2Zm-.54-12.52a1.387,1.387,0,0,0,1.4,1.38,1.387,1.387,0,0,0,1.4-1.38,1.408,1.408,0,0,0-1.4-1.42A1.408,1.408,0,0,0,51.66-12.52ZM57.38,0h1.74V-4.68c0-1.62.82-3.1,2.6-3.1C63.38-7.78,64-6.5,64-4.82V0h1.74V-5.36a4.372,4.372,0,0,0-.7-2.76,3.21,3.21,0,0,0-2.7-1.2,3.379,3.379,0,0,0-3.22,1.84v-1.6H57.38Zm19.2-4.08a6.743,6.743,0,0,0,.08-1.14,4.082,4.082,0,0,0-4.3-4.1c-2.68,0-4.38,2.04-4.38,4.74,0,2.5,1.48,4.8,4.52,4.8a3.88,3.88,0,0,0,4.08-2.9H74.82A2.217,2.217,0,0,1,72.5-1.24a2.565,2.565,0,0,1-2.74-2.84ZM72.4-7.84A2.39,2.39,0,0,1,74.98-5.4h-5.2A2.431,2.431,0,0,1,72.4-7.84ZM84.24,0h1.74V-14H84.24ZM97-4.08a6.743,6.743,0,0,0,.08-1.14,4.082,4.082,0,0,0-4.3-4.1c-2.68,0-4.38,2.04-4.38,4.74,0,2.5,1.48,4.8,4.52,4.8A3.88,3.88,0,0,0,97-2.68H95.24a2.217,2.217,0,0,1-2.32,1.44,2.565,2.565,0,0,1-2.74-2.84ZM92.82-7.84A2.39,2.39,0,0,1,95.4-5.4H90.2A2.431,2.431,0,0,1,92.82-7.84ZM106.7-9.08v1.56a3.585,3.585,0,0,0-3.26-1.8,4.65,4.65,0,0,0-4.58,4.78A4.628,4.628,0,0,0,103.42.22a3.6,3.6,0,0,0,3.28-1.8V0h1.72V-9.08Zm-3.06,7.74a3.043,3.043,0,0,1-3.06-3.2,3.06,3.06,0,0,1,3.06-3.22,3.06,3.06,0,0,1,3.06,3.22A3.043,3.043,0,0,1,103.64-1.34Zm13.52-7.74a2.245,2.245,0,0,0-.84-.14,3.315,3.315,0,0,0-3.04,1.92V-9.08h-1.74V0h1.74V-3.98c0-2.18.98-3.6,3.08-3.6a3.323,3.323,0,0,1,.8.1ZM118.84,0h1.74V-4.68c0-1.62.82-3.1,2.6-3.1,1.66,0,2.28,1.28,2.28,2.96V0h1.74V-5.36a4.372,4.372,0,0,0-.7-2.76,3.21,3.21,0,0,0-2.7-1.2,3.379,3.379,0,0,0-3.22,1.84v-1.6h-1.74Zm11.64,0h1.72V-9.08h-1.72Zm-.54-12.52a1.387,1.387,0,0,0,1.4,1.38,1.387,1.387,0,0,0,1.4-1.38,1.408,1.408,0,0,0-1.4-1.42A1.408,1.408,0,0,0,129.94-12.52ZM135.66,0h1.74V-4.68c0-1.62.82-3.1,2.6-3.1,1.66,0,2.28,1.28,2.28,2.96V0h1.74V-5.36a4.372,4.372,0,0,0-.7-2.76,3.21,3.21,0,0,0-2.7-1.2,3.379,3.379,0,0,0-3.22,1.84v-1.6h-1.74ZM151-7.76a3.06,3.06,0,0,1,3.06,3.22A3.043,3.043,0,0,1,151-1.34a3.043,3.043,0,0,1-3.06-3.2A3.06,3.06,0,0,1,151-7.76Zm4.78-1.32h-1.72v1.56a3.585,3.585,0,0,0-3.26-1.8,4.65,4.65,0,0,0-4.58,4.78A4.628,4.628,0,0,0,150.78.22a3.6,3.6,0,0,0,3.28-1.8V.58a2.688,2.688,0,0,1-3.02,3c-2.06,0-2.82-1.12-2.94-2.42h-1.76c.14,1.94,1.28,3.96,4.76,3.96,2.78,0,4.68-1.3,4.68-4.54Zm13.08,7.54a9.961,9.961,0,0,1-1.18.08c-.88,0-1.5-.22-1.5-1.98V-7.62h2.36V-9.08h-2.36v-3.06h-1.74v3.06h-1.68v1.46h1.68v4.56c0,2.98,1.74,3.18,2.84,3.18A10.387,10.387,0,0,0,168.86,0Zm5.9,1.76a4.651,4.651,0,0,0,4.78-4.76,4.668,4.668,0,0,0-4.78-4.78,4.656,4.656,0,0,0-4.78,4.78A4.639,4.639,0,0,0,174.76.22Zm0-1.56a3.043,3.043,0,0,1-3.06-3.2,3.06,3.06,0,0,1,3.06-3.22,3.06,3.06,0,0,1,3.06,3.22A3.043,3.043,0,0,1,174.76-1.34ZM185.96.22a4.651,4.651,0,0,0,4.78-4.76,4.668,4.668,0,0,0-4.78-4.78,4.656,4.656,0,0,0-4.78,4.78A4.639,4.639,0,0,0,185.96.22Zm0-1.56a3.043,3.043,0,0,1-3.06-3.2,3.06,3.06,0,0,1,3.06-3.22,3.06,3.06,0,0,1,3.06,3.22A3.043,3.043,0,0,1,185.96-1.34ZM193.12,0h1.74V-14h-1.74Z" transform="translate(-1.56 14)" fill="#fff"/>
</svg>
