<?xml version="1.0" encoding="UTF-8"?>
<svg width="1200pt" height="1200pt" version="1.1" viewBox="0 0 1200 1200" xmlns="http://www.w3.org/2000/svg">
 <g fill="#2cc9c0">
  <path d="m225 495.24v161.01h160.97c-42.844-42.789-118.2-118.12-160.97-161.01z"/>
  <path d="m482.64 393.71h197.21l-98.605-169.03z"/>
  <path d="m939.84 847.74c-4.7109 2.3281-10.184 2.5703-15.086 0.66797-4.8984-1.9023-8.7734-5.7734-10.684-10.668-1.9102-4.8984-1.6758-10.371 0.64453-15.086 2.5938-5.0859 3.9727-10.699 4.0312-16.406 0-13.398-7.1484-25.777-18.75-32.477-11.602-6.6992-25.898-6.6992-37.5 0-11.602 6.6992-18.75 19.078-18.75 32.477 0.054688 5.7109 1.4297 11.332 4.0117 16.426 2.3164 4.7109 2.5469 10.18 0.63672 15.07-1.9062 4.8945-5.7773 8.7617-10.668 10.664-4.8945 1.9062-10.363 1.668-15.074-0.64844-11.578-5.7188-25.285-5.0508-36.254 1.7656-10.969 6.8125-17.637 18.809-17.637 31.723s6.668 24.91 17.637 31.723c10.969 6.8164 24.676 7.4844 36.254 1.7656 4.7109-2.3164 10.18-2.5547 15.074-0.64844 4.8906 1.9023 8.7617 5.7695 10.668 10.664 1.9102 4.8906 1.6797 10.359-0.63672 15.07-2.5859 5.0938-3.957 10.715-4.0117 16.426 0 13.398 7.1484 25.777 18.75 32.477 11.602 6.6992 25.898 6.6992 37.5 0 11.602-6.6992 18.75-19.078 18.75-32.477-0.058594-5.707-1.4375-11.324-4.0312-16.406-2.3203-4.7148-2.5547-10.188-0.64453-15.086 1.9102-4.8945 5.7852-8.7656 10.684-10.668 4.9023-1.9023 10.375-1.6602 15.086 0.66797 11.578 5.7188 25.285 5.0508 36.254-1.7656 10.969-6.8125 17.637-18.812 17.637-31.723 0-12.914-6.668-24.91-17.637-31.727-10.969-6.8125-24.676-7.4805-36.254-1.7617z"/>
  <path d="m581.25 675c57.805 0 105.56-65.738 111.8-150h-223.61c6.2227 84.242 54 150 111.8 150z"/>
  <path d="m300 393.75c24.863 0 48.711-9.8789 66.293-27.457 17.578-17.582 27.457-41.43 27.457-66.293s-9.8789-48.711-27.457-66.293c-17.582-17.578-41.43-27.457-66.293-27.457s-48.711 9.8789-66.293 27.457c-17.578 17.582-27.457 41.43-27.457 66.293s9.8789 48.711 27.457 66.293c17.582 17.578 41.43 27.457 66.293 27.457z"/>
  <path d="m475.54 882.21 86.961 101.46 86.961-101.46-86.961-86.965z"/>
  <path d="m1012.5 131.25h-825c-14.918 0-29.227 5.9258-39.773 16.477-10.551 10.547-16.477 24.855-16.477 39.773v825c0 14.918 5.9258 29.227 16.477 39.773 10.547 10.551 24.855 16.477 39.773 16.477h825c14.918 0 29.227-5.9258 39.773-16.477 10.551-10.547 16.477-24.855 16.477-39.773v-825c0-14.918-5.9258-29.227-16.477-39.773-10.547-10.551-24.855-16.477-39.773-16.477zm-712.5 37.5c34.809 0 68.195 13.828 92.809 38.441 24.613 24.613 38.441 58 38.441 92.809s-13.828 68.195-38.441 92.809c-24.613 24.613-58 38.441-92.809 38.441s-68.195-13.828-92.809-38.441c-24.613-24.613-38.441-58-38.441-92.809 0.039062-34.797 13.879-68.16 38.484-92.766s57.969-38.445 92.766-38.484zm91.668 721.07c-1.5742 3.0625-3.9609 5.6367-6.9023 7.4297-2.9414 1.7969-6.3203 2.75-9.7656 2.75h-37.5v112.5c0 4.9727-1.9766 9.7422-5.4922 13.258-3.5156 3.5156-8.2852 5.4922-13.258 5.4922h-75c-4.9727 0-9.7422-1.9766-13.258-5.4922-3.5156-3.5156-5.4922-8.2852-5.4922-13.258v-112.5h-37.5c-4.6172 0-9.0703-1.7031-12.508-4.7812s-5.6211-7.3164-6.1289-11.906c-0.50781-4.5859 0.69141-9.1992 3.375-12.957l93.75-131.25c3.6914-4.6562 9.3086-7.375 15.254-7.375 5.9414 0 11.559 2.7188 15.25 7.375l93.75 131.25c2 2.8008 3.1875 6.0938 3.4414 9.5234 0.25 3.4297-0.44531 6.8594-2.0156 9.9219zm-185.42-196.07c-4.9727 0-9.7422-1.9766-13.258-5.4922-3.5156-3.5156-5.4922-8.2852-5.4922-13.258v-225c0-4.9727 1.9766-9.7422 5.4922-13.258 3.5156-3.5156 8.2852-5.4922 13.258-5.4922 7.7617 0 7.7617 0 238.26 230.48 3.5234 3.5117 5.5039 8.2852 5.5078 13.262 0.003906 4.9766-1.9727 9.7539-5.4922 13.27-3.5234 3.5195-8.2969 5.4961-13.273 5.4922zm482.98 199.69-112.5 131.25c-3.5625 4.1523-8.7578 6.543-14.23 6.543s-10.668-2.3906-14.23-6.543l-112.5-131.25c-3.0781-3.5859-4.6914-8.1992-4.5117-12.918 0.17578-4.7227 2.1289-9.2031 5.4688-12.543l112.5-112.5c3.5156-3.5234 8.2891-5.5 13.266-5.5 4.9766 0 9.7461 1.9766 13.266 5.5l112.5 112.5c3.332 3.3398 5.2852 7.8125 5.4688 12.531 0.17969 4.7148-1.4258 9.3242-4.4961 12.91zm-107.98-180.94c-82.727 0-150-92.531-150-206.25 0-4.9727 1.9766-9.7422 5.4922-13.258 3.5156-3.5156 8.2852-5.4922 13.258-5.4922h262.5c4.9727 0 9.7422 1.9766 13.258 5.4922 3.5156 3.5156 5.4922 8.2852 5.4922 13.258 0 113.7-67.293 206.25-150 206.25zm147.51-290.62c-1.6484 2.8516-4.0195 5.2227-6.8711 6.8672-2.8555 1.6445-6.0938 2.5117-9.3867 2.5078h-262.5c-6.6914-0.011719-12.871-3.5938-16.211-9.3906-3.3398-5.8008-3.3359-12.938 0.011719-18.734l131.25-225c3.6211-5.4023 9.6953-8.6445 16.199-8.6445s12.578 3.2422 16.199 8.6445l131.25 225c1.6562 2.8438 2.5312 6.0742 2.5391 9.3672 0.011719 3.293-0.84375 6.5273-2.4805 9.3828zm227.49 534.38c0 26.793-14.293 51.555-37.5 64.953-23.207 13.395-51.793 13.395-75 0-23.207-13.398-37.5-38.16-37.5-64.953-26.793 0-51.555-14.293-64.953-37.5-13.395-23.207-13.395-51.793 0-75 13.398-23.207 38.16-37.5 64.953-37.5 0-26.793 14.293-51.555 37.5-64.953 23.207-13.395 51.793-13.395 75 0 23.207 13.398 37.5 38.16 37.5 64.953 26.793 0 51.555 14.293 64.953 37.5 13.395 23.207 13.395 51.793 0 75-13.398 23.207-38.16 37.5-64.953 37.5zm75-337.5c0 4.9727-1.9766 9.7422-5.4922 13.258-3.5156 3.5156-8.2852 5.4922-13.258 5.4922h-56.25v56.25c0 4.9727-1.9766 9.7422-5.4922 13.258-3.5156 3.5156-8.2852 5.4922-13.258 5.4922h-75c-4.9727 0-9.7422-1.9766-13.258-5.4922-3.5156-3.5156-5.4922-8.2852-5.4922-13.258v-56.25h-56.25c-4.9727 0-9.7422-1.9766-13.258-5.4922-3.5156-3.5156-5.4922-8.2852-5.4922-13.258v-75c0-4.9727 1.9766-9.7422 5.4922-13.258 3.5156-3.5156 8.2852-5.4922 13.258-5.4922h56.25v-56.25c0-4.9727 1.9766-9.7422 5.4922-13.258 3.5156-3.5156 8.2852-5.4922 13.258-5.4922h75c4.9727 0 9.7422 1.9766 13.258 5.4922 3.5156 3.5156 5.4922 8.2852 5.4922 13.258v56.25h56.25c4.9727 0 9.7422 1.9766 13.258 5.4922 3.5156 3.5156 5.4922 8.2852 5.4922 13.258zm0-206.25c0 4.9727-1.9766 9.7422-5.4922 13.258-3.5156 3.5156-8.2852 5.4922-13.258 5.4922h-225c-4.9727 0-9.7422-1.9766-13.258-5.4922-3.5156-3.5156-5.4922-8.2852-5.4922-13.258v-225c0-4.9727 1.9766-9.7422 5.4922-13.258 3.5156-3.5156 8.2852-5.4922 13.258-5.4922h225c4.9727 0 9.7422 1.9766 13.258 5.4922 3.5156 3.5156 5.4922 8.2852 5.4922 13.258z"/>
  <path d="m223.91 862.5h19.836c4.9727 0 9.7422 1.9766 13.258 5.4922 3.5156 3.5156 5.4922 8.2852 5.4922 13.258v112.5h37.5v-112.5c0-4.9727 1.9766-9.7422 5.4922-13.258 3.5156-3.5156 8.2852-5.4922 13.258-5.4922h19.82l-57.32-80.27z"/>
  <path d="m1012.5 56.25h-825c-34.797 0.042969-68.152 13.887-92.758 38.492-24.605 24.605-38.449 57.961-38.492 92.758v825c0.042969 34.797 13.887 68.152 38.492 92.758 24.605 24.605 57.961 38.449 92.758 38.492h825c34.797-0.042969 68.152-13.887 92.758-38.492 24.605-24.605 38.449-57.961 38.492-92.758v-825c-0.042969-34.797-13.887-68.152-38.492-92.758-24.605-24.605-57.961-38.449-92.758-38.492zm93.75 956.25c-0.023438 24.855-9.9102 48.688-27.484 66.266-17.578 17.574-41.41 27.461-66.266 27.484h-825c-24.863 0-48.711-9.8789-66.293-27.457-17.578-17.582-27.457-41.43-27.457-66.293v-825c0-24.863 9.8789-48.711 27.457-66.293 17.582-17.578 41.43-27.457 66.293-27.457h825c24.855 0.023438 48.688 9.9102 66.266 27.484 17.574 17.578 27.461 41.41 27.484 66.266z"/>
  <path d="m806.25 206.23h187.5v187.48h-187.5z"/>
  <path d="m918.75 543.75v-56.25h-37.5v56.25c0 4.9727-1.9766 9.7422-5.4922 13.258-3.5156 3.5156-8.2852 5.4922-13.258 5.4922h-56.25v37.5h56.25c4.9727 0 9.7422 1.9766 13.258 5.4922 3.5156 3.5156 5.4922 8.2852 5.4922 13.258v56.25h37.5v-56.25c0-4.9727 1.9766-9.7422 5.4922-13.258 3.5156-3.5156 8.2852-5.4922 13.258-5.4922h56.25v-37.5h-56.25c-4.9727 0-9.7422-1.9766-13.258-5.4922-3.5156-3.5156-5.4922-8.2852-5.4922-13.258z"/>
 </g>
</svg>
