<svg height='100px' width='100px'  fill="#63bfc2" xmlns="http://www.w3.org/2000/svg" xmlns:xlink="http://www.w3.org/1999/xlink" version="1.1" x="0px" y="0px" viewBox="7.5 7.5 50 50" enable-background="new 7.5 7.5 50 50" xml:space="preserve"><path d="M53.215,31.822c-1.912,0-3.479,1.434-3.727,3.278H38.896c-0.183-2.984-1.98-5.532-4.532-6.785l2.327-8.821  c0.135,0.011,0.265,0.041,0.402,0.041c2.767,0,5.018-2.251,5.018-5.018S39.86,9.5,37.094,9.5c-2.768,0-5.019,2.251-5.019,5.018  c0,2.282,1.54,4.191,3.63,4.798l-2.272,8.612c-0.826-0.284-1.708-0.445-2.628-0.445c-2.48,0-4.701,1.121-6.191,2.879l-6.503-4.4  c0.293-0.656,0.464-1.378,0.464-2.143c0-2.913-2.37-5.283-5.284-5.283c-2.913,0-5.283,2.37-5.283,5.283s2.37,5.283,5.283,5.283  c1.791,0,3.371-0.9,4.327-2.267l6.397,4.329c-0.837,1.277-1.328,2.799-1.328,4.437c0,3.729,2.532,6.871,5.964,7.818l-1.839,6.167  c-0.15-0.024-0.302-0.047-0.459-0.047c-1.643,0-2.98,1.337-2.98,2.979c0,1.644,1.337,2.981,2.98,2.981  c1.644,0,2.981-1.338,2.981-2.981c0-1.132-0.642-2.106-1.575-2.61l1.875-6.285c0.383,0.057,0.772,0.095,1.171,0.095  c4.307,0,7.832-3.375,8.092-7.617h10.592c0.247,1.845,1.814,3.277,3.727,3.277c2.083,0,3.778-1.694,3.778-3.777  S55.298,31.822,53.215,31.822z"></path></svg>