<?xml version="1.0" encoding="UTF-8"?>
<svg width="1200pt" height="1200pt" version="1.1" viewBox="0 0 1200 1200" xmlns="http://www.w3.org/2000/svg">
 <path d="m1056.6 296.4c-0.035156 42.992-17.141 84.207-47.555 114.59-30.418 30.379-71.656 47.434-114.65 47.41-42.988-0.019532-84.211-17.113-114.6-47.523s-47.453-71.645-47.441-114.64c0.011719-42.988 17.098-84.215 47.5-114.61 30.402-30.395 71.629-47.469 114.62-47.469 43.016 0 84.27 17.098 114.68 47.527 30.406 30.43 47.473 71.695 47.441 114.71zm-660.6 441.96h-178.2l-88.801 153.84 88.801 153.84h178.2l88.801-153.84zm96-297.24-185.4-289.44-185.4 289.44zm603.24 451.08-200.76-200.76-200.76 200.76 200.76 200.76zm-1016.8-310.68c-4.8945 0.03125-9.5781 2.0039-13.02 5.4844-3.4414 3.4805-5.3633 8.1797-5.3398 13.074 0.019531 4.8945 1.9805 9.582 5.4531 13.031 3.4727 3.4492 8.1719 5.3789 13.066 5.3711 4.8945-0.011719 9.582-1.9648 13.039-5.4258 3.457-3.4648 5.3984-8.1602 5.3984-13.055 0.003906-4.9219-1.9609-9.6406-5.4531-13.109s-8.2227-5.4023-13.145-5.3711zm173.88 0c-4.9023 0-9.6016 1.9492-13.066 5.4141-3.4648 3.4648-5.4141 8.1641-5.4141 13.066s1.9492 9.6016 5.4141 13.066c3.4648 3.4648 8.1641 5.4141 13.066 5.4141s9.6016-1.9492 13.066-5.4141c3.4688-3.4648 5.4141-8.1641 5.4141-13.066 0-4.9648-1.9961-9.7188-5.5391-13.195-3.543-3.4766-8.3359-5.3828-13.301-5.2852zm-86.879 0c-4.9023 0-9.6016 1.9492-13.066 5.4141-3.4688 3.4648-5.4141 8.1641-5.4141 13.066s1.9453 9.6016 5.4141 13.066c3.4648 3.4648 8.1641 5.4141 13.066 5.4141 4.9023 0 9.6016-1.9492 13.066-5.4141s5.4141-8.1641 5.4141-13.066-1.9492-9.6016-5.4141-13.066-8.1641-5.4141-13.066-5.4141zm173.76 0h-0.003907c-4.8906 0.03125-9.5742 2.0039-13.016 5.4844-3.4414 3.4805-5.3633 8.1797-5.3438 13.074 0.023438 4.8945 1.9844 9.582 5.457 13.031 3.4727 3.4492 8.168 5.3789 13.062 5.3711 4.8945-0.011719 9.5859-1.9648 13.043-5.4258 3.457-3.4648 5.3984-8.1602 5.3984-13.055 0-4.9219-1.9648-9.6406-5.4531-13.109-3.4922-3.4688-8.2266-5.4023-13.148-5.3711zm86.879 0c-4.8945 0.03125-9.5781 2.0039-13.02 5.4844-3.4414 3.4805-5.3633 8.1797-5.3398 13.074 0.019531 4.8945 1.9805 9.582 5.4531 13.031s8.1719 5.3789 13.066 5.3711c4.8945-0.011719 9.582-1.9648 13.039-5.4258 3.457-3.4648 5.3984-8.1602 5.3984-13.055 0-4.9219-1.9609-9.6406-5.4531-13.109s-8.2227-5.4023-13.145-5.3711zm87 0c-4.9023 0-9.6016 1.9492-13.07 5.4141-3.4648 3.4648-5.4102 8.1641-5.4102 13.066s1.9453 9.6016 5.4102 13.066c3.4688 3.4648 8.168 5.4141 13.07 5.4141 4.8984 0 9.6016-1.9492 13.066-5.4141s5.4141-8.1641 5.4141-13.066-1.9492-9.6016-5.4141-13.066-8.168-5.4141-13.066-5.4141zm86.879 0c-4.9023 0-9.6016 1.9492-13.066 5.4141s-5.4141 8.1641-5.4141 13.066 1.9492 9.6016 5.4141 13.066 8.1641 5.4141 13.066 5.4141 9.6016-1.9492 13.066-5.4141 5.4141-8.1641 5.4141-13.066-1.9492-9.6016-5.4141-13.066-8.1641-5.4141-13.066-5.4141zm86.879 0c-4.8945 0.03125-9.5742 2.0039-13.016 5.4844-3.4414 3.4805-5.3633 8.1797-5.3438 13.074 0.023438 4.8945 1.9844 9.582 5.457 13.031 3.4688 3.4492 8.168 5.3789 13.062 5.3711 4.8945-0.011719 9.5859-1.9648 13.043-5.4258 3.457-3.4648 5.3984-8.1602 5.3984-13.055 0-4.9219-1.9648-9.6406-5.457-13.109-3.4883-3.4688-8.2227-5.4023-13.145-5.3711zm87 0c-4.918-0.09375-9.6758 1.7773-13.211 5.1992-3.5391 3.4219-5.5625 8.1133-5.625 13.035-0.066407 4.9219 1.8359 9.668 5.2812 13.18 3.4453 3.5156 8.1523 5.5117 13.074 5.543 4.9219 0.03125 9.6523-1.8984 13.145-5.3672 3.4922-3.4688 5.457-8.1875 5.457-13.109 0-4.8398-1.8984-9.4844-5.2852-12.941-3.3867-3.457-7.9961-5.4453-12.836-5.5391zm86.879 0h0.003907c-4.9023 0-9.6016 1.9492-13.07 5.4141-3.4648 3.4648-5.4102 8.1641-5.4102 13.066s1.9453 9.6016 5.4102 13.066c3.4688 3.4648 8.168 5.4141 13.07 5.4141 4.8984 0 9.6016-1.9492 13.066-5.4141s5.4102-8.1641 5.4102-13.066-1.9453-9.6016-5.4102-13.066-8.168-5.4141-13.066-5.4141zm86.879 0h0.003906c-4.9023 0-9.6016 1.9492-13.066 5.4141-3.4688 3.4648-5.4141 8.1641-5.4141 13.066s1.9453 9.6016 5.4141 13.066c3.4648 3.4648 8.1641 5.4141 13.066 5.4141s9.6016-1.9492 13.066-5.4141c3.4648-3.4648 5.4141-8.1641 5.4141-13.066 0-4.8398-1.8984-9.4844-5.2852-12.941-3.3906-3.457-7.9961-5.4453-12.836-5.5391zm86.879 0h0.003906c-4.8945 0.03125-9.5742 2.0039-13.016 5.4844-3.4453 3.4805-5.3633 8.1797-5.3438 13.074 0.019532 4.8945 1.9844 9.582 5.4531 13.031 3.4727 3.4492 8.1719 5.3789 13.066 5.3711 4.8945-0.011719 9.5859-1.9648 13.043-5.4258 3.457-3.4648 5.3984-8.1602 5.3984-13.055 0-4.9219-1.9648-9.6406-5.457-13.109-3.4922-3.4688-8.2227-5.4023-13.145-5.3711zm87 0h0.003906c-4.9023 0-9.6016 1.9492-13.066 5.4141s-5.4141 8.1641-5.4141 13.066 1.9492 9.6016 5.4141 13.066 8.1641 5.4141 13.066 5.4141c4.9023 0 9.6016-1.9492 13.066-5.4141 3.4688-3.4648 5.4141-8.1641 5.4141-13.066s-1.9453-9.6016-5.4141-13.066c-3.4648-3.4648-8.1641-5.4141-13.066-5.4141zm-503.04-503.04c-0.03125-4.8945-2.0039-9.5781-5.4844-13.02-3.4805-3.4414-8.1797-5.3633-13.074-5.3398-4.8945 0.019531-9.582 1.9805-13.031 5.4531-3.4492 3.4727-5.3789 8.1719-5.3711 13.066 0.011719 4.8945 1.9648 9.582 5.4258 13.039 3.4648 3.457 8.1602 5.3984 13.055 5.3984 4.9219 0.003906 9.6406-1.9609 13.109-5.4531s5.4023-8.2227 5.3711-13.145zm0 87c0-4.9023-1.9492-9.6016-5.4141-13.066-3.4648-3.4688-8.1641-5.4141-13.066-5.4141s-9.6016 1.9453-13.066 5.4141c-3.4648 3.4648-5.4141 8.1641-5.4141 13.066 0 4.9023 1.9492 9.6016 5.4141 13.066s8.1641 5.4141 13.066 5.4141 9.6016-1.9492 13.066-5.4141 5.4141-8.1641 5.4141-13.066zm0 86.879c0-4.9023-1.9492-9.6016-5.4141-13.066-3.4648-3.4648-8.1641-5.4141-13.066-5.4141s-9.6016 1.9492-13.066 5.4141c-3.4648 3.4648-5.4141 8.1641-5.4141 13.066s1.9492 9.6016 5.4141 13.066c3.4648 3.4688 8.1641 5.4141 13.066 5.4141 4.9648 0 9.7188-1.9961 13.195-5.5391 3.4766-3.543 5.3828-8.3359 5.2852-13.301zm0 173.76c-0.03125-4.8945-2.0039-9.5781-5.4844-13.02-3.4805-3.4414-8.1797-5.3633-13.074-5.3398-4.8945 0.019531-9.582 1.9805-13.031 5.4531s-5.3789 8.1719-5.3711 13.066c0.011719 4.8945 1.9648 9.582 5.4258 13.039 3.4648 3.457 8.1602 5.3984 13.055 5.3984 4.9219 0 9.6406-1.9609 13.109-5.4531s5.4023-8.2227 5.3711-13.145zm0-86.879v-0.003907c-0.03125-4.8906-2.0039-9.5742-5.4844-13.016-3.4805-3.4414-8.1797-5.3633-13.074-5.3438-4.8945 0.023438-9.582 1.9844-13.031 5.457-3.4492 3.4727-5.3789 8.168-5.3711 13.062 0.011719 4.8945 1.9648 9.5859 5.4258 13.043 3.4648 3.457 8.1602 5.3984 13.055 5.3984 4.9219 0 9.6406-1.9648 13.109-5.4531 3.4688-3.4922 5.4023-8.2266 5.3711-13.148zm0 173.88c0-4.9023-1.9492-9.6016-5.4141-13.07-3.4648-3.4648-8.1641-5.4102-13.066-5.4102s-9.6016 1.9453-13.066 5.4102c-3.4648 3.4688-5.4141 8.168-5.4141 13.07 0 4.8984 1.9492 9.6016 5.4141 13.066s8.1641 5.4141 13.066 5.4141 9.6016-1.9492 13.066-5.4141 5.4141-8.168 5.4141-13.066zm0 173.76v-0.003906c-0.03125-4.8945-2.0039-9.5742-5.4844-13.016-3.4805-3.4414-8.1797-5.3633-13.074-5.3438-4.8945 0.023438-9.582 1.9844-13.031 5.457-3.4492 3.4688-5.3789 8.168-5.3711 13.062 0.011719 4.8945 1.9648 9.5859 5.4258 13.043 3.4648 3.457 8.1602 5.3984 13.055 5.3984 4.9219 0 9.6406-1.9648 13.109-5.457 3.4688-3.4883 5.4023-8.2227 5.3711-13.145zm0 87v-0.003906c0.09375-4.918-1.7773-9.6758-5.1992-13.211-3.4219-3.5391-8.1133-5.5625-13.035-5.625-4.9219-0.066407-9.668 1.8359-13.18 5.2812-3.5156 3.4453-5.5117 8.1523-5.543 13.074-0.03125 4.9219 1.8984 9.6523 5.3672 13.145 3.4688 3.4922 8.1875 5.457 13.109 5.457 4.8398 0 9.4844-1.8984 12.941-5.2852 3.457-3.3867 5.4453-7.9961 5.5391-12.836zm0 86.879c0-4.9023-1.9492-9.6016-5.4141-13.07-3.4648-3.4648-8.1641-5.4102-13.066-5.4102s-9.6016 1.9453-13.066 5.4102c-3.4648 3.4688-5.4141 8.168-5.4141 13.07 0 4.8984 1.9492 9.6016 5.4141 13.066s8.1641 5.4102 13.066 5.4102 9.6016-1.9453 13.066-5.4102 5.4141-8.168 5.4141-13.066zm0 86.879c0-4.9023-1.9492-9.6016-5.4141-13.066-3.4648-3.4688-8.1641-5.4141-13.066-5.4141s-9.6016 1.9453-13.066 5.4141c-3.4648 3.4648-5.4141 8.1641-5.4141 13.066s1.9492 9.6016 5.4141 13.066c3.4648 3.4648 8.1641 5.4141 13.066 5.4141 4.8398 0 9.4844-1.8984 12.941-5.2852 3.457-3.3906 5.4453-7.9961 5.5391-12.836zm0 86.879c-0.03125-4.8945-2.0039-9.5742-5.4844-13.016-3.4805-3.4453-8.1797-5.3633-13.074-5.3438-4.8945 0.019532-9.582 1.9844-13.031 5.4531-3.4492 3.4727-5.3789 8.1719-5.3711 13.066 0.011719 4.8945 1.9648 9.5859 5.4258 13.043 3.4648 3.457 8.1602 5.3984 13.055 5.3984 4.9219 0 9.6406-1.9648 13.109-5.457 3.4688-3.4922 5.4023-8.2227 5.3711-13.145zm0 87c0-4.9023-1.9492-9.6016-5.4141-13.066s-8.1641-5.4141-13.066-5.4141-9.6016 1.9492-13.066 5.4141-5.4141 8.1641-5.4141 13.066c0 4.9023 1.9492 9.6016 5.4141 13.066 3.4648 3.4688 8.1641 5.4141 13.066 5.4141s9.6016-1.9453 13.066-5.4141c3.4648-3.4648 5.4141-8.1641 5.4141-13.066z" fill="#2a5da6"/>
</svg>
