<svg width="28" height="28" viewBox="0 0 28 28" fill="none" xmlns="http://www.w3.org/2000/svg">
<path d="M17.8803 5.98742C17.3263 6.54139 16.4461 6.54139 15.8781 5.97332C15.31 5.40525 15.3244 4.53891 15.8781 3.98521C16.4318 3.43151 17.3263 3.41714 17.88 3.97083C18.4337 4.52453 18.4337 5.43345 17.88 5.98715" fill="blue"/>
<path d="M20.8568 8.96376C20.3028 9.51773 19.4226 9.51773 18.8545 8.94966C18.2865 8.38159 18.3006 7.51498 18.8543 6.96128C19.408 6.40758 20.3031 6.39375 20.8568 6.94745C21.4105 7.50115 21.4105 8.41006 20.8568 8.96376" fill="blue"/>
<path d="M23.8334 11.9408C23.2795 12.4948 22.3993 12.4948 21.8312 11.9267C21.2632 11.3586 21.2773 10.492 21.831 9.93833C22.3847 9.38463 23.2797 9.3708 23.8334 9.9245C24.3871 10.4782 24.3871 11.3871 23.8334 11.9408Z" fill="blue"/>
<path d="M26.8101 14.9174C26.2562 15.4713 25.376 15.4713 24.8079 14.9033C24.2398 14.3352 24.2539 13.4686 24.8076 12.9149C25.3613 12.3612 26.2564 12.3474 26.8101 12.9011C27.3638 13.4548 27.3638 14.3637 26.8101 14.9174" fill="blue"/>
<path d="M20.8568 14.9174C20.3028 15.4713 19.4226 15.4713 18.8545 14.9033C18.2865 14.3352 18.3006 13.4686 18.8543 12.9149C19.408 12.3612 20.3028 12.3471 20.8568 12.9011C21.4107 13.455 21.4105 14.3637 20.8568 14.9174Z" fill="blue"/>
<path d="M23.8334 17.8939C23.2795 18.4479 22.3993 18.4479 21.8312 17.8798C21.2632 17.3118 21.2773 16.4452 21.831 15.8915C22.3847 15.3378 23.2795 15.3237 23.8334 15.8776C24.3874 16.4316 24.3871 17.3402 23.8334 17.8939Z" fill="blue"/>
<path d="M14.9033 14.9174C14.3493 15.4713 13.4691 15.4713 12.9011 14.9033C12.333 14.3352 12.3471 13.4686 12.9008 12.9149C13.4545 12.3612 14.3493 12.3471 14.9033 12.9011C15.4572 13.455 15.457 14.3637 14.9033 14.9174Z" fill="blue"/>
<path d="M20.8568 20.871C20.3028 21.425 19.4226 21.425 18.8545 20.8569C18.2865 20.2888 18.3006 19.4222 18.8543 18.8685C19.408 18.3148 20.3028 18.3007 20.8568 18.8547C21.4107 19.4086 21.4105 20.3173 20.8568 20.871Z" fill="blue"/>
<path d="M8.94999 14.9176C8.39602 15.4716 7.51585 15.4716 6.94778 14.9035C6.37971 14.3354 6.39408 13.4691 6.94778 12.9154C7.50148 12.3617 8.39629 12.3476 8.94999 12.9013C9.50369 13.455 9.50369 14.3639 8.94999 14.9176Z" fill="blue"/>
<path d="M17.8799 23.8476C17.326 24.4015 16.4458 24.4015 15.8777 23.8335C15.3097 23.2654 15.3238 22.3988 15.8775 21.8451C16.4312 21.2914 17.326 21.2773 17.8799 21.8312C18.4339 22.3852 18.4336 23.2939 17.8799 23.8476Z" fill="blue"/>
<path d="M2.99652 14.9174C2.44282 15.4711 1.56238 15.4713 0.994313 14.9033C0.426242 14.3352 0.440072 13.4689 0.994042 12.9149C1.54801 12.3609 2.44255 12.3471 2.99652 12.9011C3.55049 13.455 3.55022 14.3637 2.99652 14.9174Z" fill="blue"/>
</svg>
