<?xml version="1.0" encoding="UTF-8" standalone="no"?>
<svg
   width="109.31401"
   height="147.34433"
   viewBox="0 0 109.31401 147.34433"
   version="1.1"
   id="svg19"
   xmlns="http://www.w3.org/2000/svg"
   xmlns:svg="http://www.w3.org/2000/svg">
  <defs
     id="defs4">
    <clipPath
       id="clip-path">
      <rect
         id="Rectangle_492"
         data-name="Rectangle 492"
         width="109"
         height="148"
         transform="translate(48.338,-6.301)"
         fill="#ffffff"
         stroke="#707070"
         stroke-width="1"
         x="0"
         y="0" />
    </clipPath>
  </defs>
  <g
     id="Group_312"
     data-name="Group 312"
     transform="translate(-504.5,-519.99998)">
    <g
       id="Group_381"
       data-name="Group 381"
       transform="rotate(-90,556.8195,108.5185)">
      <g
         id="Mask_Group_3"
         data-name="Mask Group 3"
         clip-path="url(#clip-path)">
        <g
           id="Path_887"
           data-name="Path 887"
           transform="rotate(90,72.669,72.669)"
           fill="#ffffff">
          <path
             d="m 80.000008,3.9999847 c -4.273766,0 -8.291703,1.6643067 -11.313706,4.6863022 C 65.664307,11.70829 64,15.72625 64,20.000008 v 79.943 c 0,4.273762 1.664284,8.291722 4.686287,11.313722 2.713051,2.71305 6.228584,4.33178 10.01152,4.6344 L 110.87295,90.943008 h 1.36909 c 4.27377,0 8.29173,-1.664276 11.31372,-4.686279 3.02201,-3.022003 4.68627,-7.039963 4.68627,-11.313721 v -54.943 c 0,-4.273758 -1.66429,-8.291718 -4.68628,-11.3137211 -3.02201,-3.0219955 -7.03994,-4.6863022 -11.31371,-4.6863022 H 80.000008 m 0,-3.999999958789 h 32.242032 c 11.0457,0 20.00001,8.954322858789 20.00001,20.000023258789 v 54.943 c 0,11.0457 -8.95431,20 -20.00001,20 L 80.000008,119.94301 C 68.954308,119.94301 60,110.98871 60,99.943008 v -79.943 C 60,8.9543076 68.954308,-1.5258789e-5 80.000008,-1.5258789e-5 Z"
             stroke="none"
             fill="#161615"
             id="path8" />
        </g>
      </g>
      <path
         id="Path_2"
         data-name="Path 2"
         d="M 122.827,62.2 122.82,4.8 A 4.573,4.573 0 0 0 118.523,0 L 4.3,0.017 A 4.572,4.572 0 0 0 0,4.822 l 0.005,57.4 a 4.574,4.574 0 0 0 4.3,4.805 L 118.53,67.012 a 4.575,4.575 0 0 0 4.297,-4.812 z"
         transform="translate(0,96.486)"
         fill="#ffffff"
         stroke="#161615"
         stroke-miterlimit="10"
         stroke-width="4" />
      <path
         id="Path_3"
         data-name="Path 3"
         d="M 26.44,27.137 0.2,9.555 A 0.455,0.455 0 0 1 0.55,8.733 l 19.063,3.979 a 0.458,0.458 0 0 0 0.553,-0.446 L 20.194,0.759 a 0.765,0.765 0 0 1 1.194,-0.627 l 26.235,17.583 a 0.455,0.455 0 0 1 -0.352,0.822 L 28.21,14.558 a 0.459,0.459 0 0 0 -0.554,0.444 L 27.633,26.51 a 0.765,0.765 0 0 1 -1.193,0.627 z"
         transform="translate(34.381,116.363)"
         fill="none"
         stroke="#161615"
         stroke-miterlimit="10"
         stroke-width="2" />
      <g
         id="Group_382"
         data-name="Group 382"
         transform="rotate(90,704.759,-173.421)">
        <g
           id="Group_377"
           data-name="Group 377"
           transform="translate(935.88,482)">
          <path
             id="Rectangle_490"
             data-name="Rectangle 490"
             d="m 2,0 h 5 a 2,2 0 0 1 2,2 v 9 H 0 V 2 A 2,2 0 0 1 2,0 Z"
             transform="translate(-0.001)"
             fill="#ffffff"
             stroke="#000000"
             stroke-linejoin="round"
             stroke-width="3" />
        </g>
      </g>
    </g>
  </g>
</svg>
