<svg xmlns="http://www.w3.org/2000/svg" xmlns:xlink="http://www.w3.org/1999/xlink" width="222.57" height="176.664" viewBox="0 0 222.57 176.664">
  <defs>
    <clipPath id="clip-path">
      <rect id="Rectangle_538" data-name="Rectangle 538" width="179.785" height="144.664" fill="none"/>
    </clipPath>
  </defs>
  <g id="Group_649" data-name="Group 649" transform="translate(-60.215 -1416.664)">
    <g id="MICRO:BIT-V2" transform="translate(60.215 1416.664)" opacity="0.8">
      <g id="Group_572" data-name="Group 572" clip-path="url(#clip-path)">
        <path id="Path_967" data-name="Path 967" d="M165.838,2.091H13.946A11.856,11.856,0,0,0,2.091,13.946V130.717a11.856,11.856,0,0,0,11.855,11.856h5.17a7.014,7.014,0,0,1,11.8,0H51.554a7.014,7.014,0,0,1,11.8,0H83.991a7.014,7.014,0,0,1,11.8,0H116.43a7.013,7.013,0,0,1,11.8,0h20.636a7.013,7.013,0,0,1,11.8,0h5.17a11.855,11.855,0,0,0,11.855-11.856V13.946A11.855,11.855,0,0,0,165.838,2.091" fill="#fff"/>
        <path id="Path_968" data-name="Path 968" d="M165.838,2.091H13.946A11.856,11.856,0,0,0,2.091,13.946V130.717a11.856,11.856,0,0,0,11.855,11.856h5.17a7.014,7.014,0,0,1,11.8,0H51.554a7.014,7.014,0,0,1,11.8,0H83.991a7.014,7.014,0,0,1,11.8,0H116.43a7.013,7.013,0,0,1,11.8,0h20.636a7.013,7.013,0,0,1,11.8,0h5.17a11.855,11.855,0,0,0,11.855-11.856V13.946A11.855,11.855,0,0,0,165.838,2.091Z" fill="none" stroke="#000" stroke-linecap="round" stroke-linejoin="round" stroke-width="4"/>
        <path id="Path_969" data-name="Path 969" d="M161.792,120.356a7.025,7.025,0,1,1-7.024-7.023A7.024,7.024,0,0,1,161.792,120.356Z" fill="none" stroke="#000" stroke-linecap="round" stroke-linejoin="round" stroke-width="1.51"/>
        <path id="Path_970" data-name="Path 970" d="M129.354,120.356a7.025,7.025,0,1,1-7.024-7.023A7.024,7.024,0,0,1,129.354,120.356Z" fill="none" stroke="#000" stroke-linecap="round" stroke-linejoin="round" stroke-width="1.51"/>
        <path id="Path_971" data-name="Path 971" d="M96.916,120.356a7.024,7.024,0,1,1-7.023-7.023A7.023,7.023,0,0,1,96.916,120.356Z" fill="none" stroke="#000" stroke-linecap="round" stroke-linejoin="round" stroke-width="1.51"/>
        <path id="Path_972" data-name="Path 972" d="M64.479,120.356a7.024,7.024,0,1,1-7.025-7.023A7.025,7.025,0,0,1,64.479,120.356Z" fill="none" stroke="#000" stroke-linecap="round" stroke-linejoin="round" stroke-width="1.51"/>
        <path id="Path_973" data-name="Path 973" d="M32.041,120.356a7.024,7.024,0,1,1-7.024-7.023A7.024,7.024,0,0,1,32.041,120.356Z" fill="none" stroke="#000" stroke-linecap="round" stroke-linejoin="round" stroke-width="1.51"/>
        <g id="Group_577" data-name="Group 577">
          <path id="Path_980" data-name="Path 980" d="M50.288,2.9,3.016,49.86V12.028A9.131,9.131,0,0,1,12.147,2.9Z"/>
          <path id="Path_981" data-name="Path 981" d="M72.754,2.986l-23.886,23.6L48.957,2.9Z"/>
          <path id="Path_982" data-name="Path 982" d="M83.154,2.941,71.3,14.8,71.345,2.9Z"/>
          <path id="Path_983" data-name="Path 983" d="M96.2,26.028a1.7,1.7,0,1,0-1.732-1.7,1.717,1.717,0,0,0,1.732,1.7"/>
          <path id="Path_984" data-name="Path 984" d="M83.437,22.586a1.7,1.7,0,1,0,1.732,1.7,1.721,1.721,0,0,0-1.732-1.7"/>
          <path id="Path_985" data-name="Path 985" d="M83.448,19.241a5.045,5.045,0,1,0-.038,10.086l12.924.049a5.045,5.045,0,1,0,.038-10.087Zm12.874,13.5L83.4,32.689a8.407,8.407,0,1,1,.064-16.809l12.923.048a8.407,8.407,0,1,1-.062,16.809"/>
          <path id="Path_986" data-name="Path 986" d="M66.869,47.553A1.757,1.757,0,1,1,65.112,45.8a1.756,1.756,0,0,1,1.757,1.756"/>
          <path id="Path_987" data-name="Path 987" d="M79.259,47.553A1.757,1.757,0,1,1,77.5,45.8a1.756,1.756,0,0,1,1.756,1.756"/>
          <path id="Path_988" data-name="Path 988" d="M91.648,47.553A1.757,1.757,0,1,1,89.892,45.8a1.756,1.756,0,0,1,1.756,1.756"/>
          <path id="Path_989" data-name="Path 989" d="M104.038,47.553a1.756,1.756,0,1,1-1.756-1.756,1.756,1.756,0,0,1,1.756,1.756"/>
          <path id="Path_990" data-name="Path 990" d="M116.428,47.553a1.756,1.756,0,1,1-1.756-1.756,1.756,1.756,0,0,1,1.756,1.756"/>
          <path id="Path_991" data-name="Path 991" d="M66.869,59.943a1.757,1.757,0,1,1-1.757-1.756,1.756,1.756,0,0,1,1.757,1.756"/>
          <path id="Path_992" data-name="Path 992" d="M79.259,59.943A1.757,1.757,0,1,1,77.5,58.187a1.756,1.756,0,0,1,1.756,1.756"/>
          <path id="Path_993" data-name="Path 993" d="M91.648,59.943a1.757,1.757,0,1,1-1.756-1.756,1.756,1.756,0,0,1,1.756,1.756"/>
          <path id="Path_994" data-name="Path 994" d="M104.038,59.943a1.756,1.756,0,1,1-1.756-1.756,1.756,1.756,0,0,1,1.756,1.756"/>
          <path id="Path_995" data-name="Path 995" d="M116.428,59.943a1.756,1.756,0,1,1-1.756-1.756,1.756,1.756,0,0,1,1.756,1.756"/>
          <path id="Path_996" data-name="Path 996" d="M66.869,72.332a1.757,1.757,0,1,1-1.757-1.756,1.757,1.757,0,0,1,1.757,1.756"/>
          <path id="Path_997" data-name="Path 997" d="M79.259,72.332A1.757,1.757,0,1,1,77.5,70.576a1.757,1.757,0,0,1,1.756,1.756"/>
          <path id="Path_998" data-name="Path 998" d="M91.648,72.332a1.757,1.757,0,1,1-1.756-1.756,1.757,1.757,0,0,1,1.756,1.756"/>
          <path id="Path_999" data-name="Path 999" d="M104.038,72.332a1.756,1.756,0,1,1-1.756-1.756,1.757,1.757,0,0,1,1.756,1.756"/>
          <path id="Path_1000" data-name="Path 1000" d="M116.428,72.332a1.756,1.756,0,1,1-1.756-1.756,1.757,1.757,0,0,1,1.756,1.756"/>
          <path id="Path_1001" data-name="Path 1001" d="M66.869,84.722a1.757,1.757,0,1,1-1.757-1.756,1.756,1.756,0,0,1,1.757,1.756"/>
          <path id="Path_1002" data-name="Path 1002" d="M79.259,84.722A1.757,1.757,0,1,1,77.5,82.966a1.756,1.756,0,0,1,1.756,1.756"/>
          <path id="Path_1004" data-name="Path 1004" d="M104.038,84.722a1.756,1.756,0,1,1-1.756-1.756,1.756,1.756,0,0,1,1.756,1.756"/>
          <path id="Path_1005" data-name="Path 1005" d="M116.428,84.722a1.756,1.756,0,1,1-1.756-1.756,1.756,1.756,0,0,1,1.756,1.756"/>
          <path id="Path_1006" data-name="Path 1006" d="M66.869,97.112a1.757,1.757,0,1,1-1.757-1.757,1.756,1.756,0,0,1,1.757,1.757"/>
          <path id="Path_1007" data-name="Path 1007" d="M79.259,97.112A1.757,1.757,0,1,1,77.5,95.355a1.756,1.756,0,0,1,1.756,1.757"/>
          <path id="Path_1008" data-name="Path 1008" d="M91.648,97.112a1.757,1.757,0,1,1-1.756-1.757,1.756,1.756,0,0,1,1.756,1.757"/>
          <path id="Path_1009" data-name="Path 1009" d="M104.038,97.112a1.756,1.756,0,1,1-1.756-1.757,1.756,1.756,0,0,1,1.756,1.757"/>
          <path id="Path_1010" data-name="Path 1010" d="M116.428,97.112a1.756,1.756,0,1,1-1.756-1.757,1.756,1.756,0,0,1,1.756,1.757"/>
          <path id="Path_1051" data-name="Path 1051" d="M91.648,84.722a1.757,1.757,0,1,1-1.756-1.756,1.756,1.756,0,0,1,1.756,1.756"/>
          <path id="Path_1052" data-name="Path 1052" d="M163.2,82.868H146.339a2.113,2.113,0,0,1-2.108-2.106V63.9a2.113,2.113,0,0,1,2.108-2.107H163.2A2.113,2.113,0,0,1,165.3,63.9V80.762a2.113,2.113,0,0,1-2.107,2.106"/>
          <path id="Path_1053" data-name="Path 1053" d="M33.446,82.868H16.588a2.113,2.113,0,0,1-2.108-2.106V63.9A2.113,2.113,0,0,1,16.588,61.8H33.446A2.113,2.113,0,0,1,35.552,63.9V80.762a2.113,2.113,0,0,1-2.106,2.106"/>
        </g>
        <path id="Path_976" data-name="Path 976" d="M159.333,72.332a4.565,4.565,0,1,1-4.565-4.565,4.565,4.565,0,0,1,4.565,4.565" fill="#fff"/>
        <path id="Path_978" data-name="Path 978" d="M29.584,72.332a4.566,4.566,0,1,1-4.565-4.565,4.565,4.565,0,0,1,4.565,4.565" fill="#fff"/>
      </g>
    </g>
    <g id="MICRO:BIT-V2-2" data-name="MICRO:BIT-V2" transform="translate(103 1448.664)">
      <g id="Group_572-2" data-name="Group 572" clip-path="url(#clip-path)">
        <path id="Path_967-2" data-name="Path 967" d="M165.838,2.091H13.946A11.856,11.856,0,0,0,2.091,13.946V130.717a11.856,11.856,0,0,0,11.855,11.856h5.17a7.014,7.014,0,0,1,11.8,0H51.554a7.014,7.014,0,0,1,11.8,0H83.991a7.014,7.014,0,0,1,11.8,0H116.43a7.013,7.013,0,0,1,11.8,0h20.636a7.013,7.013,0,0,1,11.8,0h5.17a11.855,11.855,0,0,0,11.855-11.856V13.946A11.855,11.855,0,0,0,165.838,2.091" fill="#fff"/>
        <path id="Path_968-2" data-name="Path 968" d="M165.838,2.091H13.946A11.856,11.856,0,0,0,2.091,13.946V130.717a11.856,11.856,0,0,0,11.855,11.856h5.17a7.014,7.014,0,0,1,11.8,0H51.554a7.014,7.014,0,0,1,11.8,0H83.991a7.014,7.014,0,0,1,11.8,0H116.43a7.013,7.013,0,0,1,11.8,0h20.636a7.013,7.013,0,0,1,11.8,0h5.17a11.855,11.855,0,0,0,11.855-11.856V13.946A11.855,11.855,0,0,0,165.838,2.091Z" fill="none" stroke="#000" stroke-linecap="round" stroke-linejoin="round" stroke-width="4"/>
        <path id="Path_969-2" data-name="Path 969" d="M161.792,120.356a7.025,7.025,0,1,1-7.024-7.023A7.024,7.024,0,0,1,161.792,120.356Z" fill="none" stroke="#000" stroke-linecap="round" stroke-linejoin="round" stroke-width="1.51"/>
        <path id="Path_970-2" data-name="Path 970" d="M129.354,120.356a7.025,7.025,0,1,1-7.024-7.023A7.024,7.024,0,0,1,129.354,120.356Z" fill="none" stroke="#000" stroke-linecap="round" stroke-linejoin="round" stroke-width="1.51"/>
        <path id="Path_971-2" data-name="Path 971" d="M96.916,120.356a7.024,7.024,0,1,1-7.023-7.023A7.023,7.023,0,0,1,96.916,120.356Z" fill="none" stroke="#000" stroke-linecap="round" stroke-linejoin="round" stroke-width="1.51"/>
        <path id="Path_972-2" data-name="Path 972" d="M64.479,120.356a7.024,7.024,0,1,1-7.025-7.023A7.025,7.025,0,0,1,64.479,120.356Z" fill="none" stroke="#000" stroke-linecap="round" stroke-linejoin="round" stroke-width="1.51"/>
        <path id="Path_973-2" data-name="Path 973" d="M32.041,120.356a7.024,7.024,0,1,1-7.024-7.023A7.024,7.024,0,0,1,32.041,120.356Z" fill="none" stroke="#000" stroke-linecap="round" stroke-linejoin="round" stroke-width="1.51"/>
        <g id="Group_577-2" data-name="Group 577">
          <path id="Path_980-2" data-name="Path 980" d="M50.288,2.9,3.016,49.86V12.028A9.131,9.131,0,0,1,12.147,2.9Z"/>
          <path id="Path_981-2" data-name="Path 981" d="M72.754,2.986l-23.886,23.6L48.957,2.9Z"/>
          <path id="Path_982-2" data-name="Path 982" d="M83.154,2.941,71.3,14.8,71.345,2.9Z"/>
          <path id="Path_983-2" data-name="Path 983" d="M96.2,26.028a1.7,1.7,0,1,0-1.732-1.7,1.717,1.717,0,0,0,1.732,1.7"/>
          <path id="Path_984-2" data-name="Path 984" d="M83.437,22.586a1.7,1.7,0,1,0,1.732,1.7,1.721,1.721,0,0,0-1.732-1.7"/>
          <path id="Path_985-2" data-name="Path 985" d="M83.448,19.241a5.045,5.045,0,1,0-.038,10.086l12.924.049a5.045,5.045,0,1,0,.038-10.087Zm12.874,13.5L83.4,32.689a8.407,8.407,0,1,1,.064-16.809l12.923.048a8.407,8.407,0,1,1-.062,16.809"/>
          <path id="Path_986-2" data-name="Path 986" d="M66.869,47.553A1.757,1.757,0,1,1,65.112,45.8a1.756,1.756,0,0,1,1.757,1.756"/>
          <path id="Path_987-2" data-name="Path 987" d="M79.259,47.553A1.757,1.757,0,1,1,77.5,45.8a1.756,1.756,0,0,1,1.756,1.756"/>
          <path id="Path_988-2" data-name="Path 988" d="M91.648,47.553A1.757,1.757,0,1,1,89.892,45.8a1.756,1.756,0,0,1,1.756,1.756"/>
          <path id="Path_989-2" data-name="Path 989" d="M104.038,47.553a1.756,1.756,0,1,1-1.756-1.756,1.756,1.756,0,0,1,1.756,1.756"/>
          <path id="Path_990-2" data-name="Path 990" d="M116.428,47.553a1.756,1.756,0,1,1-1.756-1.756,1.756,1.756,0,0,1,1.756,1.756"/>
          <path id="Path_991-2" data-name="Path 991" d="M66.869,59.943a1.757,1.757,0,1,1-1.757-1.756,1.756,1.756,0,0,1,1.757,1.756"/>
          <path id="Path_992-2" data-name="Path 992" d="M79.259,59.943A1.757,1.757,0,1,1,77.5,58.187a1.756,1.756,0,0,1,1.756,1.756"/>
          <path id="Path_993-2" data-name="Path 993" d="M91.648,59.943a1.757,1.757,0,1,1-1.756-1.756,1.756,1.756,0,0,1,1.756,1.756"/>
          <path id="Path_994-2" data-name="Path 994" d="M104.038,59.943a1.756,1.756,0,1,1-1.756-1.756,1.756,1.756,0,0,1,1.756,1.756"/>
          <path id="Path_995-2" data-name="Path 995" d="M116.428,59.943a1.756,1.756,0,1,1-1.756-1.756,1.756,1.756,0,0,1,1.756,1.756"/>
          <path id="Path_996-2" data-name="Path 996" d="M66.869,72.332a1.757,1.757,0,1,1-1.757-1.756,1.757,1.757,0,0,1,1.757,1.756"/>
          <path id="Path_997-2" data-name="Path 997" d="M79.259,72.332A1.757,1.757,0,1,1,77.5,70.576a1.757,1.757,0,0,1,1.756,1.756"/>
          <path id="Path_998-2" data-name="Path 998" d="M91.648,72.332a1.757,1.757,0,1,1-1.756-1.756,1.757,1.757,0,0,1,1.756,1.756"/>
          <path id="Path_999-2" data-name="Path 999" d="M104.038,72.332a1.756,1.756,0,1,1-1.756-1.756,1.757,1.757,0,0,1,1.756,1.756"/>
          <path id="Path_1000-2" data-name="Path 1000" d="M116.428,72.332a1.756,1.756,0,1,1-1.756-1.756,1.757,1.757,0,0,1,1.756,1.756"/>
          <path id="Path_1001-2" data-name="Path 1001" d="M66.869,84.722a1.757,1.757,0,1,1-1.757-1.756,1.756,1.756,0,0,1,1.757,1.756"/>
          <path id="Path_1002-2" data-name="Path 1002" d="M79.259,84.722A1.757,1.757,0,1,1,77.5,82.966a1.756,1.756,0,0,1,1.756,1.756"/>
          <path id="Path_1004-2" data-name="Path 1004" d="M104.038,84.722a1.756,1.756,0,1,1-1.756-1.756,1.756,1.756,0,0,1,1.756,1.756"/>
          <path id="Path_1005-2" data-name="Path 1005" d="M116.428,84.722a1.756,1.756,0,1,1-1.756-1.756,1.756,1.756,0,0,1,1.756,1.756"/>
          <path id="Path_1006-2" data-name="Path 1006" d="M66.869,97.112a1.757,1.757,0,1,1-1.757-1.757,1.756,1.756,0,0,1,1.757,1.757"/>
          <path id="Path_1007-2" data-name="Path 1007" d="M79.259,97.112A1.757,1.757,0,1,1,77.5,95.355a1.756,1.756,0,0,1,1.756,1.757"/>
          <path id="Path_1008-2" data-name="Path 1008" d="M91.648,97.112a1.757,1.757,0,1,1-1.756-1.757,1.756,1.756,0,0,1,1.756,1.757"/>
          <path id="Path_1009-2" data-name="Path 1009" d="M104.038,97.112a1.756,1.756,0,1,1-1.756-1.757,1.756,1.756,0,0,1,1.756,1.757"/>
          <path id="Path_1010-2" data-name="Path 1010" d="M116.428,97.112a1.756,1.756,0,1,1-1.756-1.757,1.756,1.756,0,0,1,1.756,1.757"/>
          <path id="Path_1051-2" data-name="Path 1051" d="M91.648,84.722a1.757,1.757,0,1,1-1.756-1.756,1.756,1.756,0,0,1,1.756,1.756"/>
          <path id="Path_1052-2" data-name="Path 1052" d="M163.2,82.868H146.339a2.113,2.113,0,0,1-2.108-2.106V63.9a2.113,2.113,0,0,1,2.108-2.107H163.2A2.113,2.113,0,0,1,165.3,63.9V80.762a2.113,2.113,0,0,1-2.107,2.106"/>
          <path id="Path_1053-2" data-name="Path 1053" d="M33.446,82.868H16.588a2.113,2.113,0,0,1-2.108-2.106V63.9A2.113,2.113,0,0,1,16.588,61.8H33.446A2.113,2.113,0,0,1,35.552,63.9V80.762a2.113,2.113,0,0,1-2.106,2.106"/>
        </g>
        <path id="Path_976-2" data-name="Path 976" d="M159.333,72.332a4.565,4.565,0,1,1-4.565-4.565,4.565,4.565,0,0,1,4.565,4.565" fill="#fff"/>
        <path id="Path_978-2" data-name="Path 978" d="M29.584,72.332a4.566,4.566,0,1,1-4.565-4.565,4.565,4.565,0,0,1,4.565,4.565" fill="#fff"/>
      </g>
    </g>
  </g>
</svg>
