<svg id="Group_117" data-name="Group 117" xmlns="http://www.w3.org/2000/svg" xmlns:xlink="http://www.w3.org/1999/xlink" width="378.452" height="223.948" viewBox="0 0 378.452 223.948">
  <defs>
    <clipPath id="clip-path">
      <rect id="Rectangle_158" data-name="Rectangle 158" width="378.452" height="223.948" fill="none"/>
    </clipPath>
    <clipPath id="clip-path-3">
      <rect id="Rectangle_154" data-name="Rectangle 154" width="28.364" height="49.837" transform="translate(124.79 122.925)" fill="none"/>
    </clipPath>
  </defs>
  <g id="Group_122" data-name="Group 122" clip-path="url(#clip-path)">
    <line id="Line_57" data-name="Line 57" x1="26.221" y2="0.278" transform="translate(75.981 145.473)" fill="none" stroke="#1d1d1b" stroke-linecap="round" stroke-linejoin="round" stroke-width="4.182"/>
    <path id="Path_746" data-name="Path 746" d="M94.311,132.959,105.4,145.412,94.6,158.118" fill="none" stroke="#1d1d1b" stroke-linecap="round" stroke-linejoin="round" stroke-width="4.182"/>
    <line id="Line_58" data-name="Line 58" x1="0.278" y1="24.221" transform="translate(226.856 50.71)" fill="none" stroke="#1d1d1b" stroke-linecap="round" stroke-linejoin="round" stroke-width="4.182"/>
    <path id="Path_747" data-name="Path 747" d="M239.647,68.04,227.194,79.132l-12.706-10.8" fill="none" stroke="#1d1d1b" stroke-linecap="round" stroke-linejoin="round" stroke-width="4.182"/>
    <g id="Group_121" data-name="Group 121">
      <g id="Group_120" data-name="Group 120" clip-path="url(#clip-path)">
        <path id="Path_748" data-name="Path 748" d="M41.587,95.437l25.949-.072a.845.845,0,0,1,.845.841l.3,110.153a.845.845,0,0,1-.84.845l-25.95.072a.846.846,0,0,1-.845-.841l-.3-110.153a.846.846,0,0,1,.841-.845" fill="#c6c6c6"/>
        <path id="Path_749" data-name="Path 749" d="M41.587,95.437l25.949-.072a.845.845,0,0,1,.845.841l.3,110.153a.845.845,0,0,1-.84.845l-25.95.072a.846.846,0,0,1-.845-.841l-.3-110.153A.846.846,0,0,1,41.587,95.437Z" fill="none" stroke="#1d1d1b" stroke-linecap="round" stroke-miterlimit="10" stroke-width="3"/>
        <path id="Path_750" data-name="Path 750" d="M47.451,95.421l14.222-.039a.154.154,0,0,0,.152-.153l-.018-6.5a.153.153,0,0,0-.153-.152l-14.221.04a.152.152,0,0,0-.152.153l.017,6.5a.153.153,0,0,0,.153.152" fill="#c6c6c6"/>
        <path id="Path_751" data-name="Path 751" d="M47.451,95.421l14.222-.039a.154.154,0,0,0,.152-.153l-.018-6.5a.153.153,0,0,0-.153-.152l-14.221.04a.152.152,0,0,0-.152.153l.017,6.5A.153.153,0,0,0,47.451,95.421Z" fill="none" stroke="#1d1d1b" stroke-linecap="round" stroke-miterlimit="10" stroke-width="3"/>
        <path id="Path_752" data-name="Path 752" d="M28.593,202.1l-25.949.072a.845.845,0,0,1-.845-.841L1.5,91.176a.844.844,0,0,1,.84-.845l25.95-.073a.847.847,0,0,1,.845.842l.3,110.152a.844.844,0,0,1-.84.845" fill="#c6c6c6"/>
        <path id="Path_753" data-name="Path 753" d="M28.593,202.1l-25.949.072a.845.845,0,0,1-.845-.841L1.5,91.176a.844.844,0,0,1,.84-.845l25.95-.073a.847.847,0,0,1,.845.842l.3,110.152A.844.844,0,0,1,28.593,202.1Z" fill="none" stroke="#1d1d1b" stroke-linecap="round" stroke-miterlimit="10" stroke-width="3"/>
        <path id="Path_754" data-name="Path 754" d="M22.729,202.114l-14.222.039a.154.154,0,0,0-.152.153l.018,6.5a.153.153,0,0,0,.153.152l14.221-.04a.152.152,0,0,0,.152-.153l-.017-6.5a.153.153,0,0,0-.153-.152" fill="#c6c6c6"/>
        <path id="Path_755" data-name="Path 755" d="M22.729,202.114l-14.222.039a.154.154,0,0,0-.152.153l.018,6.5a.153.153,0,0,0,.153.152l14.221-.04a.152.152,0,0,0,.152-.153l-.017-6.5A.153.153,0,0,0,22.729,202.114Z" fill="none" stroke="#1d1d1b" stroke-linecap="round" stroke-miterlimit="10" stroke-width="3"/>
        <path id="Path_756" data-name="Path 756" d="M231.735,44.973h-9.846a1.911,1.911,0,0,1-1.911-1.911V29.09a1.912,1.912,0,0,1,1.911-1.912h9.846a1.912,1.912,0,0,1,1.911,1.912V43.062a1.911,1.911,0,0,1-1.911,1.911" fill="#47ac33"/>
        <path id="Path_757" data-name="Path 757" d="M174.408,218.791l-.333-140.708a5,5,0,0,0-5.016-4.992l-59.76.142a5,5,0,0,0-4.991,5.015l.333,140.708a5,5,0,0,0,5.016,4.992l59.759-.142a5,5,0,0,0,4.992-5.015" fill="#47ac33"/>
        <g id="Group_119" data-name="Group 119" opacity="0.5">
          <g id="Group_118" data-name="Group 118">
            <g id="Group_117-2" data-name="Group 117" clip-path="url(#clip-path-3)">
              <path id="Path_758" data-name="Path 758" d="M153.02,145.151l-18.187,27.4a.474.474,0,0,1-.858-.362l4.054-19.865a.476.476,0,0,0-.465-.574l-11.981.028a.8.8,0,0,1-.659-1.239l18.187-27.4a.474.474,0,0,1,.858.362l-4.054,19.865a.476.476,0,0,0,.465.574l11.981-.029a.8.8,0,0,1,.659,1.24" fill="#fff"/>
            </g>
          </g>
        </g>
        <path id="Path_759" data-name="Path 759" d="M226.812,36.076V33.621A31.62,31.62,0,0,0,195.192,2H173.043a31.62,31.62,0,0,0-31.62,31.62V73.707" fill="none" stroke="#47ac33" stroke-miterlimit="10" stroke-width="4"/>
        <path id="Path_760" data-name="Path 760" d="M364.506,80.762H212.614a11.856,11.856,0,0,0-11.855,11.855V209.388a11.856,11.856,0,0,0,11.855,11.856h5.17a7.014,7.014,0,0,1,11.8,0h20.636a7.014,7.014,0,0,1,11.8,0h20.635a7.014,7.014,0,0,1,11.8,0H315.1a7.013,7.013,0,0,1,11.8,0h20.636a7.013,7.013,0,0,1,11.8,0h5.17a11.855,11.855,0,0,0,11.855-11.856V92.617a11.855,11.855,0,0,0-11.855-11.855" fill="#fff"/>
        <path id="Path_761" data-name="Path 761" d="M364.506,80.762H212.614a11.856,11.856,0,0,0-11.855,11.855V209.388a11.856,11.856,0,0,0,11.855,11.856h5.17a7.014,7.014,0,0,1,11.8,0h20.636a7.014,7.014,0,0,1,11.8,0h20.635a7.014,7.014,0,0,1,11.8,0H315.1a7.013,7.013,0,0,1,11.8,0h20.636a7.013,7.013,0,0,1,11.8,0h5.17a11.855,11.855,0,0,0,11.855-11.856V92.617A11.855,11.855,0,0,0,364.506,80.762Z" fill="none" stroke="#48ac34" stroke-linecap="round" stroke-linejoin="round" stroke-width="4.182"/>
        <path id="Path_762" data-name="Path 762" d="M360.46,199.027A7.024,7.024,0,1,1,353.436,192,7.024,7.024,0,0,1,360.46,199.027Z" fill="none" stroke="#48ac34" stroke-linecap="round" stroke-linejoin="round" stroke-width="2.509"/>
        <path id="Path_763" data-name="Path 763" d="M328.022,199.027A7.024,7.024,0,1,1,321,192,7.023,7.023,0,0,1,328.022,199.027Z" fill="none" stroke="#48ac34" stroke-linecap="round" stroke-linejoin="round" stroke-width="2.509"/>
        <path id="Path_764" data-name="Path 764" d="M295.584,199.027A7.024,7.024,0,1,1,288.561,192,7.023,7.023,0,0,1,295.584,199.027Z" fill="none" stroke="#48ac34" stroke-linecap="round" stroke-linejoin="round" stroke-width="2.509"/>
        <path id="Path_765" data-name="Path 765" d="M263.147,199.027A7.024,7.024,0,1,1,256.123,192,7.024,7.024,0,0,1,263.147,199.027Z" fill="none" stroke="#48ac34" stroke-linecap="round" stroke-linejoin="round" stroke-width="2.509"/>
        <path id="Path_766" data-name="Path 766" d="M230.709,199.027A7.024,7.024,0,1,1,223.685,192,7.024,7.024,0,0,1,230.709,199.027Z" fill="none" stroke="#48ac34" stroke-linecap="round" stroke-linejoin="round" stroke-width="2.509"/>
        <path id="Path_767" data-name="Path 767" d="M361.864,161.539H345.007a2.113,2.113,0,0,1-2.108-2.106V142.574a2.113,2.113,0,0,1,2.108-2.107h16.857a2.113,2.113,0,0,1,2.107,2.107v16.859a2.113,2.113,0,0,1-2.107,2.106" fill="#48ac34"/>
        <path id="Rectangle_155" data-name="Rectangle 155" d="M2.106,0H18.964a2.108,2.108,0,0,1,2.108,2.108V18.965a2.107,2.107,0,0,1-2.107,2.107H2.107A2.107,2.107,0,0,1,0,18.965V2.106A2.106,2.106,0,0,1,2.106,0Z" transform="translate(342.899 140.467)" fill="none" stroke="#48ac34" stroke-linecap="round" stroke-linejoin="round" stroke-width="1.255"/>
        <path id="Path_768" data-name="Path 768" d="M232.114,161.539H215.256a2.113,2.113,0,0,1-2.108-2.106V142.574a2.113,2.113,0,0,1,2.108-2.107h16.858a2.113,2.113,0,0,1,2.106,2.107v16.859a2.113,2.113,0,0,1-2.106,2.106" fill="#48ac34"/>
        <path id="Rectangle_156" data-name="Rectangle 156" d="M2.106,0h16.86a2.106,2.106,0,0,1,2.106,2.106V18.965a2.107,2.107,0,0,1-2.107,2.107H2.106A2.106,2.106,0,0,1,0,18.966V2.106A2.106,2.106,0,0,1,2.106,0Z" transform="translate(213.148 140.467)" fill="none" stroke="#48ac34" stroke-linecap="round" stroke-linejoin="round" stroke-width="1.255"/>
        <path id="Path_769" data-name="Path 769" d="M358,151a4.566,4.566,0,1,1-4.565-4.565A4.565,4.565,0,0,1,358,151" fill="#fff"/>
        <path id="Path_770" data-name="Path 770" d="M358,151a4.566,4.566,0,1,1-4.565-4.565A4.565,4.565,0,0,1,358,151Z" fill="none" stroke="#fff" stroke-miterlimit="10" stroke-width="2.091"/>
        <path id="Path_771" data-name="Path 771" d="M228.252,151a4.565,4.565,0,1,1-4.565-4.565A4.565,4.565,0,0,1,228.252,151" fill="#fff"/>
        <path id="Path_772" data-name="Path 772" d="M228.252,151a4.565,4.565,0,1,1-4.565-4.565A4.565,4.565,0,0,1,228.252,151Z" fill="none" stroke="#fff" stroke-miterlimit="10" stroke-width="2.091"/>
        <path id="Path_773" data-name="Path 773" d="M248.956,81.568l-47.272,46.963V90.7a9.131,9.131,0,0,1,9.131-9.131Z" fill="#48ac34"/>
        <path id="Path_774" data-name="Path 774" d="M271.422,81.656l-23.886,23.6.089-23.684Z" fill="#48ac34"/>
        <path id="Path_775" data-name="Path 775" d="M281.822,81.612,269.968,93.474l.045-11.906Z" fill="#48ac34"/>
        <path id="Path_776" data-name="Path 776" d="M294.866,104.7a1.7,1.7,0,1,0-1.732-1.7,1.717,1.717,0,0,0,1.732,1.7" fill="#48ac34"/>
        <path id="Path_777" data-name="Path 777" d="M282.1,101.257a1.7,1.7,0,1,0,1.732,1.7,1.721,1.721,0,0,0-1.732-1.7" fill="#48ac34"/>
        <path id="Path_778" data-name="Path 778" d="M282.116,97.911A5.045,5.045,0,1,0,282.078,108l12.924.05a5.045,5.045,0,1,0,.038-10.087Zm12.874,13.5-12.925-.048a8.407,8.407,0,1,1,.064-16.809l12.923.047a8.408,8.408,0,1,1-.062,16.81" fill="#48ac34"/>
        <path id="Path_779" data-name="Path 779" d="M265.537,126.223a1.757,1.757,0,1,1-1.757-1.756,1.756,1.756,0,0,1,1.757,1.756" fill="#48ac34"/>
        <path id="Path_780" data-name="Path 780" d="M277.927,126.223a1.757,1.757,0,1,1-1.756-1.756,1.756,1.756,0,0,1,1.756,1.756" fill="#48ac34"/>
        <path id="Path_781" data-name="Path 781" d="M290.316,126.223a1.757,1.757,0,1,1-1.756-1.756,1.756,1.756,0,0,1,1.756,1.756" fill="#48ac34"/>
        <path id="Path_782" data-name="Path 782" d="M302.706,126.223a1.756,1.756,0,1,1-1.756-1.756,1.756,1.756,0,0,1,1.756,1.756" fill="#48ac34"/>
        <path id="Path_783" data-name="Path 783" d="M315.1,126.223a1.756,1.756,0,1,1-1.756-1.756,1.756,1.756,0,0,1,1.756,1.756" fill="#48ac34"/>
        <path id="Path_784" data-name="Path 784" d="M265.537,138.613a1.757,1.757,0,1,1-1.757-1.756,1.756,1.756,0,0,1,1.757,1.756" fill="#48ac34"/>
        <path id="Path_785" data-name="Path 785" d="M277.927,138.613a1.757,1.757,0,1,1-1.756-1.756,1.756,1.756,0,0,1,1.756,1.756" fill="#48ac34"/>
        <path id="Path_786" data-name="Path 786" d="M290.316,138.613a1.757,1.757,0,1,1-1.756-1.756,1.756,1.756,0,0,1,1.756,1.756" fill="#48ac34"/>
        <path id="Path_787" data-name="Path 787" d="M302.706,138.613a1.756,1.756,0,1,1-1.756-1.756,1.756,1.756,0,0,1,1.756,1.756" fill="#48ac34"/>
        <path id="Path_788" data-name="Path 788" d="M315.1,138.613a1.756,1.756,0,1,1-1.756-1.756,1.756,1.756,0,0,1,1.756,1.756" fill="#48ac34"/>
        <path id="Path_789" data-name="Path 789" d="M265.537,151a1.757,1.757,0,1,1-1.757-1.756A1.757,1.757,0,0,1,265.537,151" fill="#48ac34"/>
        <path id="Path_790" data-name="Path 790" d="M277.927,151a1.757,1.757,0,1,1-1.756-1.756A1.757,1.757,0,0,1,277.927,151" fill="#48ac34"/>
        <path id="Path_791" data-name="Path 791" d="M290.316,151a1.757,1.757,0,1,1-1.756-1.756A1.757,1.757,0,0,1,290.316,151" fill="#48ac34"/>
        <path id="Path_792" data-name="Path 792" d="M302.706,151a1.756,1.756,0,1,1-1.756-1.756A1.757,1.757,0,0,1,302.706,151" fill="#48ac34"/>
        <path id="Path_793" data-name="Path 793" d="M315.1,151a1.756,1.756,0,1,1-1.756-1.756A1.757,1.757,0,0,1,315.1,151" fill="#48ac34"/>
        <path id="Path_794" data-name="Path 794" d="M265.537,163.392a1.757,1.757,0,1,1-1.757-1.756,1.756,1.756,0,0,1,1.757,1.756" fill="#48ac34"/>
        <path id="Path_795" data-name="Path 795" d="M277.927,163.392a1.757,1.757,0,1,1-1.756-1.756,1.756,1.756,0,0,1,1.756,1.756" fill="#48ac34"/>
        <path id="Path_796" data-name="Path 796" d="M290.316,163.392a1.757,1.757,0,1,1-1.756-1.756,1.756,1.756,0,0,1,1.756,1.756" fill="#48ac34"/>
        <path id="Path_797" data-name="Path 797" d="M302.706,163.392a1.756,1.756,0,1,1-1.756-1.756,1.756,1.756,0,0,1,1.756,1.756" fill="#48ac34"/>
        <path id="Path_798" data-name="Path 798" d="M315.1,163.392a1.756,1.756,0,1,1-1.756-1.756,1.756,1.756,0,0,1,1.756,1.756" fill="#48ac34"/>
        <path id="Path_799" data-name="Path 799" d="M265.537,175.783a1.757,1.757,0,1,1-1.757-1.757,1.756,1.756,0,0,1,1.757,1.757" fill="#48ac34"/>
        <path id="Path_800" data-name="Path 800" d="M277.927,175.783a1.757,1.757,0,1,1-1.756-1.757,1.756,1.756,0,0,1,1.756,1.757" fill="#48ac34"/>
        <path id="Path_801" data-name="Path 801" d="M290.316,175.783a1.757,1.757,0,1,1-1.756-1.757,1.756,1.756,0,0,1,1.756,1.757" fill="#48ac34"/>
        <path id="Path_802" data-name="Path 802" d="M302.706,175.783a1.756,1.756,0,1,1-1.756-1.757,1.756,1.756,0,0,1,1.756,1.757" fill="#48ac34"/>
        <path id="Path_803" data-name="Path 803" d="M315.1,175.783a1.756,1.756,0,1,1-1.756-1.757,1.756,1.756,0,0,1,1.756,1.757" fill="#48ac34"/>
      </g>
    </g>
  </g>
</svg>
