<?xml version="1.0" encoding="UTF-8"?>
<svg id="Layer_1" data-name="Layer 1" xmlns="http://www.w3.org/2000/svg" viewBox="0 0 470 280">
  <defs>
    <style>
      .cls-1 {
        fill: #333;
      }

      .cls-1, .cls-2 {
        stroke-width: 0px;
      }

      .cls-2 {
        fill: none;
      }
    </style>
  </defs>
  <g>
    <path id="Path_561" data-name="Path 561" class="cls-2" d="m353.6,44.84h-205.77c-8.87,0-16.06,7.19-16.06,16.06,0,0,0,0,0,0v158.19c0,8.87,7.19,16.06,16.06,16.06h7c2.84-4.42,8.72-5.69,13.13-2.85,1.14.74,2.12,1.71,2.85,2.85h27.96c2.84-4.41,8.72-5.69,13.13-2.85,1.15.74,2.12,1.71,2.86,2.86h27.96c2.84-4.41,8.72-5.69,13.13-2.86,1.15.74,2.12,1.71,2.86,2.86h27.96c2.84-4.41,8.71-5.69,13.13-2.86,1.15.74,2.12,1.71,2.86,2.86h27.96c2.84-4.41,8.72-5.69,13.13-2.85,1.15.74,2.12,1.71,2.86,2.86h7c8.87,0,16.06-7.19,16.06-16.06V60.9c0-8.87-7.19-16.06-16.06-16.06,0,0,0,0,0,0"/>
    <path class="cls-1" d="m356.31,238.27c-.89.12-1.79.19-2.71.19h-7c-1.12,0-2.17-.57-2.77-1.51-.48-.75-1.11-1.38-1.87-1.87-2.88-1.85-6.72-1.01-8.57,1.86-.61.94-1.65,1.51-2.77,1.51h-27.96c-1.12,0-2.17-.57-2.77-1.51-.48-.75-1.11-1.38-1.87-1.87-2.88-1.85-6.72-1.01-8.57,1.87-.61.94-1.65,1.51-2.77,1.51h-27.96c-1.12,0-2.17-.57-2.77-1.51-.48-.75-1.11-1.38-1.87-1.87-2.88-1.85-6.73-1.01-8.58,1.87-.61.94-1.65,1.51-2.77,1.51h-27.96c-1.12,0-2.17-.57-2.77-1.52-.48-.75-1.11-1.38-1.87-1.87-2.88-1.85-6.73-1.02-8.58,1.86-.61.94-1.65,1.51-2.77,1.51h-27.96c-1.12,0-2.17-.57-2.77-1.51-.48-.75-1.11-1.38-1.86-1.86-1.39-.9-3.06-1.2-4.67-.84-1.62.35-3.01,1.31-3.9,2.71-.61.94-1.65,1.51-2.77,1.51h-7c-10.67,0-19.36-8.68-19.36-19.36V60.9c0-10.67,8.68-19.36,19.36-19.36h205.77s0,0,.01,0c10.67,0,19.35,8.69,19.35,19.36v158.2c0,9.75-7.25,17.85-16.65,19.17Zm-8.08-6.4h5.37c7.04,0,12.76-5.73,12.76-12.76V60.9c0-7.04-5.72-12.76-12.76-12.77v-3.3s0,3.3,0,3.3h-205.77c-3.41,0-6.61,1.32-9.03,3.74-2.41,2.41-3.74,5.62-3.74,9.03v158.2c0,7.04,5.73,12.76,12.76,12.76h5.37c1.8-2.06,4.19-3.48,6.91-4.07,3.34-.73,6.77-.11,9.64,1.74,1.02.65,1.92,1.43,2.71,2.33h24.69c4.11-4.69,11.15-5.8,16.55-2.33,1.02.66,1.92,1.44,2.71,2.34h24.68c4.1-4.69,11.15-5.8,16.55-2.33,1.02.65,1.92,1.44,2.71,2.33h24.69c4.1-4.69,11.15-5.8,16.55-2.33,1.02.65,1.93,1.44,2.71,2.33h24.69c4.1-4.69,11.15-5.8,16.55-2.33,1.02.65,1.92,1.43,2.71,2.33Z"/>
    <path class="cls-1" d="m340.14,215.84c-.51.07-1.02.11-1.54.11-2.91,0-5.65-1.13-7.7-3.19-2.06-2.06-3.19-4.79-3.19-7.7,0-6.01,4.88-10.89,10.89-10.89,6.01,0,10.9,4.89,10.9,10.89h0c0,2.91-1.13,5.65-3.19,7.7-1.69,1.69-3.84,2.76-6.16,3.08Zm-2.68-18.85c-3.95.56-7,3.96-7,8.06,0,2.17.85,4.22,2.38,5.75s3.58,2.38,5.75,2.38c2.17,0,4.22-.85,5.75-2.38,1.54-1.54,2.38-3.58,2.38-5.75,0-4.49-3.65-8.14-8.14-8.14-.39,0-.77.03-1.14.08Zm10.65,8.06h.01s-.01,0-.01,0Z"/>
    <path class="cls-1" d="m296.2,215.84c-.51.07-1.02.11-1.54.11-2.91,0-5.65-1.13-7.7-3.19s-3.19-4.79-3.19-7.7c0-6.01,4.89-10.89,10.89-10.89,6.01,0,10.9,4.89,10.9,10.89h0c0,2.91-1.13,5.65-3.19,7.7-1.69,1.69-3.84,2.76-6.16,3.08Zm-2.68-18.85c-3.95.56-7,3.96-7,8.06,0,2.17.85,4.22,2.38,5.75s3.58,2.38,5.75,2.38c2.17,0,4.22-.85,5.75-2.38,1.54-1.54,2.38-3.58,2.38-5.75,0-4.49-3.65-8.14-8.14-8.14-.39,0-.77.03-1.14.08Zm10.65,8.06h.01s-.01,0-.01,0Z"/>
    <path class="cls-1" d="m252.26,215.84c-.51.07-1.02.11-1.54.11-6.01,0-10.9-4.89-10.9-10.89,0-6.01,4.89-10.89,10.89-10.9,6.01,0,10.89,4.89,10.9,10.89h0c0,2.91-1.13,5.65-3.19,7.7-1.69,1.69-3.84,2.76-6.17,3.08Zm-2.68-18.85c-3.95.56-7,3.96-7,8.06,0,4.49,3.65,8.14,8.14,8.14,2.18,0,4.22-.85,5.75-2.38,1.54-1.54,2.38-3.58,2.38-5.75h0c0-4.49-3.65-8.14-8.14-8.14-.39,0-.77.03-1.14.08Zm10.65,8.06h.01s-.01,0-.01,0Z"/>
    <path class="cls-1" d="m208.31,215.85c-.51.07-1.02.11-1.54.11-6.01,0-10.89-4.89-10.89-10.89,0-6.01,4.89-10.89,10.89-10.89,2.91,0,5.65,1.13,7.7,3.19,2.06,2.06,3.19,4.79,3.19,7.7,0,0,0,0,0,0,0,2.91-1.13,5.65-3.19,7.7-1.69,1.69-3.84,2.76-6.16,3.08Zm-2.68-18.85c-3.95.56-7,3.96-7,8.06,0,4.49,3.65,8.14,8.14,8.14,2.18,0,4.22-.85,5.75-2.38,1.54-1.54,2.38-3.58,2.38-5.75h0c0-2.17-.85-4.22-2.38-5.76-1.54-1.54-3.58-2.38-5.75-2.38-.39,0-.77.03-1.14.08Zm10.65,8.06h.01s-.01,0-.01,0Z"/>
    <path class="cls-1" d="m164.36,215.85c-.5.07-1.01.11-1.52.11-2.91,0-5.65-1.13-7.7-3.19-2.06-2.06-3.19-4.79-3.19-7.7,0-6.01,4.88-10.89,10.89-10.89,2.91,0,5.65,1.13,7.7,3.19,2.06,2.06,3.19,4.79,3.19,7.7h0c0,5.49-4.08,10.05-9.37,10.79Zm-2.66-18.85c-3.95.56-7,3.96-7,8.06,0,2.17.85,4.22,2.38,5.75,1.54,1.54,3.58,2.38,5.75,2.38,4.48,0,8.14-3.65,8.14-8.14h0c0-4.49-3.65-8.14-8.14-8.14-.39,0-.77.03-1.14.08Zm10.65,8.06h.01s-.01,0-.01,0Z"/>
    <path id="Path_568" data-name="Path 568" class="cls-1" d="m350.03,154.27h-22.84c-1.57,0-2.85-1.28-2.85-2.86v-22.84c.01-1.57,1.28-2.85,2.86-2.85h22.84c1.57,0,2.85,1.28,2.85,2.86v22.84c0,1.57-1.28,2.85-2.85,2.85"/>
    <path class="cls-1" d="m350.52,154.93c-.16.02-.32.03-.49.03h0s-22.84,0-22.84,0c-1.95,0-3.54-1.6-3.54-3.54v-22.84c.01-1.95,1.6-3.53,3.54-3.54h22.84c1.95,0,3.54,1.6,3.54,3.54v22.84c0,1.79-1.34,3.27-3.06,3.51Zm-.49-1.34c1.19,0,2.16-.97,2.17-2.17v-22.83c0-1.19-.97-2.16-2.17-2.16h-22.84c-1.19,0-2.16.98-2.16,2.17v22.84c0,1.19.97,2.16,2.16,2.17h22.84Z"/>
    <path id="Path_570" data-name="Path 570" class="cls-1" d="m174.25,154.27h-22.84c-1.57,0-2.85-1.28-2.85-2.86v-22.83c0-1.57,1.28-2.85,2.85-2.85h22.84c1.57,0,2.85,1.28,2.85,2.86v22.83c0,1.57-1.28,2.85-2.85,2.85"/>
    <path class="cls-1" d="m174.73,154.93c-.16.02-.32.03-.48.03,0,0,0,0,0,0h-22.84c-1.95,0-3.54-1.6-3.54-3.54v-22.83c0-1.95,1.59-3.53,3.54-3.54h22.84c1.95,0,3.54,1.6,3.54,3.54v22.83c0,1.79-1.34,3.27-3.06,3.51Zm-.48-1.34c1.18,0,2.16-.98,2.16-2.17v-22.83c0-1.19-.98-2.16-2.17-2.17h-22.84c-1.19,0-2.16.97-2.16,2.16v22.83c0,1.19.98,2.16,2.17,2.17h22.84Z"/>
    <path id="Path_572" data-name="Path 572" class="cls-2" d="m344.79,140c0,3.42-2.77,6.18-6.19,6.18-3.42,0-6.18-2.77-6.18-6.19,0-3.42,2.77-6.18,6.19-6.18,0,0,0,0,0,0,3.41,0,6.18,2.77,6.18,6.19"/>
    <path class="cls-2" d="m339.64,147.26c-.34.05-.69.07-1.04.07-4.04,0-7.33-3.29-7.33-7.34,0-4.04,3.29-7.33,7.34-7.33,4.04,0,7.33,3.3,7.33,7.34h0c0,1.96-.76,3.8-2.15,5.18-1.14,1.14-2.58,1.85-4.15,2.07Zm-1.74-12.25c-2.44.34-4.33,2.45-4.33,4.98,0,2.78,2.26,5.04,5.03,5.04,1.34,0,2.61-.52,3.56-1.47.95-.95,1.48-2.22,1.48-3.56,0-2.77-2.26-5.03-5.03-5.04-.24,0-.48.02-.71.05Z"/>
    <path id="Path_574" data-name="Path 574" class="cls-2" d="m169.02,140c0,3.42-2.77,6.18-6.19,6.18-3.42,0-6.18-2.77-6.18-6.19s2.77-6.18,6.19-6.18c0,0,0,0,0,0,3.41,0,6.18,2.77,6.18,6.19"/>
    <path class="cls-2" d="m163.87,147.26c-.34.05-.69.07-1.04.07-1.96,0-3.8-.76-5.19-2.15-1.38-1.39-2.15-3.23-2.15-5.19,0-4.04,3.29-7.33,7.33-7.33,4.05,0,7.33,3.29,7.33,7.33h0c0,1.96-.76,3.8-2.15,5.19-1.14,1.14-2.58,1.85-4.15,2.07Zm-1.74-12.25c-2.45.34-4.33,2.45-4.33,4.99,0,1.35.52,2.61,1.47,3.56.95.95,2.22,1.48,3.56,1.48,1.35,0,2.61-.52,3.56-1.47.95-.95,1.48-2.22,1.48-3.56,0-2.77-2.26-5.03-5.03-5.04-.24,0-.48.02-.71.05Z"/>
    <path id="Path_576" data-name="Path 576" class="cls-1" d="m197.06,45.93l-64.04,63.62v-51.25c0-6.83,5.54-12.37,12.37-12.37h51.67Z"/>
    <path id="Path_577" data-name="Path 577" class="cls-1" d="m227.5,46.05l-32.36,31.96.12-32.09,32.24.12Z"/>
    <path id="Path_578" data-name="Path 578" class="cls-1" d="m241.59,45.99l-16.05,16.07.06-16.13,15.99.06Z"/>
    <path id="Path_579" data-name="Path 579" class="cls-1" d="m259.26,77.27c1.27-.03,2.28-1.08,2.25-2.35-.03-1.27-1.08-2.28-2.35-2.25-1.25.03-2.24,1.04-2.25,2.29.01,1.29,1.06,2.32,2.35,2.31"/>
    <path id="Path_580" data-name="Path 580" class="cls-1" d="m241.97,72.61c-1.27.03-2.28,1.08-2.25,2.35.03,1.27,1.08,2.28,2.35,2.25,1.25-.03,2.25-1.04,2.25-2.29-.01-1.28-1.06-2.32-2.35-2.31"/>
    <path id="Path_581" data-name="Path 581" class="cls-1" d="m241.99,68.07c-3.77-.12-6.93,2.84-7.05,6.61-.12,3.77,2.84,6.93,6.61,7.05.13,0,.26,0,.38,0l17.51.07c3.77.1,6.92-2.87,7.02-6.64.1-3.77-2.87-6.92-6.64-7.02-.11,0-.22,0-.33,0l-17.51-.06Zm17.44,18.28l-17.51-.07c-6.29.13-11.49-4.87-11.61-11.16-.13-6.29,4.87-11.49,11.16-11.61.18,0,.36,0,.54,0l17.51.06c6.29-.14,11.5,4.85,11.64,11.14.14,6.29-4.85,11.5-11.14,11.64-.2,0-.39,0-.59,0"/>
    <path id="Path_582" data-name="Path 582" class="cls-1" d="m219.53,106.43c0,1.31-1.07,2.38-2.38,2.38-1.31,0-2.38-1.07-2.38-2.38,0-1.31,1.07-2.38,2.38-2.38h0c1.31,0,2.38,1.07,2.38,2.38"/>
    <path id="Path_583" data-name="Path 583" class="cls-1" d="m236.31,106.43c0,1.31-1.07,2.38-2.38,2.38-1.31,0-2.38-1.07-2.38-2.38,0-1.31,1.07-2.38,2.38-2.38h0c1.31,0,2.38,1.07,2.38,2.38"/>
    <path id="Path_584" data-name="Path 584" class="cls-1" d="m253.09,106.43c0,1.31-1.07,2.38-2.38,2.38-1.31,0-2.38-1.07-2.38-2.38,0-1.31,1.07-2.38,2.38-2.38,0,0,0,0,0,0,1.31,0,2.38,1.06,2.38,2.38h0"/>
    <path id="Path_585" data-name="Path 585" class="cls-1" d="m269.88,106.43c0,1.31-1.07,2.38-2.38,2.38-1.31,0-2.38-1.07-2.38-2.38,0-1.31,1.07-2.38,2.38-2.38,0,0,0,0,0,0,1.31,0,2.38,1.07,2.38,2.38"/>
    <path id="Path_586" data-name="Path 586" class="cls-1" d="m286.67,106.43c0,1.31-1.06,2.38-2.38,2.38-1.31,0-2.38-1.06-2.38-2.38,0-1.31,1.06-2.38,2.38-2.38,0,0,0,0,0,0,1.31,0,2.38,1.07,2.38,2.38"/>
    <path id="Path_587" data-name="Path 587" class="cls-1" d="m219.53,123.21c0,1.31-1.07,2.38-2.38,2.38s-2.38-1.07-2.38-2.38c0-1.31,1.07-2.38,2.38-2.38,0,0,0,0,0,0,1.31,0,2.38,1.06,2.38,2.38h0"/>
    <path id="Path_588" data-name="Path 588" class="cls-1" d="m236.31,123.21c0,1.31-1.07,2.38-2.38,2.38-1.31,0-2.38-1.07-2.38-2.38s1.07-2.38,2.38-2.38c0,0,0,0,0,0,1.31,0,2.38,1.06,2.38,2.38h0"/>
    <path id="Path_589" data-name="Path 589" class="cls-1" d="m253.1,123.21c0,1.31-1.07,2.38-2.38,2.38-1.31,0-2.38-1.07-2.38-2.38,0-1.31,1.07-2.38,2.38-2.38,0,0,0,0,0,0,1.31,0,2.38,1.07,2.38,2.38"/>
    <path id="Path_590" data-name="Path 590" class="cls-1" d="m269.88,123.21c0,1.31-1.07,2.38-2.38,2.38-1.31,0-2.38-1.07-2.38-2.38,0-1.31,1.07-2.38,2.38-2.38,0,0,0,0,0,0,1.31,0,2.38,1.07,2.38,2.38"/>
    <path id="Path_591" data-name="Path 591" class="cls-1" d="m286.67,123.21c0,1.31-1.07,2.38-2.38,2.38-1.31,0-2.38-1.07-2.38-2.38,0-1.31,1.07-2.38,2.38-2.38,0,0,0,0,0,0,1.31,0,2.38,1.06,2.38,2.38h0"/>
    <path id="Path_592" data-name="Path 592" class="cls-1" d="m219.53,140c0,1.31-1.07,2.38-2.38,2.38-1.31,0-2.38-1.07-2.38-2.38s1.07-2.38,2.38-2.38c0,0,0,0,0,0,1.31,0,2.38,1.07,2.38,2.38"/>
    <path id="Path_593" data-name="Path 593" class="cls-1" d="m236.31,140c0,1.31-1.07,2.38-2.38,2.38-1.31,0-2.38-1.07-2.38-2.38,0-1.31,1.07-2.38,2.38-2.38,0,0,0,0,0,0,1.31,0,2.38,1.07,2.38,2.38"/>
    <path id="Path_594" data-name="Path 594" class="cls-1" d="m253.1,140c0,1.31-1.07,2.38-2.38,2.38-1.31,0-2.38-1.07-2.38-2.38,0-1.31,1.07-2.38,2.38-2.38,0,0,0,0,0,0,1.31,0,2.38,1.07,2.38,2.38"/>
    <path id="Path_595" data-name="Path 595" class="cls-1" d="m269.88,140c0,1.31-1.07,2.38-2.38,2.38-1.31,0-2.38-1.07-2.38-2.38,0-1.31,1.07-2.38,2.38-2.38,0,0,0,0,0,0,1.31,0,2.38,1.07,2.38,2.38"/>
    <path id="Path_596" data-name="Path 596" class="cls-1" d="m286.67,140c0,1.31-1.07,2.38-2.38,2.38-1.31,0-2.38-1.07-2.38-2.38,0-1.31,1.07-2.38,2.38-2.38,0,0,0,0,0,0,1.31,0,2.38,1.07,2.38,2.38"/>
    <path id="Path_597" data-name="Path 597" class="cls-1" d="m219.53,156.78c0,1.31-1.06,2.38-2.38,2.38-1.31,0-2.38-1.06-2.38-2.38,0-1.31,1.06-2.38,2.38-2.38,0,0,0,0,0,0,1.31,0,2.38,1.07,2.38,2.38"/>
    <path id="Path_598" data-name="Path 598" class="cls-1" d="m236.31,156.78c0,1.31-1.07,2.38-2.38,2.38-1.31,0-2.38-1.07-2.38-2.38s1.07-2.38,2.38-2.38c0,0,0,0,0,0,1.31,0,2.38,1.07,2.38,2.38"/>
    <path id="Path_599" data-name="Path 599" class="cls-1" d="m253.1,156.78c0,1.31-1.07,2.38-2.38,2.38-1.31,0-2.38-1.07-2.38-2.38s1.07-2.38,2.38-2.38c0,0,0,0,0,0,1.31,0,2.38,1.07,2.38,2.38"/>
    <path id="Path_600" data-name="Path 600" class="cls-1" d="m269.88,156.78c0,1.31-1.07,2.38-2.38,2.38-1.31,0-2.38-1.07-2.38-2.38,0-1.31,1.07-2.38,2.38-2.38,0,0,0,0,0,0,1.31,0,2.38,1.07,2.38,2.38"/>
    <path id="Path_601" data-name="Path 601" class="cls-1" d="m286.67,156.78c0,1.31-1.07,2.38-2.38,2.38-1.31,0-2.38-1.07-2.38-2.38,0-1.31,1.07-2.38,2.38-2.38,0,0,0,0,0,0,1.31,0,2.38,1.07,2.38,2.38"/>
    <path id="Path_602" data-name="Path 602" class="cls-1" d="m219.53,173.57c0,1.31-1.07,2.38-2.38,2.38-1.31,0-2.38-1.07-2.38-2.38,0-1.31,1.07-2.38,2.38-2.38,0,0,0,0,0,0,1.31,0,2.38,1.06,2.38,2.38h0"/>
    <path id="Path_603" data-name="Path 603" class="cls-1" d="m236.31,173.57c0,1.31-1.07,2.38-2.38,2.38-1.31,0-2.38-1.07-2.38-2.38s1.07-2.38,2.38-2.38c0,0,0,0,0,0,1.31,0,2.38,1.07,2.38,2.38"/>
    <path id="Path_604" data-name="Path 604" class="cls-1" d="m253.1,173.57c0,1.31-1.06,2.38-2.38,2.38-1.31,0-2.38-1.06-2.38-2.38,0-1.31,1.06-2.38,2.38-2.38,0,0,0,0,0,0,1.31,0,2.38,1.07,2.38,2.38"/>
    <path id="Path_605" data-name="Path 605" class="cls-1" d="m269.88,173.57c0,1.31-1.07,2.38-2.38,2.38-1.31,0-2.38-1.07-2.38-2.38,0-1.31,1.07-2.38,2.38-2.38,0,0,0,0,0,0,1.31,0,2.38,1.07,2.38,2.38"/>
    <path id="Path_606" data-name="Path 606" class="cls-1" d="m286.67,173.57c0,1.31-1.07,2.38-2.38,2.38-1.31,0-2.38-1.07-2.38-2.38,0-1.31,1.07-2.38,2.38-2.38,0,0,0,0,0,0,1.31,0,2.38,1.07,2.38,2.38"/>
  </g>
  <path class="cls-1" d="m416.98,115.51c-1.47,0-2.74-.63-3.58-1.47l-19.57-18.94c-2.1-2.1-2.1-5.26,0-7.37,2.1-2.1,5.26-2.1,7.37,0l15.58,15.37,31.36-32.2c2.1-2.1,5.26-2.1,7.37,0,2.1,2.1,2.1,5.26,0,7.37l-34.73,35.78c-1.05.84-2.31,1.47-3.79,1.47"/>
  <path class="cls-1" d="m42.03,81.82h0c-3.15,0-5.92,2.59-5.92,5.74v.18c0,3.15,2.59,5.74,5.74,5.74h.18c1.48,0,2.96-.56,4.08-1.67,2.22-2.41,2.22-6.11-.19-8.33-.92-1.11-2.41-1.67-3.89-1.67m1.67-35.55c-8.33,0-14.07,6.29-14.26,15.55v1.3h10.18v-1.11c0-3.52,1.67-5.37,4.63-5.37,2.22-.18,4.08,1.48,4.26,3.52v.37c0,1.48-.55,2.78-1.67,3.7-.93.74-2.04,1.48-3.15,2.22-.74.56-1.67,1.11-2.22,1.67-2.96,2.22-4.81,5.92-4.81,9.63v2.22h10.18v-1.85c0-1.48.92-2.04,2.96-3.52l1.11-.74c4.81-3.33,7.78-6.67,7.78-12.78.37-7.96-5.92-14.63-13.89-15h-.74l-.37.19Z"/>
  <g>
    <path class="cls-1" d="m436.79,201.3c-1.23,0-2.67-.41-3.69-1.44l-34.84-34.84c-2.05-2.05-2.05-5.33,0-7.17,2.05-2.05,5.33-2.05,7.17,0l34.84,34.84c2.05,2.05,2.05,5.33,0,7.17-.82.82-2.25,1.44-3.48,1.44"/>
    <path class="cls-1" d="m401.95,201.3c-1.23,0-2.67-.41-3.69-1.44-2.05-2.05-2.05-5.33,0-7.17l34.84-34.84c2.05-2.05,5.33-2.05,7.17,0,2.05,2.05,2.05,5.33,0,7.17l-34.84,34.84c-1.02.82-2.25,1.44-3.48,1.44"/>
  </g>
  <path class="cls-1" d="m82.04,96.43c7.66,0,14.05,6.23,14.05,14.05l.48,59.06c0,1.6.64,3.19,1.92,4.31,1.12,1.12,2.71,1.76,4.31,1.76,3.35,0,6.07-2.71,6.07-6.07l-.16-18.84c0-7.82,6.23-14.05,13.89-14.21h5.11c2.24,0,3.99,1.76,3.99,3.99s-1.76,3.99-3.99,3.99h-5.11c-3.35,0-6.06,2.71-6.06,6.07l.16,18.84c0,7.82-6.23,14.05-14.05,14.21-3.67,0-7.34-1.44-9.9-3.99-2.71-2.56-4.15-6.07-4.31-9.9l-.48-59.07c0-3.35-2.71-6.06-6.07-6.06s-6.07,2.71-6.07,6.06l.8,79.02c0,7.82-6.23,14.05-14.05,14.21-7.82,0-14.05-6.23-14.21-14.05l-.48-59.06c0-3.35-2.71-6.07-6.07-6.07s-5.91,2.71-5.91,6.07v18.84c0,7.66-6.22,14.05-13.89,14.21h-5.11c-2.24,0-3.99-1.76-3.99-3.99s1.76-3.99,3.99-3.99h5.11c3.35,0,6.07-2.71,6.07-6.06v-18.68c0-7.66,6.22-14.05,13.89-14.05h.16c7.82,0,14.05,6.23,14.05,14.05l.48,59.06c0,3.35,2.71,6.07,6.07,6.07s6.07-2.71,6.07-6.07l-.48-79.18c-.32-8.14,5.91-14.53,13.73-14.53"/>
</svg>