<?xml version="1.0" encoding="UTF-8"?>
<svg id="Layer_1" data-name="Layer 1" xmlns="http://www.w3.org/2000/svg" viewBox="0 0 470 280">
  <defs>
    <style>
      .cls-1 {
        fill: #007dbc;
        stroke-width: 0px;
      }
    </style>
  </defs>
  <path class="cls-1" d="m55.47,182.68c-7.66,0-14.05-6.23-14.05-14.05l-.48-59.06c0-1.6-.64-3.19-1.92-4.31-1.12-1.12-2.71-1.76-4.31-1.76-3.35,0-6.07,2.71-6.07,6.07l.16,18.84c0,7.82-6.23,14.05-13.89,14.21h-5.11c-2.24,0-3.99-1.76-3.99-3.99s1.76-3.99,3.99-3.99h5.11c3.35,0,6.06-2.71,6.06-6.07l-.16-18.84c0-7.82,6.23-14.05,14.05-14.21,3.67,0,7.34,1.44,9.9,3.99,2.71,2.56,4.15,6.07,4.31,9.9l.48,59.07c0,3.35,2.71,6.06,6.07,6.06s6.07-2.71,6.07-6.06l-.8-79.02c0-7.82,6.23-14.05,14.05-14.21,7.82,0,14.05,6.23,14.21,14.05l.48,59.06c0,3.35,2.71,6.07,6.07,6.07s5.91-2.71,5.91-6.07v-18.84c0-7.66,6.22-14.05,13.89-14.21h5.11c2.24,0,3.99,1.76,3.99,3.99s-1.76,3.99-3.99,3.99h-5.11c-3.35,0-6.07,2.71-6.07,6.06v18.68c0,7.66-6.22,14.05-13.89,14.05h-.16c-7.82,0-14.05-6.23-14.05-14.05l-.48-59.06c0-3.35-2.71-6.07-6.07-6.07s-6.07,2.71-6.07,6.07l.48,79.18c.32,8.14-5.91,14.53-13.73,14.53"/>
  <path class="cls-1" d="m414.53,71.24c7.66,0,14.05,6.23,14.05,14.05l.48,59.06c0,1.6.64,3.19,1.92,4.31,1.12,1.12,2.71,1.76,4.31,1.76,3.35,0,6.07-2.71,6.07-6.07l-.16-18.84c0-7.82,6.23-14.05,13.89-14.21h5.11c2.24,0,3.99,1.76,3.99,3.99s-1.76,3.99-3.99,3.99h-5.11c-3.35,0-6.06,2.71-6.06,6.07l.16,18.84c0,7.82-6.23,14.05-14.05,14.21-3.67,0-7.34-1.44-9.9-3.99-2.71-2.56-4.15-6.07-4.31-9.9l-.48-59.07c0-3.35-2.71-6.06-6.07-6.06s-6.07,2.71-6.07,6.06l.8,79.02c0,7.82-6.23,14.05-14.05,14.21-7.82,0-14.05-6.23-14.21-14.05l-.48-59.06c0-3.35-2.71-6.07-6.07-6.07s-5.91,2.71-5.91,6.07v18.84c0,7.66-6.22,14.05-13.89,14.21h-5.11c-2.24,0-3.99-1.76-3.99-3.99s1.76-3.99,3.99-3.99h5.11c3.35,0,6.07-2.71,6.07-6.06v-18.68c0-7.66,6.22-14.05,13.89-14.05h.16c7.82,0,14.05,6.23,14.05,14.05l.48,59.06c0,3.35,2.71,6.07,6.07,6.07s6.07-2.71,6.07-6.07l-.48-79.18c-.32-8.14,5.91-14.53,13.73-14.53"/>
  <path class="cls-1" d="m328.79,40.76h-186.84c-11.27,0-20.43,9.17-20.43,20.43v139.21h-20.28c-6.13,0-11.31,5.26-11.31,11.48,0,15.09,12.2,27.36,27.19,27.36h236.51c14.98-.17,27.18-12.44,27.18-27.36,0-3.07-1.19-5.96-3.35-8.14-2.34-2.16-5.22-3.34-8.13-3.34h-20.11V61.19c0-11.27-9.17-20.43-20.43-20.43Zm-200.2,20.43c0-7.24,6.12-13.35,13.35-13.35h186.84c7.24,0,13.35,6.12,13.35,13.35v139.21h-213.55V61.19Zm240.8,146.12l.17.03c1.1.2,1.96.57,2.49.84l.26.13.21.21c.77.77,1.21,1.93,1.21,3.19,0,11.18-9.02,20.28-20.11,20.28H117.12c-11.09,0-20.11-9.1-20.11-20.28,0-2.38,2.02-4.4,4.4-4.4h267.99Z"/>
  <g>
    <path class="cls-1" d="m256.47,138.46h-43.54c-8.58-.15-15.49-7.14-15.49-15.75s7.05-15.75,15.75-15.75h43.27c8.7,0,15.75,7.05,15.75,15.75s-7.05,15.75-15.75,15.75m.22-43.21h0s-43.73,0-43.73,0h0c-15.57.13-27.28,11.91-27.28,27.52s11.51,27.08,26.88,27.4h0s43.91.01,43.91.01c15.69,0,27.52-11.78,27.52-27.41s-11.72-27.4-27.3-27.51"/>
    <path class="cls-1" d="m234.49,166.37c-3.24,0-5.92-2.36-6.45-5.44h-4.94c.52,5.95,5.24,10.31,11.39,10.31s10.87-4.36,11.38-10.31h-4.94c-.53,3.08-3.21,5.44-6.44,5.44"/>
    <path class="cls-1" d="m215,128.05h0l10.53-10.44c1.02-1.02,1.02-2.67,0-3.68-1.02-1.02-2.67-1.02-3.68,0-.02.02-.03.03-.04.05l-10.44,10.35s-.03.02-.05.04c-1.02,1.02-1.02,2.67,0,3.68,1.02,1.02,2.67,1.02,3.68,0"/>
    <path class="cls-1" d="m214.89,124.31h0l-4.77-4.21c-1.08-.95-2.73-.85-3.68.23-.95,1.08-.85,2.73.23,3.68.02.01.04.02.05.04l4.68,4.12s.03.03.04.04c1.08.95,2.73.85,3.68-.23.95-1.08.85-2.73-.23-3.68"/>
    <path class="cls-1" d="m253.51,128.05h0l10.53-10.44c1.02-1.02,1.02-2.67,0-3.68-1.02-1.02-2.67-1.02-3.68,0-.01.02-.03.03-.04.05l-10.44,10.35s-.03.02-.05.04c-1.02,1.02-1.02,2.67,0,3.68,1.02,1.02,2.67,1.02,3.68,0"/>
    <path class="cls-1" d="m253.41,124.31h0l-4.77-4.21c-1.08-.95-2.73-.85-3.68.23-.95,1.08-.85,2.73.23,3.68.02.01.03.02.05.04l4.68,4.12s.03.03.04.04c1.08.95,2.73.85,3.68-.23.95-1.08.85-2.73-.23-3.68"/>
  </g>
</svg>