{
  "accessors": [
    {
      "bufferView": 1,
      "componentType": 5126,
      "count": 45508,
      "max": [2.160778522491455, -0.026219289749860764, 2.158750057220459],
      "min": [-2.9392216205596924, -0.8878952264785767, -2.158750057220459],
      "type": "VEC3"
    },
    {
      "bufferView": 1,
      "byteOffset": 546096,
      "componentType": 5126,
      "count": 45508,
      "max": [1.0, 1.0, 1.0],
      "min": [-1.0, -1.0, -1.0],
      "type": "VEC3"
    },
    {
      "bufferView": 2,
      "componentType": 5126,
      "count": 45508,
      "max": [0.9354838728904724, 0.9354838728904724, 1.0, 1.0],
      "min": [0.0, 0.0, 0.0, 1.0],
      "type": "VEC4"
    },
    {
      "bufferView": 0,
      "componentType": 5125,
      "count": 147282,
      "type": "SCALAR"
    }
  ],
  "asset": {
    "extras": {
      "author": "jezd (https://sketchfab.com/jezd)",
      "license": "CC-BY-4.0 (http://creativecommons.org/licenses/by/4.0/)",
      "source": "https://sketchfab.com/3d-models/microbit-assemby-f0c6ec58eefc47afaab08d8de07e1158",
      "title": "Microbit Assemby"
    },
    "generator": "Sketchfab-12.68.0",
    "version": "2.0"
  },
  "bufferViews": [
    {
      "buffer": 0,
      "byteLength": 589128,
      "name": "floatBufferViews",
      "target": 34963
    },
    {
      "buffer": 0,
      "byteLength": 1092192,
      "byteOffset": 589128,
      "byteStride": 12,
      "name": "floatBufferViews",
      "target": 34962
    },
    {
      "buffer": 0,
      "byteLength": 728128,
      "byteOffset": 1681320,
      "byteStride": 16,
      "name": "floatBufferViews",
      "target": 34962
    }
  ],
  "buffers": [
    {
      "byteLength": 2409448,
      "uri": "microbit.bin"
    }
  ],
  "materials": [
    {
      "doubleSided": true,
      "name": "Scene_-_Root",
      "pbrMetallicRoughness": {
        "baseColorFactor": [0.5, 0.5, 0.5, 1.0],
        "metallicFactor": 0.0,
        "roughnessFactor": 0.6
      }
    }
  ],
  "meshes": [
    {
      "name": "Object_0",
      "primitives": [
        {
          "attributes": {
            "COLOR_0": 2,
            "NORMAL": 1,
            "POSITION": 0
          },
          "indices": 3,
          "material": 0,
          "mode": 4
        }
      ]
    }
  ],
  "nodes": [
    {
      "children": [1],
      "matrix": [
        0.5346093107466956, 0.032277692794475926, -0.11701840776204618, 0.0,
        -0.11969750498639442, 0.22807762221336791, -0.4839373542253646, 0.0,
        0.020190712799171395, 0.4974746554924749, 0.22946370187784748, 0.0,
        -0.10945520550012589, 0.21306870877742767, -0.029492583125829648, 1.0
      ],
      "name": "Sketchfab_model"
    },
    {
      "children": [2],
      "name": "microbit assemby.stl.cleaner.gles"
    },
    {
      "mesh": 0,
      "name": "Object_2"
    }
  ],
  "scene": 0,
  "scenes": [
    {
      "name": "Sketchfab_Scene",
      "nodes": [0]
    }
  ]
}
