<?xml version="1.0" encoding="UTF-8" standalone="no"?>
<svg
   id="Layer_1"
   data-name="Layer 1"
   viewBox="0 0 470 280"
   version="1.1"
   sodipodi:docname="add_data_w_line.svg"
   inkscape:version="1.3 (0e150ed6c4, 2023-07-21)"
   xmlns:inkscape="http://www.inkscape.org/namespaces/inkscape"
   xmlns:sodipodi="http://sodipodi.sourceforge.net/DTD/sodipodi-0.dtd"
   xmlns="http://www.w3.org/2000/svg"
   xmlns:svg="http://www.w3.org/2000/svg">
  <sodipodi:namedview
     id="namedview40"
     pagecolor="#ffffff"
     bordercolor="#000000"
     borderopacity="0.25"
     inkscape:showpageshadow="2"
     inkscape:pageopacity="0.0"
     inkscape:pagecheckerboard="0"
     inkscape:deskcolor="#d1d1d1"
     inkscape:zoom="0.95648819"
     inkscape:cx="-42.86514"
     inkscape:cy="164.66487"
     inkscape:window-width="1443"
     inkscape:window-height="985"
     inkscape:window-x="1968"
     inkscape:window-y="338"
     inkscape:window-maximized="0"
     inkscape:current-layer="Layer_1" />
  <defs
     id="defs1">
    <style
       id="style1">&#10;      .cls-1 {&#10;        opacity: .2;&#10;      }&#10;&#10;      .cls-2 {&#10;        opacity: .3;&#10;      }&#10;&#10;      .cls-3 {&#10;        fill: #007dbc;&#10;      }&#10;&#10;      .cls-3, .cls-4 {&#10;        stroke-width: 0px;&#10;      }&#10;&#10;      .cls-4 {&#10;        fill: #f5f5f5;&#10;      }&#10;    </style>
  </defs>
  <g
     id="Group_112"
     data-name="Group 112">
    <g
       id="g40">
      <g
         class="cls-1"
         id="g10">
        <path
           id="Path_561"
           data-name="Path 561"
           class="cls-4"
           d="m296.37,9.6L113.2,48.53c-7.9,1.68-12.94,9.44-11.26,17.34,0,0,0,0,0,0l29.93,140.81c1.68,7.9,9.44,12.94,17.34,11.26l6.23-1.33c1.69-4.47,6.68-6.72,11.15-5.03,1.16.44,2.21,1.12,3.08,2l24.88-5.29c1.69-4.47,6.68-6.72,11.15-5.02,1.16.44,2.21,1.12,3.08,2l24.88-5.29c1.69-4.47,6.68-6.72,11.15-5.03,1.16.44,2.21,1.12,3.08,2l24.88-5.29c1.69-4.47,6.68-6.72,11.15-5.03,1.16.44,2.21,1.12,3.08,2l24.89-5.29c1.69-4.47,6.68-6.72,11.15-5.03,1.16.44,2.21,1.12,3.08,2l6.23-1.33c7.9-1.68,12.94-9.44,11.26-17.33l-29.93-140.82c-1.68-7.89-9.44-12.94-17.33-11.26,0,0,0,0,0,0" />
        <path
           class="cls-3"
           d="m146.17,221.26c-8.14,0-15.47-5.68-17.23-13.95l-29.93-140.82c-2.02-9.5,4.07-18.88,13.57-20.9L295.74,6.66s.02,0,.02,0c9.49-2.01,18.85,4.08,20.87,13.58l29.93,140.82c2.02,9.5-4.07,18.87-13.57,20.89l-6.23,1.33c-1,.21-2.04-.1-2.76-.82-.57-.58-1.25-1.02-2.01-1.31-2.91-1.1-6.18.37-7.28,3.28-.36.95-1.18,1.66-2.18,1.87l-24.89,5.29c-1,.21-2.04-.1-2.75-.82-.57-.58-1.25-1.02-2.01-1.31-2.91-1.1-6.18.37-7.28,3.28-.36.95-1.18,1.66-2.18,1.87l-24.88,5.29c-1,.21-2.04-.1-2.76-.82-.56-.57-1.26-1.02-2.01-1.31-2.91-1.1-6.18.37-7.28,3.28-.36.95-1.18,1.66-2.18,1.87l-24.88,5.29c-1,.21-2.04-.1-2.76-.82-.57-.58-1.25-1.02-2.01-1.31-1.41-.53-2.94-.49-4.32.13-1.38.62-2.43,1.74-2.96,3.15-.36.95-1.18,1.66-2.18,1.87l-24.88,5.29c-1,.21-2.04-.1-2.75-.82-.57-.58-1.25-1.02-2.01-1.31-1.41-.53-2.95-.49-4.32.13-1.38.62-2.43,1.74-2.96,3.15-.36.95-1.18,1.66-2.18,1.87l-6.23,1.33c-1.23.26-2.46.39-3.67.39ZM296.37,9.6l.62,2.93L113.82,51.46c-3.03.65-5.64,2.43-7.33,5.04-1.69,2.6-2.26,5.71-1.62,8.74l29.93,140.82c1.33,6.26,7.52,10.28,13.78,8.95l4.78-1.02c1.21-2.17,3.07-3.89,5.38-4.93,2.84-1.28,6-1.38,8.91-.27,1.03.39,1.98.91,2.85,1.56l21.97-4.67c1.21-2.17,3.08-3.89,5.38-4.93,2.84-1.28,6-1.37,8.91-.27,1.03.39,1.99.91,2.85,1.57l21.97-4.67c2.76-4.95,8.83-7.28,14.29-5.21,1.03.39,1.99.91,2.85,1.56l21.97-4.67c2.77-4.95,8.83-7.27,14.29-5.21,1.03.39,1.99.91,2.85,1.56l21.98-4.67c2.77-4.95,8.83-7.27,14.29-5.21,1.03.39,1.98.91,2.85,1.56l4.78-1.02c6.27-1.33,10.28-7.51,8.95-13.78l-29.93-140.82c-1.33-6.26-7.51-10.28-13.77-8.95l-.63-2.93Zm0,0h0,0Z"
           id="path1" />
        <path
           class="cls-3"
           d="m313.31,164.97c-1.9,0-3.75-.55-5.38-1.6-2.22-1.44-3.75-3.66-4.3-6.25-1.14-5.35,2.29-10.62,7.63-11.76,5.35-1.14,10.62,2.29,11.76,7.64h0c1.14,5.35-2.29,10.62-7.64,11.76-.69.15-1.39.22-2.08.22Zm.02-17.32c-.51,0-1.02.05-1.54.16-3.99.85-6.55,4.79-5.7,8.78.41,1.93,1.55,3.59,3.21,4.67,1.66,1.08,3.64,1.44,5.57,1.03,3.99-.85,6.55-4.79,5.7-8.78h0c-.74-3.48-3.82-5.87-7.24-5.87Z"
           id="path2" />
        <path
           class="cls-3"
           d="m274.19,173.28c-1.9,0-3.75-.55-5.38-1.6-2.22-1.44-3.75-3.66-4.3-6.25-1.14-5.35,2.29-10.62,7.63-11.76,5.35-1.14,10.62,2.29,11.76,7.64h0c1.14,5.35-2.29,10.62-7.64,11.76-.69.15-1.39.22-2.08.22Zm.02-17.32c-.51,0-1.02.05-1.54.16-3.99.85-6.55,4.79-5.7,8.78.41,1.93,1.55,3.59,3.21,4.67,1.66,1.08,3.64,1.44,5.57,1.03,3.99-.85,6.55-4.79,5.7-8.78h0c-.74-3.48-3.82-5.87-7.24-5.87Z"
           id="path3" />
        <path
           class="cls-3"
           d="m235.09,181.59c-4.58,0-8.71-3.2-9.7-7.85-1.14-5.35,2.29-10.62,7.64-11.76,5.35-1.14,10.62,2.29,11.76,7.63h0c1.14,5.35-2.29,10.62-7.64,11.76-.69.15-1.38.22-2.06.22Zm0-17.32c-.51,0-1.02.05-1.54.16-3.99.85-6.55,4.79-5.7,8.78.85,3.99,4.78,6.55,8.78,5.7,3.99-.85,6.55-4.79,5.7-8.78-.74-3.48-3.82-5.87-7.24-5.87Z"
           id="path4" />
        <path
           class="cls-3"
           d="m195.96,189.91c-1.9,0-3.75-.55-5.38-1.6-2.22-1.44-3.75-3.66-4.3-6.25-1.14-5.35,2.29-10.62,7.63-11.76,2.59-.55,5.24-.06,7.46,1.38,2.22,1.44,3.75,3.66,4.3,6.25h0c1.14,5.35-2.29,10.62-7.64,11.76-.69.15-1.39.22-2.08.22Zm.04-17.33c-.52,0-1.04.05-1.56.16-3.99.85-6.55,4.79-5.7,8.78.41,1.93,1.55,3.59,3.21,4.67,1.66,1.08,3.64,1.44,5.57,1.03,3.99-.85,6.55-4.79,5.7-8.78h0c-.41-1.94-1.55-3.59-3.21-4.67-1.22-.79-2.6-1.2-4.02-1.2Z"
           id="path5" />
        <path
           class="cls-3"
           d="m156.86,198.22c-4.58,0-8.71-3.2-9.7-7.85-1.14-5.35,2.29-10.62,7.63-11.76,2.59-.55,5.24-.06,7.46,1.38,2.22,1.44,3.75,3.66,4.3,6.25,0,0,0,0,0,0,1.14,5.35-2.29,10.62-7.64,11.76-.69.15-1.38.22-2.06.22Zm.02-17.32c-.52,0-1.04.05-1.56.16-3.99.85-6.55,4.79-5.7,8.78.85,3.99,4.79,6.55,8.78,5.7,3.99-.85,6.55-4.79,5.7-8.78-.41-1.94-1.55-3.59-3.21-4.67-1.22-.79-2.6-1.2-4.02-1.2Z"
           id="path6" />
        <path
           id="Path_568"
           data-name="Path 568"
           class="cls-3"
           d="m313.89,107.68l-20.33,4.32c-1.4.29-2.78-.6-3.08-2l-4.32-20.33c-.29-1.4.6-2.78,2-3.08l20.33-4.32c1.4-.29,2.78.6,3.08,2l4.32,20.33c.29,1.4-.6,2.78-2,3.08" />
        <path
           class="cls-3"
           d="m293.03,112.69c-1.49,0-2.84-1.04-3.16-2.55l-4.32-20.33c-.36-1.73.75-3.45,2.48-3.82l20.33-4.32c1.74-.36,3.45.75,3.82,2.48l4.32,20.33c.36,1.74-.75,3.45-2.49,3.83,0,0,0,0,0,0l-20.33,4.32c-.22.05-.44.07-.66.07Zm15.99-29.84c-.13,0-.27.01-.4.04l-20.33,4.32c-1.06.23-1.74,1.28-1.52,2.34l4.32,20.33c.23,1.06,1.28,1.74,2.34,1.52l20.33-4.32c1.06-.23,1.74-1.28,1.52-2.34l-4.32-20.33c-.2-.92-1.02-1.56-1.93-1.56Zm4.86,24.84h0,0Z"
           id="path7" />
        <path
           id="Path_570"
           data-name="Path 570"
           class="cls-3"
           d="m157.42,140.94l-20.33,4.32c-1.4.29-2.78-.6-3.08-2l-4.32-20.32c-.29-1.4.6-2.78,2-3.08l20.33-4.32c1.4-.29,2.78.6,3.08,2l4.32,20.32c.29,1.4-.6,2.78-2,3.08" />
        <path
           class="cls-3"
           d="m136.56,145.94c-1.49,0-2.84-1.04-3.16-2.55l-4.32-20.32c-.36-1.74.75-3.45,2.48-3.82l20.33-4.32c1.73-.36,3.45.75,3.82,2.48l4.32,20.32c.36,1.74-.75,3.45-2.48,3.83,0,0,0,0,0,0l-20.33,4.32c-.22.05-.44.07-.66.07Zm15.99-29.83c-.13,0-.27.01-.4.04l-20.33,4.32c-1.06.23-1.74,1.28-1.52,2.34l4.32,20.32c.23,1.06,1.28,1.74,2.34,1.52l20.33-4.32c1.06-.23,1.74-1.28,1.52-2.34l-4.32-20.32c-.2-.92-1.02-1.56-1.93-1.56Zm4.87,24.83h0,0Z"
           id="path8" />
        <path
           id="Path_572"
           data-name="Path 572"
           class="cls-4"
           d="m306.53,95.97c.65,3.04-1.3,6.03-4.34,6.67-3.04.65-6.03-1.3-6.67-4.34-.65-3.04,1.3-6.03,4.34-6.67,0,0,0,0,0,0,3.04-.64,6.03,1.3,6.67,4.34" />
        <path
           class="cls-4"
           d="m301.01,103.81c-1.28,0-2.53-.37-3.62-1.08-1.49-.97-2.52-2.47-2.89-4.21-.76-3.6,1.54-7.15,5.14-7.91,3.6-.76,7.15,1.55,7.91,5.14h0c.76,3.6-1.54,7.15-5.14,7.91-.47.1-.93.15-1.4.15Zm.01-11.26c-.31,0-.63.03-.95.1-2.47.52-4.06,2.96-3.53,5.43.25,1.2.96,2.22,1.99,2.89,1.03.67,2.25.89,3.45.64,2.47-.52,4.06-2.96,3.53-5.43h0c-.46-2.15-2.37-3.63-4.48-3.63Z"
           id="path9" />
        <path
           id="Path_574"
           data-name="Path 574"
           class="cls-4"
           d="m150.06,129.22c.65,3.04-1.3,6.03-4.34,6.67-3.04.65-6.03-1.3-6.67-4.34s1.3-6.03,4.34-6.67c0,0,0,0,0,0,3.04-.64,6.02,1.3,6.67,4.34" />
        <path
           class="cls-4"
           d="m144.55,137.07c-3.08,0-5.86-2.15-6.53-5.29-.76-3.6,1.54-7.15,5.14-7.91,3.6-.76,7.15,1.55,7.91,5.14h0c.76,3.6-1.54,7.15-5.14,7.91-.47.1-.93.15-1.39.15Zm0-11.26c-.31,0-.63.03-.95.1-2.47.53-4.06,2.96-3.53,5.44.53,2.47,2.96,4.06,5.44,3.53,2.47-.52,4.06-2.96,3.53-5.43-.46-2.15-2.37-3.63-4.48-3.63Z"
           id="path10" />
        <path
           id="Path_576"
           data-name="Path 576"
           class="cls-3"
           d="m157.23,40.19l-44.96,68.74-9.7-45.62c-1.29-6.08,2.59-12.05,8.67-13.35l45.99-9.77Z" />
        <path
           id="Path_577"
           data-name="Path 577"
           class="cls-3"
           d="m184.34,34.54l-22.76,34.58-5.96-28.58,28.72-5.99Z" />
        <path
           id="Path_578"
           data-name="Path 578"
           class="cls-3"
           d="m196.88,31.82l-11.25,17.34-3-14.37,14.25-2.97Z" />
        <path
           id="Path_579"
           data-name="Path 579"
           class="cls-3"
           d="m218.52,56.31c1.12-.26,1.82-1.39,1.56-2.51-.26-1.12-1.39-1.82-2.51-1.56-1.1.26-1.8,1.35-1.57,2.46.25,1.14,1.38,1.86,2.53,1.61" />
        <path
           id="Path_580"
           data-name="Path 580"
           class="cls-3"
           d="m202.25,55.43c-1.12.26-1.82,1.39-1.56,2.51.26,1.12,1.39,1.82,2.51,1.56,1.1-.26,1.8-1.35,1.57-2.46-.25-1.14-1.38-1.86-2.53-1.61" />
        <path
           id="Path_581"
           data-name="Path 581"
           class="cls-3"
           d="m201.41,51.4c-3.38.61-5.63,3.84-5.02,7.22.61,3.38,3.84,5.63,7.22,5.02.11-.02.23-.04.34-.07l15.6-3.25c3.38-.62,5.61-3.86,4.99-7.24-.62-3.38-3.86-5.61-7.24-4.99-.1.02-.19.04-.29.06l-15.6,3.25Zm18.98,12.97l-15.6,3.25c-5.57,1.3-11.15-2.16-12.45-7.74-1.3-5.57,2.16-11.15,7.74-12.45.16-.04.32-.07.48-.1l15.6-3.25c5.57-1.31,11.15,2.14,12.47,7.71,1.31,5.57-2.14,11.15-7.71,12.47-.17.04-.35.08-.52.11" />
        <path
           id="Path_582"
           data-name="Path 582"
           class="cls-3"
           d="m188.67,89.79c.25,1.17-.5,2.32-1.67,2.57-1.17.25-2.32-.5-2.57-1.67-.25-1.17.5-2.32,1.67-2.57h0c1.17-.25,2.32.5,2.57,1.67" />
        <path
           id="Path_583"
           data-name="Path 583"
           class="cls-3"
           d="m203.61,86.61c.25,1.17-.5,2.32-1.67,2.57-1.17.25-2.32-.5-2.57-1.67-.25-1.17.5-2.32,1.67-2.57h0c1.17-.25,2.32.5,2.57,1.67" />
        <path
           id="Path_584"
           data-name="Path 584"
           class="cls-3"
           d="m218.55,83.44c.25,1.17-.5,2.32-1.67,2.57-1.17.25-2.32-.5-2.57-1.67-.25-1.17.5-2.32,1.67-2.57,0,0,0,0,0,0,1.17-.25,2.32.5,2.57,1.67h0" />
        <path
           id="Path_585"
           data-name="Path 585"
           class="cls-3"
           d="m233.49,80.26c.25,1.17-.5,2.32-1.67,2.57-1.17.25-2.32-.5-2.57-1.67-.25-1.17.5-2.32,1.67-2.57,0,0,0,0,0,0,1.17-.25,2.32.5,2.57,1.67" />
        <path
           id="Path_586"
           data-name="Path 586"
           class="cls-3"
           d="m248.44,77.08c.25,1.17-.5,2.32-1.67,2.57-1.17.25-2.32-.5-2.57-1.67-.25-1.17.5-2.32,1.67-2.57,0,0,0,0,0,0,1.17-.25,2.32.5,2.57,1.67" />
        <path
           id="Path_587"
           data-name="Path 587"
           class="cls-3"
           d="m191.85,104.73c.25,1.17-.5,2.32-1.67,2.57s-2.32-.5-2.57-1.67c-.25-1.17.5-2.32,1.67-2.57,0,0,0,0,0,0,1.17-.25,2.32.5,2.57,1.67h0" />
        <path
           id="Path_588"
           data-name="Path 588"
           class="cls-3"
           d="m206.79,101.55c.25,1.17-.5,2.32-1.67,2.57-1.17.25-2.32-.5-2.57-1.67s.5-2.32,1.67-2.57c0,0,0,0,0,0,1.17-.25,2.32.5,2.57,1.67h0" />
        <path
           id="Path_589"
           data-name="Path 589"
           class="cls-3"
           d="m221.73,98.38c.25,1.17-.5,2.32-1.67,2.57-1.17.25-2.32-.5-2.57-1.67-.25-1.17.5-2.32,1.67-2.57,0,0,0,0,0,0,1.17-.25,2.32.5,2.57,1.67" />
        <path
           id="Path_590"
           data-name="Path 590"
           class="cls-3"
           d="m236.67,95.2c.25,1.17-.5,2.32-1.67,2.57-1.17.25-2.32-.5-2.57-1.67-.25-1.17.5-2.32,1.67-2.57,0,0,0,0,0,0,1.17-.25,2.32.5,2.57,1.67" />
        <path
           id="Path_591"
           data-name="Path 591"
           class="cls-3"
           d="m251.61,92.03c.25,1.17-.5,2.32-1.67,2.57-1.17.25-2.32-.5-2.57-1.67-.25-1.17.5-2.32,1.67-2.57,0,0,0,0,0,0,1.17-.25,2.32.5,2.57,1.67h0" />
        <path
           id="Path_592"
           data-name="Path 592"
           class="cls-3"
           d="m195.02,119.67c.25,1.17-.5,2.32-1.67,2.57-1.17.25-2.32-.5-2.57-1.67s.5-2.32,1.67-2.57c0,0,0,0,0,0,1.17-.25,2.32.5,2.57,1.67" />
        <path
           id="Path_593"
           data-name="Path 593"
           class="cls-3"
           d="m209.96,116.5c.25,1.17-.5,2.32-1.67,2.57-1.17.25-2.32-.5-2.57-1.67-.25-1.17.5-2.32,1.67-2.57,0,0,0,0,0,0,1.17-.25,2.32.5,2.57,1.67" />
        <path
           id="Path_594"
           data-name="Path 594"
           class="cls-3"
           d="m224.9,113.32c.25,1.17-.5,2.32-1.67,2.57-1.17.25-2.32-.5-2.57-1.67-.25-1.17.5-2.32,1.67-2.57,0,0,0,0,0,0,1.17-.25,2.32.5,2.57,1.67" />
        <path
           id="Path_595"
           data-name="Path 595"
           class="cls-3"
           d="m239.85,110.14c.25,1.17-.5,2.32-1.67,2.57-1.17.25-2.32-.5-2.57-1.67-.25-1.17.5-2.32,1.67-2.57,0,0,0,0,0,0,1.17-.25,2.32.5,2.57,1.67" />
        <path
           id="Path_596"
           data-name="Path 596"
           class="cls-3"
           d="m254.79,106.97c.25,1.17-.5,2.32-1.67,2.57-1.17.25-2.32-.5-2.57-1.67-.25-1.17.5-2.32,1.67-2.57,0,0,0,0,0,0,1.17-.25,2.32.5,2.57,1.67" />
        <path
           id="Path_597"
           data-name="Path 597"
           class="cls-3"
           d="m198.2,134.61c.25,1.17-.5,2.32-1.67,2.57-1.17.25-2.32-.5-2.57-1.67-.25-1.17.5-2.32,1.67-2.57,0,0,0,0,0,0,1.17-.25,2.32.5,2.57,1.67" />
        <path
           id="Path_598"
           data-name="Path 598"
           class="cls-3"
           d="m213.14,131.43c.25,1.17-.5,2.32-1.67,2.57-1.17.25-2.32-.5-2.57-1.67s.5-2.32,1.67-2.57c0,0,0,0,0,0,1.17-.25,2.32.5,2.57,1.67" />
        <path
           id="Path_599"
           data-name="Path 599"
           class="cls-3"
           d="m228.08,128.26c.25,1.17-.5,2.32-1.67,2.57-1.17.25-2.32-.5-2.57-1.67s.5-2.32,1.67-2.57c0,0,0,0,0,0,1.17-.25,2.32.5,2.57,1.67" />
        <path
           id="Path_600"
           data-name="Path 600"
           class="cls-3"
           d="m243.02,125.08c.25,1.17-.5,2.32-1.67,2.57-1.17.25-2.32-.5-2.57-1.67-.25-1.17.5-2.32,1.67-2.57,0,0,0,0,0,0,1.17-.25,2.32.5,2.57,1.67" />
        <path
           id="Path_601"
           data-name="Path 601"
           class="cls-3"
           d="m257.96,121.9c.25,1.17-.5,2.32-1.67,2.57-1.17.25-2.32-.5-2.57-1.67-.25-1.17.5-2.32,1.67-2.57,0,0,0,0,0,0,1.17-.25,2.32.5,2.57,1.67" />
        <path
           id="Path_602"
           data-name="Path 602"
           class="cls-3"
           d="m201.37,149.55c.25,1.17-.5,2.32-1.67,2.57s-2.32-.5-2.57-1.67c-.25-1.17.5-2.32,1.67-2.57,0,0,0,0,0,0,1.17-.25,2.32.5,2.57,1.67h0" />
        <path
           id="Path_603"
           data-name="Path 603"
           class="cls-3"
           d="m216.32,146.38c.25,1.17-.5,2.32-1.67,2.57-1.17.25-2.32-.5-2.57-1.67s.5-2.32,1.67-2.57c0,0,0,0,0,0,1.17-.25,2.32.5,2.57,1.67" />
        <path
           id="Path_604"
           data-name="Path 604"
           class="cls-3"
           d="m231.26,143.2c.25,1.17-.5,2.32-1.67,2.57-1.17.25-2.32-.5-2.57-1.67-.25-1.17.5-2.32,1.67-2.57,0,0,0,0,0,0,1.17-.25,2.32.5,2.57,1.67" />
        <path
           id="Path_605"
           data-name="Path 605"
           class="cls-3"
           d="m246.2,140.02c.25,1.17-.5,2.32-1.67,2.57-1.17.25-2.32-.5-2.57-1.67-.25-1.17.5-2.32,1.67-2.57,0,0,0,0,0,0,1.17-.25,2.32.5,2.57,1.67" />
        <path
           id="Path_606"
           data-name="Path 606"
           class="cls-3"
           d="m261.14,136.85c.25,1.17-.5,2.32-1.67,2.57-1.17.25-2.32-.5-2.57-1.67-.25-1.17.5-2.32,1.67-2.57,0,0,0,0,0,0,1.17-.25,2.32.5,2.57,1.67" />
      </g>
      <g
         class="cls-2"
         id="g20">
        <path
           id="Path_561-2"
           data-name="Path 561"
           class="cls-4"
           d="m319.79,26.63l-187.14,6.53c-8.07.28-14.38,7.05-14.1,15.12,0,0,0,0,0,0l5.02,143.87c.28,8.07,7.05,14.38,15.12,14.1l6.37-.22c2.44-4.11,7.75-5.45,11.85-3.01,1.06.63,1.98,1.49,2.69,2.51l25.43-.89c2.44-4.1,7.75-5.45,11.85-3.01,1.07.63,1.98,1.49,2.69,2.51l25.43-.89c2.44-4.11,7.75-5.46,11.85-3.02,1.07.63,1.98,1.49,2.69,2.51l25.43-.89c2.44-4.11,7.74-5.46,11.85-3.02,1.07.63,1.98,1.49,2.69,2.51l25.43-.89c2.44-4.1,7.75-5.45,11.85-3.01,1.07.63,1.98,1.49,2.69,2.51l6.37-.22c8.07-.28,14.38-7.05,14.1-15.12l-5.03-143.88c-.28-8.07-7.05-14.38-15.11-14.1,0,0,0,0,0,0" />
        <path
           class="cls-3"
           d="m138.17,209.26c-9.43,0-17.27-7.5-17.6-17l-5.02-143.87c-.34-9.71,7.28-17.88,16.99-18.22l187.14-6.53h0c9.72-.33,17.88,7.29,18.21,16.99l5.02,143.88c.16,4.7-1.51,9.19-4.72,12.63-3.21,3.44-7.57,5.43-12.27,5.59l-6.37.22c-1.02.04-1.99-.45-2.57-1.29-.46-.66-1.06-1.23-1.76-1.64-1.3-.77-2.82-.99-4.28-.62-1.46.37-2.69,1.29-3.46,2.59-.52.88-1.45,1.43-2.47,1.47l-25.43.89c-.99.03-1.99-.45-2.57-1.29-.46-.67-1.06-1.22-1.76-1.64-2.68-1.59-6.15-.71-7.74,1.97-.52.88-1.45,1.43-2.47,1.47l-25.43.89c-1.01.04-1.99-.45-2.57-1.29-.46-.67-1.05-1.22-1.76-1.64-1.3-.77-2.82-.99-4.28-.62-1.46.37-2.69,1.29-3.46,2.59-.52.88-1.45,1.43-2.47,1.47l-25.43.89c-1,.03-1.99-.45-2.57-1.29-.46-.67-1.06-1.22-1.76-1.64-2.68-1.59-6.15-.71-7.74,1.97-.52.88-1.45,1.43-2.47,1.46l-25.42.89c-1,.04-1.99-.45-2.57-1.29-.46-.67-1.06-1.22-1.76-1.64-1.3-.77-2.82-.99-4.28-.62-1.46.37-2.69,1.29-3.46,2.59-.52.88-1.45,1.43-2.47,1.46l-6.37.22c-.21,0-.42.01-.62.01ZM319.79,26.63l.1,3-187.14,6.53c-6.4.22-11.43,5.61-11.2,12.02l5.02,143.87c.22,6.4,5.61,11.43,12.02,11.2l4.88-.17c1.57-1.93,3.7-3.3,6.16-3.92,3.02-.77,6.15-.31,8.82,1.28.94.56,1.79,1.24,2.54,2.03l22.45-.78c3.58-4.4,9.96-5.63,14.98-2.64.95.56,1.8,1.25,2.54,2.04l22.45-.78c1.57-1.93,3.7-3.3,6.15-3.92,3.01-.77,6.15-.31,8.82,1.28.95.56,1.8,1.24,2.54,2.04l22.45-.78c3.58-4.4,9.96-5.63,14.97-2.65.95.56,1.8,1.24,2.54,2.04l22.45-.78c1.57-1.93,3.7-3.3,6.15-3.92,3.01-.77,6.15-.31,8.82,1.28.95.56,1.79,1.24,2.54,2.04l4.88-.17c3.1-.11,5.97-1.42,8.09-3.69,2.12-2.27,3.22-5.23,3.11-8.33l-5.02-143.88c-.22-6.4-5.6-11.43-12.01-11.21l-.11-3Z"
           id="path11" />
        <path
           class="cls-3"
           d="m311.23,182.73c-2.52,0-4.9-.94-6.75-2.66-1.94-1.81-3.05-4.26-3.15-6.91-.19-5.46,4.1-10.06,9.56-10.25,5.47-.19,10.06,4.1,10.26,9.56h0c.19,5.46-4.1,10.06-9.56,10.25-.12,0-.24,0-.35,0Zm.01-17.32c-.09,0-.17,0-.26,0-4.08.14-7.28,3.58-7.14,7.66.07,1.98.9,3.81,2.35,5.16,1.45,1.35,3.34,2.05,5.31,1.99,4.08-.14,7.28-3.58,7.14-7.66h0c-.14-3.99-3.43-7.15-7.4-7.15Z"
           id="path12" />
        <path
           class="cls-3"
           d="m271.26,184.13c-2.52,0-4.9-.94-6.75-2.66-1.94-1.81-3.05-4.26-3.15-6.91-.19-5.46,4.1-10.06,9.56-10.25,5.49-.19,10.06,4.1,10.26,9.56h0c.19,5.46-4.1,10.06-9.56,10.25-.12,0-.24,0-.35,0Zm.01-17.32c-.09,0-.17,0-.26,0-4.08.14-7.28,3.58-7.14,7.66.07,1.98.9,3.81,2.35,5.16,1.45,1.35,3.34,2.05,5.31,1.99,4.08-.14,7.28-3.58,7.14-7.66h0c-.14-3.99-3.43-7.15-7.4-7.15Z"
           id="path13" />
        <path
           class="cls-3"
           d="m231.3,185.52c-5.31,0-9.72-4.22-9.9-9.57-.19-5.46,4.1-10.06,9.56-10.26,5.46-.19,10.06,4.1,10.26,9.56h0c.09,2.65-.85,5.17-2.66,7.11-1.81,1.94-4.26,3.05-6.9,3.15-.12,0-.23,0-.35,0Zm0-17.32c-.09,0-.17,0-.26,0-4.08.14-7.28,3.58-7.14,7.66.14,4.08,3.59,7.28,7.66,7.14,1.98-.07,3.81-.9,5.16-2.35,1.35-1.45,2.05-3.33,1.98-5.31-.14-3.99-3.43-7.15-7.4-7.15Z"
           id="path14" />
        <path
           class="cls-3"
           d="m191.33,186.92c-2.52,0-4.9-.94-6.75-2.66-1.94-1.81-3.05-4.26-3.15-6.91-.19-5.46,4.1-10.06,9.56-10.25,2.65-.09,5.17.85,7.11,2.66,1.94,1.81,3.06,4.26,3.15,6.9,0,0,0,0,0,0,.19,5.46-4.1,10.06-9.56,10.25-.12,0-.24,0-.35,0Zm.01-17.32c-.09,0-.17,0-.26,0-4.08.14-7.28,3.58-7.14,7.66.07,1.98.9,3.81,2.35,5.16,1.45,1.35,3.35,2.05,5.31,1.99,4.08-.14,7.29-3.58,7.14-7.66h0c-.14-3.99-3.43-7.15-7.4-7.15Z"
           id="path15" />
        <path
           class="cls-3"
           d="m151.37,188.31c-2.52,0-4.9-.94-6.75-2.66-1.94-1.81-3.05-4.26-3.15-6.91-.19-5.46,4.1-10.06,9.56-10.25,2.65-.09,5.17.85,7.11,2.66,1.94,1.81,3.06,4.26,3.15,6.9h0c.19,5.47-4.1,10.07-9.56,10.26-.12,0-.24,0-.35,0Zm.02-17.32c-.09,0-.18,0-.27,0-4.08.14-7.28,3.58-7.14,7.66.07,1.98.9,3.81,2.35,5.16,1.45,1.35,3.35,2.05,5.31,1.99,4.08-.14,7.28-3.58,7.14-7.66h0c-.07-1.98-.9-3.81-2.35-5.16-1.38-1.29-3.16-1.99-5.04-1.99Z"
           id="path16" />
        <path
           id="Path_568-2"
           data-name="Path 568"
           class="cls-3"
           d="m320.01,126.27l-20.77.72c-1.43.04-2.63-1.07-2.68-2.51l-.72-20.77c-.04-1.43,1.08-2.63,2.51-2.68l20.77-.72c1.43-.04,2.63,1.07,2.68,2.51l.73,20.77c.04,1.43-1.07,2.63-2.51,2.68" />
        <path
           class="cls-3"
           d="m299.16,127.62c-1.73,0-3.17-1.38-3.23-3.11l-.72-20.77c-.05-1.77,1.34-3.26,3.11-3.33l20.77-.72c1.77-.05,3.27,1.34,3.33,3.11l.73,20.77c.06,1.77-1.34,3.27-3.11,3.34,0,0,0,0,0,0l-20.77.72s-.07,0-.1,0Zm20.03-26.69s-.04,0-.06,0l-20.77.72c-1.08.04-1.93.96-1.9,2.04l.72,20.77c.04,1.08.98,1.93,2.04,1.9l20.77-.72c1.08-.04,1.94-.95,1.9-2.04l-.73-20.77c-.04-1.06-.92-1.9-1.98-1.9Zm.82,25.33h0,0Z"
           id="path17" />
        <path
           id="Path_570-2"
           data-name="Path 570"
           class="cls-3"
           d="m160.14,131.85l-20.77.72c-1.43.04-2.63-1.07-2.68-2.51l-.73-20.76c-.04-1.43,1.07-2.63,2.5-2.68l20.77-.72c1.43-.05,2.63,1.07,2.68,2.51l.73,20.76c.04,1.43-1.07,2.63-2.5,2.68" />
        <path
           class="cls-3"
           d="m139.29,133.2c-1.73,0-3.17-1.37-3.23-3.11l-.73-20.77c-.06-1.77,1.34-3.27,3.11-3.33l20.77-.72c1.78-.06,3.27,1.34,3.33,3.11l.73,20.76c.06,1.77-1.34,3.27-3.11,3.34,0,0,0,0,0,0l-20.77.72s-.07,0-.1,0Zm20.03-26.68s-.04,0-.06,0l-20.77.72c-1.08.04-1.93.96-1.9,2.04l.73,20.76c.04,1.08.96,1.93,2.04,1.9l20.77-.72c1.08-.04,1.93-.96,1.9-2.04l-.73-20.76c-.04-1.06-.92-1.9-1.97-1.9Zm.82,25.33h0,0Z"
           id="path18" />
        <path
           id="Path_572-2"
           data-name="Path 572"
           class="cls-4"
           d="m314.79,113.45c.11,3.11-2.32,5.71-5.43,5.82-3.11.11-5.71-2.32-5.82-5.43-.11-3.11,2.32-5.71,5.43-5.82,0,0,0,0,0,0,3.11-.11,5.71,2.33,5.82,5.43" />
        <path
           class="cls-4"
           d="m309.17,120.32c-3.57,0-6.54-2.84-6.67-6.44-.06-1.78.57-3.48,1.79-4.78s2.87-2.05,4.65-2.12c3.67-.13,6.77,2.76,6.9,6.44h0c.13,3.68-2.76,6.77-6.44,6.9-.08,0-.16,0-.23,0Zm0-11.26c-.05,0-.1,0-.16,0-1.23.04-2.36.56-3.19,1.45-.83.89-1.27,2.06-1.23,3.28.09,2.53,2.22,4.51,4.74,4.42,2.52-.09,4.51-2.21,4.42-4.74h0c-.09-2.47-2.12-4.42-4.58-4.42Z"
           id="path19" />
        <path
           id="Path_574-2"
           data-name="Path 574"
           class="cls-4"
           d="m154.93,119.03c.11,3.11-2.32,5.71-5.43,5.82-3.11.11-5.71-2.32-5.82-5.43s2.32-5.71,5.43-5.82c0,0,0,0,0,0,3.1-.11,5.71,2.32,5.82,5.43" />
        <path
           class="cls-4"
           d="m149.3,125.9c-1.69,0-3.3-.63-4.55-1.79-1.3-1.22-2.06-2.87-2.12-4.65-.06-1.78.57-3.48,1.79-4.78s2.87-2.06,4.65-2.12c3.65-.13,6.77,2.76,6.9,6.44h0c.06,1.78-.57,3.48-1.79,4.78-1.22,1.3-2.87,2.06-4.65,2.12-.08,0-.16,0-.24,0Zm0-11.26c-.05,0-.1,0-.16,0-1.23.04-2.36.56-3.19,1.45-.83.9-1.27,2.06-1.23,3.28s.56,2.36,1.45,3.19c.89.83,2.06,1.27,3.28,1.23,1.22-.04,2.36-.56,3.19-1.45.83-.9,1.27-2.06,1.23-3.28h0c-.09-2.47-2.12-4.42-4.58-4.42Z"
           id="path20" />
        <path
           id="Path_576-2"
           data-name="Path 576"
           class="cls-3"
           d="m177.45,32.59l-56.22,59.89-1.63-46.61c-.21-6.21,4.64-11.42,10.86-11.64l46.99-1.64Z" />
        <path
           id="Path_577-2"
           data-name="Path 577"
           class="cls-3"
           d="m205.14,31.74l-28.41,30.1-.91-29.18,29.32-.91Z" />
        <path
           id="Path_578-2"
           data-name="Path 578"
           class="cls-3"
           d="m217.95,31.23l-14.09,15.12-.46-14.67,14.55-.45Z" />
        <path
           id="Path_579-2"
           data-name="Path 579"
           class="cls-3"
           d="m235.02,59.12c1.15-.06,2.04-1.05,1.97-2.21-.06-1.15-1.05-2.04-2.21-1.97-1.13.06-2.01,1.02-1.97,2.15.05,1.17,1.04,2.08,2.21,2.03" />
        <path
           id="Path_580-2"
           data-name="Path 580"
           class="cls-3"
           d="m219.14,55.42c-1.15.06-2.04,1.05-1.97,2.21.06,1.15,1.05,2.04,2.21,1.97,1.13-.06,2.01-1.02,1.97-2.15-.05-1.17-1.04-2.07-2.21-2.02" />
        <path
           id="Path_581-2"
           data-name="Path 581"
           class="cls-3"
           d="m219.01,51.3c-3.43.01-6.21,2.8-6.2,6.24.01,3.43,2.8,6.21,6.24,6.2.12,0,.23,0,.35-.01l15.92-.5c3.43-.02,6.2-2.83,6.17-6.26-.02-3.43-2.83-6.2-6.26-6.17-.1,0-.2,0-.3,0l-15.93.5Zm16.44,16.07l-15.92.5c-5.72.31-10.6-4.07-10.92-9.78-.31-5.72,4.07-10.6,9.78-10.92.16,0,.33-.01.49-.02l15.93-.5c5.72-.33,10.61,4.04,10.94,9.76.33,5.72-4.04,10.61-9.76,10.94-.18.01-.36.02-.53.02" />
        <path
           id="Path_582-2"
           data-name="Path 582"
           class="cls-3"
           d="m199.8,86.9c.04,1.2-.89,2.2-2.09,2.24-1.2.04-2.2-.89-2.24-2.09-.04-1.2.89-2.2,2.09-2.24h0c1.19-.04,2.2.89,2.24,2.09" />
        <path
           id="Path_583-2"
           data-name="Path 583"
           class="cls-3"
           d="m215.07,86.37c.04,1.2-.89,2.2-2.09,2.24-1.2.04-2.2-.89-2.24-2.09-.04-1.2.89-2.2,2.09-2.24h0c1.19-.04,2.2.89,2.24,2.09" />
        <path
           id="Path_584-2"
           data-name="Path 584"
           class="cls-3"
           d="m230.33,85.83c.04,1.19-.89,2.2-2.09,2.24-1.19.04-2.2-.89-2.24-2.09-.04-1.19.89-2.2,2.09-2.24,0,0,0,0,0,0,1.19-.04,2.2.89,2.24,2.09h0" />
        <path
           id="Path_585-2"
           data-name="Path 585"
           class="cls-3"
           d="m245.6,85.3c.04,1.2-.89,2.2-2.09,2.24-1.2.04-2.2-.89-2.24-2.09-.04-1.2.89-2.2,2.09-2.24,0,0,0,0,0,0,1.19-.04,2.2.89,2.24,2.09" />
        <path
           id="Path_586-2"
           data-name="Path 586"
           class="cls-3"
           d="m260.87,84.77c.04,1.2-.89,2.2-2.09,2.24-1.2.04-2.2-.89-2.24-2.09-.04-1.2.89-2.2,2.09-2.24,0,0,0,0,0,0,1.19-.04,2.19.89,2.24,2.09" />
        <path
           id="Path_587-2"
           data-name="Path 587"
           class="cls-3"
           d="m200.34,102.16c.04,1.19-.89,2.2-2.09,2.24s-2.2-.89-2.24-2.09c-.04-1.19.89-2.2,2.09-2.24,0,0,0,0,0,0,1.19-.04,2.2.89,2.24,2.09h0" />
        <path
           id="Path_588-2"
           data-name="Path 588"
           class="cls-3"
           d="m215.6,101.63c.04,1.2-.89,2.2-2.09,2.24-1.2.04-2.2-.89-2.24-2.09s.89-2.2,2.09-2.24c0,0,0,0,0,0,1.19-.04,2.2.89,2.24,2.09h0" />
        <path
           id="Path_589-2"
           data-name="Path 589"
           class="cls-3"
           d="m230.87,101.1c.04,1.2-.89,2.2-2.09,2.24-1.2.04-2.2-.89-2.24-2.09-.04-1.2.89-2.2,2.09-2.24,0,0,0,0,0,0,1.19-.04,2.2.89,2.24,2.09" />
        <path
           id="Path_590-2"
           data-name="Path 590"
           class="cls-3"
           d="m246.13,100.56c.04,1.19-.89,2.2-2.09,2.24-1.19.04-2.2-.89-2.24-2.09-.04-1.19.89-2.2,2.09-2.24,0,0,0,0,0,0,1.19-.04,2.2.89,2.24,2.09" />
        <path
           id="Path_591-2"
           data-name="Path 591"
           class="cls-3"
           d="m261.4,100.03c.04,1.19-.89,2.2-2.09,2.24-1.19.04-2.2-.89-2.24-2.09-.04-1.19.89-2.2,2.09-2.24,0,0,0,0,0,0,1.19-.04,2.2.89,2.24,2.09h0" />
        <path
           id="Path_592-2"
           data-name="Path 592"
           class="cls-3"
           d="m200.87,117.43c.04,1.2-.89,2.2-2.09,2.24-1.2.04-2.2-.89-2.24-2.09s.89-2.2,2.09-2.24c0,0,0,0,0,0,1.19-.04,2.2.89,2.24,2.09" />
        <path
           id="Path_593-2"
           data-name="Path 593"
           class="cls-3"
           d="m216.14,116.9c.04,1.2-.89,2.2-2.09,2.24-1.2.04-2.2-.89-2.24-2.09-.04-1.2.89-2.2,2.09-2.24,0,0,0,0,0,0,1.19-.04,2.2.89,2.24,2.09" />
        <path
           id="Path_594-2"
           data-name="Path 594"
           class="cls-3"
           d="m231.4,116.36c.04,1.19-.89,2.2-2.09,2.24-1.19.04-2.2-.89-2.24-2.09-.04-1.19.89-2.2,2.09-2.24,0,0,0,0,0,0,1.19-.04,2.2.89,2.24,2.09" />
        <path
           id="Path_595-2"
           data-name="Path 595"
           class="cls-3"
           d="m246.67,115.83c.04,1.2-.89,2.2-2.09,2.24-1.2.04-2.2-.89-2.24-2.09-.04-1.2.89-2.2,2.09-2.24,0,0,0,0,0,0,1.19-.04,2.2.89,2.24,2.09" />
        <path
           id="Path_596-2"
           data-name="Path 596"
           class="cls-3"
           d="m261.93,115.3c.04,1.2-.89,2.2-2.09,2.24-1.2.04-2.2-.89-2.24-2.09-.04-1.2.89-2.2,2.09-2.24,0,0,0,0,0,0,1.19-.04,2.2.89,2.24,2.09" />
        <path
           id="Path_597-2"
           data-name="Path 597"
           class="cls-3"
           d="m201.4,132.69c.04,1.19-.89,2.2-2.09,2.24-1.19.04-2.2-.89-2.24-2.09-.04-1.19.89-2.2,2.09-2.24,0,0,0,0,0,0,1.19-.04,2.19.89,2.24,2.09" />
        <path
           id="Path_598-2"
           data-name="Path 598"
           class="cls-3"
           d="m216.67,132.16c.04,1.2-.89,2.2-2.09,2.24-1.2.04-2.2-.89-2.24-2.09s.89-2.2,2.09-2.24c0,0,0,0,0,0,1.19-.04,2.2.89,2.24,2.09" />
        <path
           id="Path_599-2"
           data-name="Path 599"
           class="cls-3"
           d="m231.93,131.63c.04,1.2-.89,2.2-2.09,2.24-1.2.04-2.2-.89-2.24-2.09s.89-2.2,2.09-2.24c0,0,0,0,0,0,1.19-.04,2.2.89,2.24,2.09" />
        <path
           id="Path_600-2"
           data-name="Path 600"
           class="cls-3"
           d="m247.2,131.1c.04,1.2-.89,2.2-2.09,2.24-1.2.04-2.2-.89-2.24-2.09-.04-1.2.89-2.2,2.09-2.24,0,0,0,0,0,0,1.19-.04,2.2.89,2.24,2.09" />
        <path
           id="Path_601-2"
           data-name="Path 601"
           class="cls-3"
           d="m262.47,130.56c.04,1.2-.89,2.2-2.09,2.24-1.2.04-2.2-.89-2.24-2.09-.04-1.2.89-2.2,2.09-2.24,0,0,0,0,0,0,1.19-.04,2.2.89,2.24,2.09" />
        <path
           id="Path_602-2"
           data-name="Path 602"
           class="cls-3"
           d="m201.94,147.96c.04,1.19-.89,2.2-2.09,2.24-1.19.04-2.2-.89-2.24-2.09-.04-1.19.89-2.2,2.09-2.24,0,0,0,0,0,0,1.19-.04,2.2.89,2.24,2.09h0" />
        <path
           id="Path_603-2"
           data-name="Path 603"
           class="cls-3"
           d="m217.2,147.43c.04,1.2-.89,2.2-2.09,2.24-1.2.04-2.2-.89-2.24-2.09s.89-2.2,2.09-2.24c0,0,0,0,0,0,1.19-.04,2.2.89,2.24,2.09" />
        <path
           id="Path_604-2"
           data-name="Path 604"
           class="cls-3"
           d="m232.47,146.89c.04,1.2-.89,2.2-2.09,2.24-1.2.04-2.2-.89-2.24-2.09-.04-1.2.89-2.2,2.09-2.24,0,0,0,0,0,0,1.19-.04,2.19.89,2.24,2.09" />
        <path
           id="Path_605-2"
           data-name="Path 605"
           class="cls-3"
           d="m247.73,146.36c.04,1.19-.89,2.2-2.09,2.24-1.19.04-2.2-.89-2.24-2.09-.04-1.19.89-2.2,2.09-2.24,0,0,0,0,0,0,1.19-.04,2.2.89,2.24,2.09" />
        <path
           id="Path_606-2"
           data-name="Path 606"
           class="cls-3"
           d="m263,145.83c.04,1.2-.89,2.2-2.09,2.24-1.2.04-2.2-.89-2.24-2.09-.04-1.2.89-2.2,2.09-2.24,0,0,0,0,0,0,1.19-.04,2.19.89,2.24,2.09" />
      </g>
      <path
         id="Path_546"
         data-name="Path 546"
         class="cls-4"
         d="m304.63,171.41l33.25,5.32c25.77,4.36,43.13,28.78,38.78,54.56-4.33,25.6-28.47,42.93-54.1,38.85l-33.22-5.45" />
      <path
         class="cls-3"
         d="m329.96,273.73c-2.6,0-5.23-.2-7.88-.62l-33.24-5.45c-1.63-.27-2.74-1.81-2.47-3.45.27-1.63,1.81-2.74,3.45-2.47l33.22,5.45c2.33.37,4.65.55,6.93.55,21.21,0,40.08-15.4,43.73-36.94,4.07-24.1-12.22-47.02-36.32-51.1l-33.22-5.31c-1.64-.26-2.75-1.8-2.49-3.44.26-1.64,1.81-2.75,3.44-2.49l33.25,5.32c27.39,4.63,45.89,30.66,41.26,58.02-4.14,24.46-25.56,41.94-49.65,41.94Z"
         id="path21" />
      <path
         id="Path_548"
         data-name="Path 548"
         class="cls-4"
         d="m294.61,265.55l-28.22-4.63c-5.16-.83-8.68-5.68-7.85-10.84s5.68-8.68,10.84-7.85c.03,0,.05,0,.08.01l25.56,4.19" />
      <path
         class="cls-3"
         d="m294.61,268.55c-.16,0-.32-.01-.49-.04l-28.22-4.63c-6.78-1.08-11.41-7.49-10.33-14.28.53-3.29,2.3-6.17,5-8.13,2.7-1.95,5.99-2.74,9.28-2.21l.1.02,25.55,4.19c1.63.27,2.74,1.81,2.47,3.45-.27,1.63-1.81,2.74-3.45,2.47l-25.56-4.19c-1.77-.28-3.48.12-4.88,1.14-1.4,1.01-2.32,2.51-2.59,4.22-.56,3.52,1.84,6.84,5.36,7.41l28.23,4.63c1.63.27,2.74,1.81,2.47,3.45-.24,1.47-1.51,2.51-2.96,2.51Z"
         id="path22" />
      <path
         id="Path_550"
         data-name="Path 550"
         class="cls-4"
         d="m295.02,246.44l-45.58-7.48c-5.16-.83-8.68-5.68-7.85-10.84.83-5.16,5.68-8.68,10.84-7.85.03,0,.05,0,.08.01l45.58,7.49" />
      <path
         class="cls-3"
         d="m295.02,249.44c-.16,0-.32-.01-.49-.04l-45.58-7.48c-6.77-1.08-11.41-7.49-10.33-14.28,1.09-6.79,7.49-11.43,14.28-10.34l.11.02,45.55,7.48c1.63.27,2.74,1.81,2.47,3.45-.27,1.63-1.81,2.74-3.45,2.47l-45.58-7.49c-3.59-.57-6.91,1.83-7.47,5.35-.56,3.52,1.84,6.84,5.36,7.41l45.59,7.49c1.63.27,2.74,1.81,2.47,3.45-.24,1.47-1.51,2.51-2.96,2.51Z"
         id="path23" />
      <path
         id="Path_552"
         data-name="Path 552"
         class="cls-4"
         d="m298.08,227.75l-54.76-8.98c-5.16-.83-8.68-5.68-7.85-10.84.83-5.16,5.68-8.68,10.84-7.85.03,0,.05,0,.08.01l54.76,8.98" />
      <path
         class="cls-3"
         d="m298.09,230.76c-.16,0-.32-.01-.49-.04l-54.76-8.98c-6.78-1.08-11.41-7.49-10.33-14.28,1.09-6.79,7.49-11.43,14.28-10.34l.1.02,54.75,8.98c1.63.27,2.74,1.81,2.47,3.45-.27,1.63-1.81,2.74-3.45,2.47l-54.76-8.98c-3.58-.57-6.91,1.83-7.47,5.35-.56,3.52,1.84,6.84,5.36,7.41l54.77,8.98c1.64.27,2.74,1.81,2.48,3.45-.24,1.47-1.51,2.52-2.96,2.52Z"
         id="path24" />
      <path
         id="Path_554"
         data-name="Path 554"
         class="cls-3"
         d="m301.15,209.07l-45.58-7.48c-5.16-.83-8.68-5.68-7.85-10.84.83-5.16,5.68-8.68,10.84-7.85.03,0,.05,0,.08.01l52.17,8.56" />
      <path
         class="cls-3"
         d="m301.15,211.16c-.11,0-.23,0-.34-.03l-45.58-7.48c-6.28-1.01-10.58-6.94-9.58-13.24,1.01-6.29,6.95-10.59,13.24-9.59l.1.02,52.15,8.56c1.14.19,1.91,1.26,1.73,2.4-.19,1.14-1.26,1.91-2.4,1.72l-52.17-8.56c-4.08-.65-7.87,2.09-8.52,6.11-.64,4.02,2.1,7.8,6.12,8.45l45.58,7.49c1.14.19,1.91,1.26,1.72,2.4-.17,1.02-1.06,1.75-2.06,1.75Z"
         id="path25" />
      <path
         class="cls-3"
         d="m367.17,66.85c-.19,0-.37-.01-.56-.04-2.19-.31-3.71-2.33-3.4-4.52.94-6.67-.78-13.31-4.83-18.7-4.06-5.38-9.96-8.86-16.64-9.8-2.19-.31-3.71-2.33-3.4-4.52.31-2.19,2.33-3.71,4.52-3.4,8.79,1.24,16.57,5.82,21.91,12.91,5.34,7.09,7.6,15.83,6.37,24.62-.28,2-1.99,3.44-3.96,3.44Z"
         id="path26" />
      <path
         class="cls-3"
         d="m384.22,66.3c-.19,0-.37-.01-.56-.04-2.19-.31-3.71-2.33-3.4-4.52,3.06-21.76-12.16-41.95-33.91-45-2.19-.31-3.71-2.33-3.4-4.52.31-2.19,2.33-3.71,4.52-3.4,26.13,3.67,44.39,27.91,40.72,54.04-.28,2-1.99,3.44-3.96,3.44Z"
         id="path27" />
      <path
         class="cls-3"
         d="m127.72,208.48c-.19,0-.37-.01-.56-.04-8.79-1.24-16.57-5.82-21.91-12.91-5.34-7.09-7.6-15.83-6.37-24.62.31-2.19,2.33-3.71,4.52-3.4,2.19.31,3.71,2.33,3.4,4.52-.94,6.67.78,13.31,4.83,18.7s9.96,8.86,16.64,9.8c2.19.31,3.71,2.33,3.4,4.52-.28,2-1.99,3.44-3.96,3.44Z"
         id="path28" />
      <path
         class="cls-3"
         d="m123.11,225.53c-.19,0-.37-.01-.56-.04-26.13-3.67-44.39-27.91-40.72-54.04.31-2.19,2.32-3.71,4.52-3.4,2.19.31,3.71,2.33,3.4,4.52-3.06,21.76,12.16,41.95,33.91,45.01,2.19.31,3.71,2.33,3.4,4.52-.28,2-1.99,3.44-3.96,3.44Z"
         id="path29" />
      <g
         id="g39">
        <path
           id="Path_561-3"
           data-name="Path 561"
           class="cls-4"
           d="m340.01,44.72l-185.44-26.07c-7.99-1.12-15.38,4.45-16.51,12.44,0,0,0,0,0,0l-20.04,142.56c-1.12,7.99,4.45,15.38,12.44,16.51l6.31.89c3.12-3.62,8.58-4.03,12.2-.91.94.81,1.69,1.81,2.21,2.93l25.19,3.54c3.12-3.62,8.58-4.02,12.2-.91.94.81,1.69,1.81,2.21,2.94l25.19,3.54c3.12-3.62,8.58-4.03,12.2-.91.94.81,1.69,1.81,2.21,2.94l25.19,3.54c3.12-3.62,8.57-4.03,12.19-.91.94.81,1.69,1.81,2.21,2.94l25.2,3.54c3.12-3.62,8.58-4.03,12.19-.91.94.81,1.69,1.81,2.21,2.94l6.31.89c7.99,1.12,15.38-4.45,16.51-12.44l20.03-142.56c1.12-7.99-4.44-15.38-12.44-16.51,0,0,0,0,0,0" />
        <path
           class="cls-3"
           d="m317.95,219.37c-.81,0-1.64-.06-2.46-.17l-6.31-.89c-1.01-.14-1.88-.79-2.31-1.72-.34-.74-.83-1.39-1.45-1.92-2.36-2.03-5.93-1.76-7.96.59-.67.77-1.68,1.15-2.69,1.01l-25.2-3.54c-1.01-.14-1.88-.79-2.31-1.72-.34-.74-.83-1.39-1.45-1.92-2.36-2.03-5.93-1.76-7.96.6-.67.77-1.68,1.16-2.69,1.01l-25.19-3.54c-1.01-.14-1.88-.79-2.31-1.72-.34-.74-.83-1.39-1.44-1.92-2.36-2.03-5.93-1.76-7.96.6-.67.77-1.68,1.15-2.69,1.01l-25.19-3.54c-1.01-.14-1.88-.79-2.31-1.72-.34-.74-.83-1.39-1.44-1.92-2.36-2.03-5.93-1.77-7.96.59-.67.77-1.68,1.15-2.69,1.01l-25.19-3.54c-1.01-.14-1.88-.79-2.31-1.72-.34-.74-.83-1.38-1.44-1.92-1.14-.98-2.6-1.47-4.11-1.35-1.5.11-2.88.8-3.86,1.95-.67.77-1.68,1.15-2.69,1.01l-6.31-.89c-9.62-1.35-16.35-10.28-14.99-19.9l20.04-142.56c1.35-9.62,10.28-16.35,19.9-15l185.44,26.07s0,0,0,0c9.61,1.35,16.34,10.28,14.98,19.9l-20.04,142.56c-1.24,8.79-8.8,15.16-17.43,15.17Zm-6.47-6.79l4.84.68c6.35.89,12.23-3.54,13.12-9.89l20.04-142.56c.89-6.34-3.54-12.23-9.88-13.12l.41-2.97-.42,2.97-185.44-26.07c-3.07-.43-6.13.36-8.61,2.23-2.48,1.87-4.08,4.59-4.51,7.66l-20.04,142.56c-.89,6.34,3.54,12.23,9.89,13.12l4.84.68c1.88-1.63,4.22-2.61,6.74-2.79,3.1-.23,6.11.76,8.47,2.79.83.72,1.55,1.54,2.14,2.44l22.25,3.13c4.29-3.71,10.79-3.81,15.21,0,.83.72,1.55,1.54,2.15,2.45l22.24,3.13c4.29-3.71,10.78-3.82,15.21,0,.83.72,1.55,1.54,2.15,2.45l22.25,3.13c4.29-3.71,10.78-3.82,15.21,0,.84.72,1.55,1.54,2.15,2.45l22.25,3.13c4.29-3.71,10.78-3.81,15.21,0,.83.72,1.55,1.54,2.15,2.44Z"
           id="path30" />
        <path
           class="cls-3"
           d="m306.22,197.12c-.46,0-.93-.03-1.4-.1-2.62-.37-4.94-1.74-6.54-3.85-1.59-2.12-2.27-4.72-1.9-7.35.76-5.41,5.78-9.2,11.2-8.44,5.41.76,9.2,5.78,8.44,11.2h0c-.37,2.62-1.74,4.94-3.85,6.54-1.74,1.31-3.81,2-5.95,2Zm-.03-17.32c-3.63,0-6.81,2.68-7.33,6.38-.28,1.96.23,3.91,1.42,5.49s2.92,2.6,4.88,2.88c1.96.28,3.91-.23,5.49-1.42,1.58-1.19,2.6-2.92,2.88-4.88.57-4.04-2.26-7.8-6.3-8.36-.35-.05-.69-.07-1.03-.07Zm8.58,8.61h0,0Z"
           id="path31" />
        <path
           class="cls-3"
           d="m266.62,191.55c-.46,0-.93-.03-1.4-.1-2.62-.37-4.94-1.74-6.54-3.85s-2.27-4.72-1.9-7.35c.76-5.41,5.78-9.2,11.2-8.44,5.41.76,9.2,5.78,8.44,11.2h0c-.37,2.62-1.74,4.94-3.85,6.54-1.74,1.31-3.81,2-5.95,2Zm-.03-17.32c-3.63,0-6.81,2.68-7.33,6.38-.28,1.96.23,3.91,1.42,5.49s2.92,2.6,4.88,2.88c1.96.28,3.91-.23,5.49-1.42,1.58-1.19,2.6-2.92,2.88-4.88.57-4.04-2.26-7.8-6.3-8.36-.35-.05-.69-.07-1.03-.07Zm8.58,8.61h0,0Z"
           id="path32" />
        <path
           class="cls-3"
           d="m227.02,185.98c-.46,0-.93-.03-1.4-.1-5.41-.76-9.2-5.78-8.44-11.2.76-5.41,5.78-9.2,11.2-8.44,5.41.76,9.2,5.78,8.44,11.2h0c-.37,2.62-1.74,4.94-3.85,6.54-1.74,1.31-3.81,2-5.95,2Zm-.03-17.32c-3.63,0-6.81,2.68-7.33,6.38-.57,4.04,2.26,7.8,6.3,8.36,1.96.28,3.91-.23,5.49-1.42,1.58-1.19,2.6-2.92,2.88-4.88h0c.57-4.04-2.26-7.8-6.3-8.36-.35-.05-.69-.07-1.03-.07Zm8.58,8.61h0,0Z"
           id="path33" />
        <path
           class="cls-3"
           d="m187.42,180.42c-.46,0-.93-.03-1.4-.1-5.41-.76-9.2-5.78-8.44-11.2.76-5.41,5.78-9.2,11.2-8.44,2.62.37,4.94,1.74,6.54,3.85,1.59,2.11,2.27,4.72,1.9,7.35,0,0,0,0,0,0-.37,2.62-1.74,4.94-3.85,6.54-1.74,1.31-3.81,2-5.95,2Zm-.03-17.32c-3.63,0-6.81,2.68-7.33,6.38-.57,4.04,2.26,7.8,6.3,8.36,1.96.28,3.91-.23,5.49-1.42,1.58-1.19,2.6-2.92,2.88-4.88h0c.27-1.96-.23-3.91-1.42-5.49-1.19-1.58-2.92-2.6-4.88-2.88-.35-.05-.69-.07-1.03-.07Zm8.58,8.61h0,0Z"
           id="path34" />
        <path
           class="cls-3"
           d="m147.8,174.85c-.46,0-.92-.03-1.39-.1-2.62-.37-4.94-1.74-6.54-3.85-1.59-2.12-2.27-4.72-1.9-7.35.76-5.41,5.78-9.2,11.2-8.44,2.62.37,4.94,1.74,6.54,3.85,1.59,2.11,2.27,4.72,1.9,7.35h0c-.7,4.95-4.95,8.54-9.81,8.54Zm-.01-17.32c-3.63,0-6.81,2.68-7.33,6.38-.28,1.96.23,3.91,1.42,5.49,1.19,1.58,2.92,2.6,4.88,2.88,4.04.57,7.8-2.26,8.36-6.3h0c.57-4.04-2.26-7.8-6.3-8.36-.35-.05-.69-.07-1.03-.07Zm8.58,8.61h0,0Z"
           id="path35" />
        <path
           id="Path_568-3"
           data-name="Path 568"
           class="cls-3"
           d="m322.92,142.88l-20.58-2.89c-1.42-.2-2.4-1.51-2.21-2.93l2.89-20.58c.21-1.42,1.52-2.4,2.93-2.21l20.58,2.89c1.42.2,2.4,1.51,2.21,2.93l-2.89,20.58c-.21,1.42-1.52,2.4-2.93,2.21" />
        <path
           class="cls-3"
           d="m323.28,143.53c-.15,0-.3-.01-.44-.03h0s-20.58-2.89-20.58-2.89c-1.75-.25-2.98-1.89-2.74-3.64l2.89-20.58c.25-1.75,1.88-2.98,3.64-2.74l20.58,2.89c1.75.25,2.98,1.89,2.74,3.64l-2.89,20.58c-.23,1.61-1.62,2.77-3.2,2.77Zm-.27-1.27c1.08.15,2.07-.6,2.23-1.68l2.89-20.58c.15-1.07-.6-2.07-1.68-2.23l-20.58-2.89c-1.07-.15-2.07.61-2.23,1.68l-2.89,20.58c-.15,1.07.6,2.07,1.68,2.23l20.58,2.89Z"
           id="path36" />
        <path
           id="Path_570-3"
           data-name="Path 570"
           class="cls-3"
           d="m164.52,120.62l-20.58-2.89c-1.42-.2-2.4-1.51-2.21-2.93l2.89-20.57c.2-1.42,1.51-2.4,2.93-2.21l20.58,2.89c1.42.2,2.4,1.51,2.21,2.93l-2.89,20.57c-.2,1.42-1.51,2.4-2.93,2.21" />
        <path
           class="cls-3"
           d="m164.87,121.27c-.15,0-.29,0-.44-.03,0,0,0,0,0,0l-20.58-2.89c-1.76-.25-2.98-1.89-2.74-3.64l2.89-20.58c.25-1.75,1.89-2.98,3.64-2.74l20.58,2.89c1.76.25,2.99,1.89,2.74,3.64l-2.89,20.57c-.23,1.61-1.62,2.78-3.2,2.78Zm-.27-1.27c1.06.15,2.07-.61,2.22-1.68l2.89-20.57c.15-1.07-.6-2.07-1.68-2.23l-20.58-2.89c-1.07-.15-2.07.61-2.22,1.68l-2.89,20.57c-.15,1.07.6,2.07,1.68,2.23l20.58,2.89Z"
           id="path37" />
        <path
           id="Path_572-3"
           data-name="Path 572"
           class="cls-4"
           d="m320.01,129.35c-.43,3.08-3.28,5.22-6.36,4.79-3.08-.43-5.22-3.28-4.79-6.36.43-3.08,3.28-5.22,6.36-4.79,0,0,0,0,0,0,3.08.44,5.22,3.28,4.79,6.36" />
        <path
           class="cls-4"
           d="m314.45,135.24c-.31,0-.63-.02-.95-.07-3.64-.51-6.19-3.9-5.68-7.54.51-3.64,3.9-6.19,7.54-5.68,3.64.52,6.19,3.9,5.68,7.54h0c-.25,1.77-1.17,3.33-2.59,4.4-1.17.88-2.56,1.34-4,1.34Zm-.02-11.26c-2.25,0-4.21,1.66-4.54,3.94-.35,2.5,1.4,4.82,3.9,5.18,1.21.17,2.42-.14,3.4-.88.98-.74,1.61-1.81,1.78-3.02.35-2.5-1.4-4.82-3.9-5.18-.22-.03-.43-.05-.64-.05Z"
           id="path38" />
        <path
           id="Path_574-3"
           data-name="Path 574"
           class="cls-4"
           d="m161.61,107.09c-.43,3.08-3.28,5.22-6.36,4.79-3.08-.43-5.22-3.28-4.79-6.36s3.28-5.22,6.36-4.79c0,0,0,0,0,0,3.08.44,5.22,3.28,4.79,6.36" />
        <path
           class="cls-4"
           d="m156.05,112.98c-.31,0-.63-.02-.94-.07-1.77-.25-3.33-1.17-4.4-2.59-1.07-1.42-1.53-3.18-1.28-4.95.51-3.64,3.9-6.19,7.54-5.68,3.65.52,6.19,3.9,5.68,7.54h0c-.25,1.77-1.17,3.33-2.59,4.4-1.17.88-2.56,1.34-4,1.34Zm-.02-11.26c-2.25,0-4.21,1.66-4.54,3.94-.17,1.21.14,2.42.88,3.4.74.98,1.81,1.61,3.02,1.78,1.21.17,2.42-.14,3.4-.88.98-.74,1.61-1.81,1.78-3.02.35-2.5-1.4-4.82-3.9-5.18-.22-.03-.43-.05-.64-.05Z"
           id="path39" />
        <path
           id="Path_576-3"
           data-name="Path 576"
           class="cls-3"
           d="m198.8,25.87l-65.76,49.22,6.49-46.19c.87-6.15,6.56-10.44,12.71-9.58l46.56,6.55Z" />
        <path
           id="Path_577-3"
           data-name="Path 577"
           class="cls-3"
           d="m226.21,29.84l-33.21,24.71,4.17-28.9,29.04,4.19Z" />
        <path
           id="Path_578-3"
           data-name="Path 578"
           class="cls-3"
           d="m238.92,31.57l-16.5,12.45,2.1-14.53,14.41,2.08Z" />
        <path
           id="Path_579-3"
           data-name="Path 579"
           class="cls-3"
           d="m250.88,61.99c1.15.14,2.19-.68,2.32-1.83.14-1.15-.68-2.19-1.83-2.32-1.13-.13-2.15.65-2.32,1.78-.15,1.16.66,2.22,1.82,2.38" />
        <path
           id="Path_580-3"
           data-name="Path 580"
           class="cls-3"
           d="m235.89,55.6c-1.15-.14-2.19.68-2.32,1.83-.14,1.15.68,2.19,1.83,2.32,1.13.13,2.16-.65,2.32-1.78.15-1.16-.66-2.22-1.82-2.38" />
        <path
           id="Path_581-3"
           data-name="Path 581"
           class="cls-3"
           d="m236.48,51.52c-3.38-.59-6.6,1.68-7.19,5.07-.59,3.38,1.68,6.6,5.07,7.19.12.02.23.04.35.05l15.77,2.28c3.39.57,6.6-1.71,7.17-5.1.57-3.39-1.71-6.6-5.1-7.17-.1-.02-.2-.03-.29-.04l-15.77-2.28Zm13.4,18.68l-15.77-2.28c-5.68-.68-9.74-5.84-9.05-11.53.68-5.68,5.84-9.74,11.53-9.05.16.02.32.04.49.07l15.77,2.28c5.69.67,9.75,5.83,9.08,11.51-.67,5.69-5.83,9.75-11.51,9.08-.18-.02-.35-.05-.53-.08" />
        <path
           id="Path_582-3"
           data-name="Path 582"
           class="cls-3"
           d="m211.38,83.24c-.17,1.18-1.26,2.01-2.45,1.84-1.18-.17-2.01-1.26-1.84-2.45.17-1.18,1.26-2.01,2.45-1.84h0c1.18.17,2.01,1.26,1.84,2.45" />
        <path
           id="Path_583-3"
           data-name="Path 583"
           class="cls-3"
           d="m226.51,85.36c-.17,1.18-1.26,2.01-2.45,1.84-1.18-.17-2.01-1.26-1.84-2.45.17-1.18,1.26-2.01,2.45-1.84h0c1.18.17,2.01,1.26,1.84,2.45" />
        <path
           id="Path_584-3"
           data-name="Path 584"
           class="cls-3"
           d="m241.63,87.49c-.17,1.18-1.26,2.01-2.45,1.84-1.18-.17-2.01-1.26-1.84-2.45.17-1.18,1.26-2.01,2.45-1.84,0,0,0,0,0,0,1.18.17,2.01,1.26,1.84,2.44h0" />
        <path
           id="Path_585-3"
           data-name="Path 585"
           class="cls-3"
           d="m256.76,89.61c-.17,1.18-1.26,2.01-2.45,1.84-1.18-.17-2.01-1.26-1.84-2.45.17-1.18,1.26-2.01,2.45-1.84,0,0,0,0,0,0,1.18.17,2.01,1.26,1.84,2.45" />
        <path
           id="Path_586-3"
           data-name="Path 586"
           class="cls-3"
           d="m271.89,91.74c-.17,1.18-1.26,2.01-2.44,1.84-1.18-.17-2.01-1.26-1.84-2.44.17-1.18,1.26-2.01,2.44-1.84,0,0,0,0,0,0,1.18.17,2.01,1.26,1.84,2.44" />
        <path
           id="Path_587-3"
           data-name="Path 587"
           class="cls-3"
           d="m209.26,98.36c-.17,1.18-1.26,2.01-2.45,1.84s-2.01-1.26-1.84-2.45c.17-1.18,1.26-2.01,2.45-1.84,0,0,0,0,0,0,1.18.17,2.01,1.26,1.84,2.44h0" />
        <path
           id="Path_588-3"
           data-name="Path 588"
           class="cls-3"
           d="m224.38,100.49c-.17,1.18-1.26,2.01-2.45,1.84-1.18-.17-2.01-1.26-1.84-2.45s1.26-2.01,2.45-1.84c0,0,0,0,0,0,1.18.17,2.01,1.26,1.84,2.44h0" />
        <path
           id="Path_589-3"
           data-name="Path 589"
           class="cls-3"
           d="m239.51,102.62c-.17,1.18-1.26,2.01-2.45,1.84-1.18-.17-2.01-1.26-1.84-2.45.17-1.18,1.26-2.01,2.45-1.84,0,0,0,0,0,0,1.18.17,2.01,1.26,1.84,2.45" />
        <path
           id="Path_590-3"
           data-name="Path 590"
           class="cls-3"
           d="m254.63,104.74c-.17,1.18-1.26,2.01-2.45,1.84-1.18-.17-2.01-1.26-1.84-2.45.17-1.18,1.26-2.01,2.45-1.84,0,0,0,0,0,0,1.18.17,2.01,1.26,1.84,2.45" />
        <path
           id="Path_591-3"
           data-name="Path 591"
           class="cls-3"
           d="m269.76,106.87c-.17,1.18-1.26,2.01-2.45,1.84-1.18-.17-2.01-1.26-1.84-2.45.17-1.18,1.26-2.01,2.45-1.84,0,0,0,0,0,0,1.18.17,2.01,1.26,1.84,2.44h0" />
        <path
           id="Path_592-3"
           data-name="Path 592"
           class="cls-3"
           d="m207.13,113.49c-.17,1.18-1.26,2.01-2.45,1.84-1.18-.17-2.01-1.26-1.84-2.45s1.26-2.01,2.45-1.84c0,0,0,0,0,0,1.18.17,2.01,1.26,1.84,2.45" />
        <path
           id="Path_593-3"
           data-name="Path 593"
           class="cls-3"
           d="m222.26,115.62c-.17,1.18-1.26,2.01-2.45,1.84-1.18-.17-2.01-1.26-1.84-2.45.17-1.18,1.26-2.01,2.45-1.84,0,0,0,0,0,0,1.18.17,2.01,1.26,1.84,2.45" />
        <path
           id="Path_594-3"
           data-name="Path 594"
           class="cls-3"
           d="m237.38,117.74c-.17,1.18-1.26,2.01-2.45,1.84-1.18-.17-2.01-1.26-1.84-2.45.17-1.18,1.26-2.01,2.45-1.84,0,0,0,0,0,0,1.18.17,2.01,1.26,1.84,2.45" />
        <path
           id="Path_595-3"
           data-name="Path 595"
           class="cls-3"
           d="m252.51,119.87c-.17,1.18-1.26,2.01-2.45,1.84-1.18-.17-2.01-1.26-1.84-2.45.17-1.18,1.26-2.01,2.45-1.84,0,0,0,0,0,0,1.18.17,2.01,1.26,1.84,2.45" />
        <path
           id="Path_596-3"
           data-name="Path 596"
           class="cls-3"
           d="m267.63,121.99c-.17,1.18-1.26,2.01-2.45,1.84-1.18-.17-2.01-1.26-1.84-2.45.17-1.18,1.26-2.01,2.45-1.84,0,0,0,0,0,0,1.18.17,2.01,1.26,1.84,2.45" />
        <path
           id="Path_597-3"
           data-name="Path 597"
           class="cls-3"
           d="m205,128.61c-.17,1.18-1.26,2.01-2.44,1.84-1.18-.17-2.01-1.26-1.84-2.44.17-1.18,1.26-2.01,2.44-1.84,0,0,0,0,0,0,1.18.17,2.01,1.26,1.84,2.44" />
        <path
           id="Path_598-3"
           data-name="Path 598"
           class="cls-3"
           d="m220.13,130.74c-.17,1.18-1.26,2.01-2.45,1.84-1.18-.17-2.01-1.26-1.84-2.45s1.26-2.01,2.45-1.84c0,0,0,0,0,0,1.18.17,2.01,1.26,1.84,2.45" />
        <path
           id="Path_599-3"
           data-name="Path 599"
           class="cls-3"
           d="m235.25,132.87c-.17,1.18-1.26,2.01-2.45,1.84-1.18-.17-2.01-1.26-1.84-2.45s1.26-2.01,2.45-1.84c0,0,0,0,0,0,1.18.17,2.01,1.26,1.84,2.45" />
        <path
           id="Path_600-3"
           data-name="Path 600"
           class="cls-3"
           d="m250.38,134.99c-.17,1.18-1.26,2.01-2.45,1.84-1.18-.17-2.01-1.26-1.84-2.45.17-1.18,1.26-2.01,2.45-1.84,0,0,0,0,0,0,1.18.17,2.01,1.26,1.84,2.45" />
        <path
           id="Path_601-3"
           data-name="Path 601"
           class="cls-3"
           d="m265.51,137.12c-.17,1.18-1.26,2.01-2.45,1.84-1.18-.17-2.01-1.26-1.84-2.45.17-1.18,1.26-2.01,2.45-1.84,0,0,0,0,0,0,1.18.17,2.01,1.26,1.84,2.45" />
        <path
           id="Path_602-3"
           data-name="Path 602"
           class="cls-3"
           d="m202.88,143.74c-.17,1.18-1.26,2.01-2.45,1.84-1.18-.17-2.01-1.26-1.84-2.45.17-1.18,1.26-2.01,2.45-1.84,0,0,0,0,0,0,1.18.17,2.01,1.26,1.84,2.44h0" />
        <path
           id="Path_603-3"
           data-name="Path 603"
           class="cls-3"
           d="m218,145.87c-.17,1.18-1.26,2.01-2.45,1.84-1.18-.17-2.01-1.26-1.84-2.45s1.26-2.01,2.45-1.84c0,0,0,0,0,0,1.18.17,2.01,1.26,1.84,2.45" />
        <path
           id="Path_604-3"
           data-name="Path 604"
           class="cls-3"
           d="m233.13,147.99c-.17,1.18-1.26,2.01-2.44,1.84-1.18-.17-2.01-1.26-1.84-2.44.17-1.18,1.26-2.01,2.44-1.84,0,0,0,0,0,0,1.18.17,2.01,1.26,1.84,2.44" />
        <path
           id="Path_605-3"
           data-name="Path 605"
           class="cls-3"
           d="m248.26,150.12c-.17,1.18-1.26,2.01-2.45,1.84-1.18-.17-2.01-1.26-1.84-2.45.17-1.18,1.26-2.01,2.45-1.84,0,0,0,0,0,0,1.18.17,2.01,1.26,1.84,2.45" />
        <path
           id="Path_606-3"
           data-name="Path 606"
           class="cls-3"
           d="m263.38,152.24c-.17,1.18-1.26,2.01-2.45,1.84-1.18-.17-2.01-1.26-1.84-2.45.17-1.18,1.26-2.01,2.45-1.84,0,0,0,0,0,0,1.18.17,2.01,1.26,1.84,2.45" />
      </g>
      <path
         id="Path_607"
         data-name="Path 607"
         class="cls-4"
         d="m342.06,197.63l-29.31-15.18c-5.38-2.78-7.48-9.4-4.69-14.78,2.03-3.91,6.83-5.43,10.74-3.41l33.7,17.46" />
      <path
         class="cls-3"
         d="m342.06,200.63c-.46,0-.94-.11-1.38-.34l-29.31-15.18c-6.84-3.54-9.52-11.98-5.98-18.82,2.78-5.37,9.42-7.47,14.78-4.7l33.71,17.46c1.47.76,2.05,2.57,1.28,4.04-.76,1.47-2.57,2.05-4.04,1.28l-33.7-17.46c-2.43-1.26-5.44-.3-6.7,2.13-2.02,3.9-.49,8.71,3.41,10.73l29.31,15.18c1.47.76,2.05,2.57,1.28,4.04-.53,1.03-1.58,1.62-2.67,1.62Z"
         id="path40" />
    </g>
  </g>
  <path
     class="cls-1"
     d="m 408.97038,82.4996 c 7.66,0 14.05,6.23 14.05,14.05 l 0.48,59.06 c 0,1.6 0.64,3.19 1.92,4.31 1.12,1.12 2.71,1.76 4.31,1.76 3.35,0 6.07,-2.71 6.07,-6.07 l -0.16,-18.84 c 0,-7.82 6.23,-14.05 13.89,-14.21 h 5.11 c 2.24,0 3.99,1.76 3.99,3.99 0,2.23 -1.76,3.99 -3.99,3.99 h -5.11 c -3.35,0 -6.06,2.71 -6.06,6.07 l 0.16,18.84 c 0,7.82 -6.23,14.05 -14.05,14.21 -3.67,0 -7.34,-1.44 -9.9,-3.99 -2.71,-2.56 -4.15,-6.07 -4.31,-9.9 l -0.48,-59.07 c 0,-3.35 -2.71,-6.06 -6.07,-6.06 -3.36,0 -6.07,2.71 -6.07,6.06 l 0.8,79.02 c 0,7.82 -6.23,14.05 -14.05,14.21 -7.82,0 -14.05,-6.23 -14.21,-14.05 l -0.48,-59.06 c 0,-3.35 -2.71,-6.07 -6.07,-6.07 -3.36,0 -5.91,2.71 -5.91,6.07 v 18.84 c 0,7.66 -6.22,14.05 -13.89,14.21 h -5.11 c -2.24,0 -3.99,-1.76 -3.99,-3.99 0,-2.23 1.76,-3.99 3.99,-3.99 h 5.11 c 3.35,0 6.07,-2.71 6.07,-6.06 v -18.68 c 0,-7.66 6.22,-14.05 13.89,-14.05 h 0.16 c 7.82,0 14.05,6.23 14.05,14.05 l 0.48,59.06 c 0,3.35 2.71,6.07 6.07,6.07 3.36,0 6.07,-2.71 6.07,-6.07 l -0.48,-79.18 c -0.32,-8.14 5.91,-14.53 13.73,-14.53"
     id="path2-5"
     style="opacity:1;fill:#007dbc;stroke-width:0px" />
</svg>
