<svg width="217" height="36" viewBox="0 0 217 36" fill="none" xmlns="http://www.w3.org/2000/svg">
<path id="app-name" data-name="app-name" d="M19.65 25.5L14 7.45L8.25 25.5H19.65ZM27.7 35H22.9L21.05 29.65H6.85L5.05 35H0.25L12.3 -2.38419e-06H15.6L27.7 35ZM31.8297 35V-2.38419e-06H36.5297V35H31.8297ZM77.2762 20.55H72.9262C72.7595 19.0833 72.1595 17.9 71.1262 17C70.1262 16.0667 68.7095 15.6 66.8762 15.6C64.4762 15.6 62.6595 16.3667 61.4262 17.9C60.1928 19.4333 59.5762 21.35 59.5762 23.65C59.5762 25.9833 60.1928 27.9 61.4262 29.4C62.6595 30.9 64.5095 31.65 66.9762 31.65C70.2095 31.65 72.2095 30.1667 72.9762 27.2H77.3262C76.9928 29.5667 75.9095 31.55 74.0762 33.15C72.2762 34.75 69.8595 35.55 66.8262 35.55C63.1262 35.55 60.2595 34.4 58.2262 32.1C56.2262 29.7667 55.2262 26.95 55.2262 23.65C55.2262 20.35 56.2262 17.5333 58.2262 15.2C60.2595 12.8667 63.1095 11.7 66.7762 11.7C69.9428 11.7 72.4262 12.5667 74.2262 14.3C76.0595 16 77.0762 18.0833 77.2762 20.55ZM97.491 12.3V16.3C96.7244 16.1333 96.0577 16.05 95.491 16.05C92.9243 16.05 90.991 16.85 89.691 18.45C88.4243 20.05 87.791 22.25 87.791 25.05V35H83.441V12.3H87.791V16.75C88.391 15.3167 89.391 14.1667 90.791 13.3C92.191 12.4 93.7243 11.95 95.391 11.95C96.2243 11.95 96.9243 12.0667 97.491 12.3ZM110.514 15.4C108.681 15.4 107.131 15.95 105.864 17.05C104.631 18.1167 103.998 19.6 103.964 21.5H116.964C116.964 19.6667 116.364 18.2 115.164 17.1C113.964 15.9667 112.414 15.4 110.514 15.4ZM120.964 24.8H103.914C103.914 26.8667 104.481 28.5667 105.614 29.9C106.748 31.2333 108.464 31.9 110.764 31.9C113.698 31.9 115.631 30.7 116.564 28.3H120.964C120.531 30.3333 119.414 32.05 117.614 33.45C115.814 34.85 113.531 35.55 110.764 35.55C107.164 35.55 104.381 34.4 102.414 32.1C100.448 29.7667 99.4645 26.9167 99.4645 23.55C99.4645 20.1167 100.464 17.2833 102.464 15.05C104.464 12.8167 107.114 11.7 110.414 11.7C113.548 11.7 116.114 12.6833 118.114 14.65C120.148 16.5833 121.164 19.0167 121.164 21.95C121.164 23.0167 121.098 23.9667 120.964 24.8ZM132.034 29.35C133.467 30.8833 135.317 31.65 137.584 31.65C139.851 31.65 141.684 30.8833 143.084 29.35C144.517 27.7833 145.234 25.8833 145.234 23.65C145.234 21.4167 144.517 19.5167 143.084 17.95C141.684 16.3833 139.851 15.6 137.584 15.6C135.317 15.6 133.467 16.3833 132.034 17.95C130.634 19.5167 129.934 21.4167 129.934 23.65C129.934 25.8833 130.634 27.7833 132.034 29.35ZM145.234 12.3H149.534V35H145.234V31.05C144.501 32.4167 143.417 33.5167 141.984 34.35C140.584 35.15 138.934 35.55 137.034 35.55C133.801 35.55 131.084 34.3833 128.884 32.05C126.717 29.7167 125.634 26.9167 125.634 23.65C125.634 20.3833 126.717 17.5833 128.884 15.25C131.084 12.8833 133.817 11.7 137.084 11.7C138.951 11.7 140.584 12.1167 141.984 12.95C143.417 13.75 144.501 14.8333 145.234 16.2V12.3ZM169.668 31.15V35C168.535 35.2 167.218 35.3 165.718 35.3C165.018 35.3 164.401 35.2667 163.868 35.2C163.368 35.1333 162.768 34.95 162.068 34.65C161.368 34.35 160.785 33.9333 160.318 33.4C159.851 32.8333 159.451 32.05 159.118 31.05C158.785 30.0167 158.618 28.7833 158.618 27.35V15.95H154.418V12.3H158.618V4.65H162.968V12.3H168.868V15.95H162.968V26.4C162.968 28.4333 163.268 29.7667 163.868 30.4C164.501 31.0333 165.451 31.35 166.718 31.35C167.818 31.35 168.801 31.2833 169.668 31.15ZM178.86 29.35C180.293 30.8833 182.143 31.65 184.41 31.65C186.677 31.65 188.51 30.8833 189.91 29.35C191.343 27.7833 192.06 25.8833 192.06 23.65C192.06 21.4167 191.343 19.5167 189.91 17.95C188.51 16.3833 186.677 15.6 184.41 15.6C182.143 15.6 180.293 16.3833 178.86 17.95C177.46 19.5167 176.76 21.4167 176.76 23.65C176.76 25.8833 177.46 27.7833 178.86 29.35ZM184.41 35.55C180.843 35.55 177.96 34.4 175.76 32.1C173.56 29.7667 172.46 26.95 172.46 23.65C172.46 20.3167 173.56 17.5 175.76 15.2C177.993 12.8667 180.877 11.7 184.41 11.7C187.91 11.7 190.777 12.8667 193.01 15.2C195.243 17.5333 196.36 20.35 196.36 23.65C196.36 26.95 195.243 29.7667 193.01 32.1C190.81 34.4 187.943 35.55 184.41 35.55ZM216.339 12.3V16.3C215.572 16.1333 214.905 16.05 214.339 16.05C211.772 16.05 209.839 16.85 208.539 18.45C207.272 20.05 206.639 22.25 206.639 25.05V35H202.289V12.3H206.639V16.75C207.239 15.3167 208.239 14.1667 209.639 13.3C211.039 12.4 212.572 11.95 214.239 11.95C215.072 11.95 215.772 12.0667 216.339 12.3Z"   fill="#fff"/>
</svg>
