<?xml version="1.0" encoding="UTF-8" standalone="no"?>
<svg
   id="Layer_1"
   data-name="Layer 1"
   viewBox="0 0 274.16003 230.59002"
   version="1.1"
   sodipodi:docname="Micro-bit Setup.svg"
   width="274.16003"
   height="230.59003"
   inkscape:version="1.3.2 (091e20e, 2023-11-25)"
   xmlns:inkscape="http://www.inkscape.org/namespaces/inkscape"
   xmlns:sodipodi="http://sodipodi.sourceforge.net/DTD/sodipodi-0.dtd"
   xmlns="http://www.w3.org/2000/svg"
   xmlns:svg="http://www.w3.org/2000/svg">
  <sodipodi:namedview
     id="namedview2"
     pagecolor="#ffffff"
     bordercolor="#000000"
     borderopacity="0.25"
     inkscape:showpageshadow="2"
     inkscape:pageopacity="0.0"
     inkscape:pagecheckerboard="0"
     inkscape:deskcolor="#d1d1d1"
     showgrid="false"
     inkscape:zoom="2.2218226"
     inkscape:cx="84.390175"
     inkscape:cy="115.22072"
     inkscape:window-width="1392"
     inkscape:window-height="1027"
     inkscape:window-x="0"
     inkscape:window-y="25"
     inkscape:window-maximized="0"
     inkscape:current-layer="Layer_1" />
  <defs
     id="defs1">
    <style
       id="style1">
      .cls-1 {
        stroke-width: 3px;
      }

      .cls-1, .cls-2, .cls-3, .cls-4, .cls-5, .cls-6, .cls-7, .cls-8 {
        fill: none;
      }

      .cls-1, .cls-3, .cls-4, .cls-5, .cls-6 {
        stroke-linecap: round;
      }

      .cls-1, .cls-3, .cls-4, .cls-6 {
        stroke: #000100;
      }

      .cls-1, .cls-7, .cls-8 {
        stroke-miterlimit: 10;
      }

      .cls-9 {
        clip-path: url(#clippath);
      }

      .cls-2, .cls-10, .cls-11, .cls-12, .cls-13, .cls-14 {
        stroke-width: 0px;
      }

      .cls-3 {
        stroke-width: 1.25px;
      }

      .cls-3, .cls-4, .cls-5, .cls-6 {
        stroke-linejoin: round;
      }

      .cls-4 {
        stroke-width: 2.51px;
      }

      .cls-5 {
        stroke: #00c800;
      }

      .cls-5, .cls-6 {
        stroke-width: 4.18px;
      }

      .cls-7 {
        stroke: #000;
        stroke-width: 4px;
      }

      .cls-8 {
        stroke: #fff;
        stroke-width: 2.09px;
      }

      .cls-11 {
        fill: #ccc;
      }

      .cls-12 {
        fill: #b3b3b3;
      }

      .cls-13 {
        fill: #fff;
      }

      .cls-14 {
        fill: #000100;
      }
    </style>
    <clipPath
       id="clippath">
      <rect
         class="cls-2"
         x="135.64999"
         y="129.58"
         width="28.360001"
         height="49.84"
         id="rect1" />
    </clipPath>
  </defs>
  <line
     id="Line_58"
     data-name="Line 58"
     class="cls-5"
     x1="122.82003"
     y1="74.93"
     x2="122.54003"
     y2="50.709999" />
  <path
     id="Path_747"
     data-name="Path 747"
     class="cls-5"
     d="m 135.33003,68.04 -12.45,11.09 -12.71,-10.8" />
  <path
     id="Path_756"
     data-name="Path 756"
     class="cls-10"
     d="m 127.42003,44.97 h -9.85 c -1.06,0 -1.91,-0.86 -1.91,-1.91 V 29.09 c 0,-1.06 0.86,-1.91 1.91,-1.91 h 9.85 c 1.06,0 1.91,0.86 1.91,1.91 v 13.97 c 0,1.06 -0.86,1.91 -1.91,1.91" />
  <path
     id="Path_757"
     data-name="Path 757"
     class="cls-10"
     d="m 70.090033,225.44 -0.33,-140.71 c 0,-2.76 -2.25,-5 -5.01,-4.99 0,0 0,0 0,0 L 4.9900334,79.88 c -2.76,0 -5.00000005,2.25 -4.990000047657,5.01 0,0 0,0 0,0 L 0.33003335,225.6 c 0,2.76 2.25000005,5 5.01000005,4.99 0,0 0,0 0,0 l 59.7599996,-0.14 c 2.76,0 5,-2.25 4.99,-5.01 0,0 0,0 0,0" />
  <g
     class="cls-9"
     clip-path="url(#clippath)"
     id="g2"
     transform="translate(-115.17997)">
    <g
       id="Group_117-2"
       data-name="Group 117-2">
      <path
         id="Path_758"
         data-name="Path 758"
         class="cls-13"
         d="m 163.88,151.8 -18.19,27.4 c -0.15,0.22 -0.44,0.28 -0.66,0.13 -0.16,-0.11 -0.24,-0.3 -0.2,-0.49 l 4.05,-19.87 c 0.05,-0.26 -0.11,-0.51 -0.37,-0.56 -0.03,0 -0.06,-0.01 -0.1,-0.01 l -11.98,0.03 c -0.44,0 -0.8,-0.37 -0.79,-0.81 0,-0.15 0.05,-0.3 0.13,-0.43 l 18.19,-27.4 c 0.15,-0.22 0.44,-0.28 0.66,-0.13 0.16,0.11 0.24,0.3 0.2,0.49 l -4.05,19.86 c -0.05,0.26 0.11,0.51 0.37,0.56 0.03,0 0.06,0.01 0.1,0.01 l 11.98,-0.03 c 0.44,0 0.8,0.37 0.79,0.81 0,0.15 -0.05,0.3 -0.13,0.43" />
    </g>
  </g>
  <path
     id="Path_759"
     data-name="Path 759"
     class="cls-7"
     d="m 122.50003,36.08 v -2.46 c 0,-17.46 -14.16,-31.62 -31.619997,-31.62 0,0 0,0 0,0 h -22.15 c -17.46,0 -31.62,14.16 -31.62,31.62 v 50.37" />
  <path
     id="Path_760"
     data-name="Path 760"
     class="cls-13"
     d="m 260.19003,87.41 h -151.89 c -6.55,0 -11.849997,5.31 -11.849997,11.86 v 116.77 c 0,6.55 5.309997,11.86 11.849997,11.86 h 5.17 c 2.09,-3.26 6.43,-4.2 9.69,-2.11 0.85,0.54 1.56,1.26 2.11,2.11 h 20.64 c 2.09,-3.26 6.43,-4.2 9.69,-2.11 0.85,0.54 1.56,1.26 2.11,2.11 h 20.64 c 2.09,-3.26 6.43,-4.2 9.69,-2.11 0.85,0.54 1.56,1.26 2.11,2.11 h 20.65 c 2.09,-3.26 6.43,-4.2 9.69,-2.11 0.85,0.54 1.57,1.26 2.11,2.11 h 20.64 c 2.09,-3.26 6.43,-4.2 9.69,-2.11 0.85,0.54 1.57,1.26 2.11,2.11 h 5.17 c 6.55,0 11.86,-5.31 11.86,-11.85 v 0 -116.77 c 0,-6.55 -5.31,-11.86 -11.86,-11.86 v 0" />
  <path
     id="Path_761"
     data-name="Path 761"
     class="cls-6"
     d="m 260.19003,87.41 h -151.89 c -6.55,0 -11.849997,5.31 -11.849997,11.86 v 116.77 c 0,6.55 5.309997,11.86 11.849997,11.86 h 5.17 c 2.09,-3.26 6.43,-4.2 9.69,-2.11 0.85,0.54 1.56,1.26 2.11,2.11 h 20.64 c 2.09,-3.26 6.43,-4.2 9.69,-2.11 0.85,0.54 1.56,1.26 2.11,2.11 h 20.64 c 2.09,-3.26 6.43,-4.2 9.69,-2.11 0.85,0.54 1.56,1.26 2.11,2.11 h 20.65 c 2.09,-3.26 6.43,-4.2 9.69,-2.11 0.85,0.54 1.57,1.26 2.11,2.11 h 20.64 c 2.09,-3.26 6.43,-4.2 9.69,-2.11 0.85,0.54 1.57,1.26 2.11,2.11 h 5.17 c 6.55,0 11.86,-5.31 11.86,-11.85 v 0 -116.77 c 0,-6.55 -5.31,-11.85 -11.85,-11.85 z" />
  <path
     id="Path_762"
     data-name="Path 762"
     class="cls-4"
     d="m 256.14003,205.68 c 0,3.88 -3.15,7.02 -7.03,7.02 -3.88,0 -7.02,-3.15 -7.02,-7.03 0,-3.88 3.15,-7.02 7.02,-7.02 3.87,0 7.02,3.14 7.02,7.02 v 0 z" />
  <path
     id="Path_763"
     data-name="Path 763"
     class="cls-4"
     d="m 223.71003,205.68 c 0,3.88 -3.15,7.02 -7.03,7.02 -3.88,0 -7.02,-3.15 -7.02,-7.03 0,-3.88 3.15,-7.02 7.03,-7.02 3.88,0 7.02,3.15 7.02,7.02 v 0 z" />
  <path
     id="Path_764"
     data-name="Path 764"
     class="cls-4"
     d="m 191.27003,205.68 c 0,3.88 -3.15,7.02 -7.03,7.02 -3.88,0 -7.02,-3.15 -7.02,-7.03 0,-3.88 3.15,-7.02 7.02,-7.02 3.88,0 7.02,3.14 7.02,7.02 v 0 z" />
  <path
     id="Path_765"
     data-name="Path 765"
     class="cls-4"
     d="m 158.83003,205.68 c 0,3.88 -3.15,7.02 -7.03,7.02 -3.88,0 -7.02,-3.15 -7.02,-7.03 0,-3.88 3.15,-7.02 7.02,-7.02 3.88,0 7.02,3.14 7.02,7.02 v 0 z" />
  <path
     id="Path_766"
     data-name="Path 766"
     class="cls-4"
     d="m 126.39003,205.68 c 0,3.88 -3.15,7.02 -7.03,7.02 -3.88,0 -7.02,-3.15 -7.02,-7.03 0,-3.88 3.15,-7.02 7.02,-7.02 3.87,0 7.02,3.14 7.02,7.02 v 0 z" />
  <path
     id="Path_767"
     data-name="Path 767"
     class="cls-14"
     d="m 257.55003,168.19 h -16.86 c -1.16,0 -2.1,-0.94 -2.11,-2.11 v -16.86 c 0,-1.16 0.95,-2.1 2.11,-2.11 h 16.86 c 1.16,0 2.1,0.94 2.11,2.11 v 16.86 c 0,1.16 -0.95,2.1 -2.11,2.11" />
  <path
     id="Rectangle_155"
     data-name="Rectangle 155"
     class="cls-3"
     d="m 240.69003,147.12 h 16.86 c 1.16,0 2.11,0.94 2.11,2.11 v 16.86 c 0,1.16 -0.94,2.11 -2.11,2.11 h -16.86 c -1.16,0 -2.11,-0.94 -2.11,-2.11 v 0 -16.86 c 0,-1.16 0.94,-2.11 2.11,-2.11 z" />
  <path
     id="Path_768"
     data-name="Path 768"
     class="cls-14"
     d="m 127.80003,168.19 h -16.86 c -1.16,0 -2.1,-0.94 -2.11,-2.11 v -16.86 c 0,-1.16 0.95,-2.1 2.11,-2.11 h 16.86 c 1.16,0 2.1,0.95 2.11,2.11 v 16.86 c 0,1.16 -0.94,2.1 -2.11,2.11" />
  <path
     id="Rectangle_156"
     data-name="Rectangle 156"
     class="cls-3"
     d="m 110.94003,147.12 h 16.86 c 1.16,0 2.11,0.94 2.11,2.11 v 16.86 c 0,1.16 -0.94,2.11 -2.11,2.11 h -16.86 c -1.16,0 -2.11,-0.94 -2.11,-2.11 v 0 -16.86 c 0,-1.16 0.94,-2.11 2.11,-2.11 z" />
  <path
     id="Path_769"
     data-name="Path 769"
     class="cls-13"
     d="m 253.68003,157.65 c 0,2.52 -2.04,4.57 -4.57,4.57 -2.52,0 -4.57,-2.04 -4.57,-4.57 0,-2.52 2.04,-4.57 4.57,-4.57 v 0 c 2.52,0 4.57,2.04 4.57,4.57 v 0" />
  <path
     id="Path_770"
     data-name="Path 770"
     class="cls-8"
     d="m 253.68003,157.65 c 0,2.52 -2.04,4.57 -4.57,4.57 -2.52,0 -4.57,-2.04 -4.57,-4.57 0,-2.52 2.04,-4.57 4.57,-4.57 v 0 c 2.52,0 4.57,2.04 4.57,4.57 z" />
  <path
     id="Path_771"
     data-name="Path 771"
     class="cls-13"
     d="m 123.94003,157.65 c 0,2.52 -2.04,4.57 -4.57,4.57 -2.53,0 -4.57,-2.04 -4.57,-4.57 0,-2.53 2.04,-4.57 4.57,-4.57 2.53,0 4.57,2.04 4.57,4.57 v 0" />
  <path
     id="Path_772"
     data-name="Path 772"
     class="cls-8"
     d="m 123.94003,157.65 c 0,2.52 -2.04,4.57 -4.57,4.57 -2.53,0 -4.57,-2.04 -4.57,-4.57 0,-2.53 2.04,-4.57 4.57,-4.57 2.53,0 4.57,2.04 4.57,4.57 z" />
  <path
     id="Path_773"
     data-name="Path 773"
     class="cls-14"
     d="M 144.64003,88.22 97.370033,135.18 V 97.35 c 0,-5.04 4.089997,-9.13 9.129997,-9.13 z" />
  <path
     id="Path_774"
     data-name="Path 774"
     class="cls-14"
     d="m 167.11003,88.31 -23.89,23.6 0.09,-23.68 z" />
  <path
     id="Path_775"
     data-name="Path 775"
     class="cls-14"
     d="m 177.50003,88.26 -11.85,11.86 0.05,-11.91 11.81,0.04 z" />
  <path
     id="Path_776"
     data-name="Path 776"
     class="cls-14"
     d="m 190.55003,111.35 c 0.94,-0.02 1.69,-0.79 1.67,-1.73 -0.02,-0.94 -0.79,-1.69 -1.73,-1.67 -0.93,0.02 -1.67,0.77 -1.67,1.7 0,0.95 0.78,1.71 1.73,1.7" />
  <path
     id="Path_777"
     data-name="Path 777"
     class="cls-14"
     d="m 177.78003,107.91 c -0.94,0.02 -1.69,0.79 -1.67,1.73 0.02,0.94 0.79,1.69 1.73,1.67 0.93,-0.02 1.67,-0.77 1.67,-1.7 -0.01,-0.95 -0.79,-1.71 -1.73,-1.7" />
  <path
     id="Path_778"
     data-name="Path 778"
     class="cls-14"
     d="m 177.80003,104.56 c -2.79,-0.05 -5.08,2.17 -5.13,4.96 -0.05,2.79 2.17,5.08 4.96,5.13 0.05,0 0.09,0 0.14,0 l 12.92,0.05 c 2.79,0.08 5.11,-2.12 5.18,-4.9 0.07,-2.78 -2.12,-5.11 -4.9,-5.18 -0.08,0 -0.16,0 -0.24,0 l -12.92,-0.05 z m 12.87,13.5 -12.92,-0.05 c -4.64,0.09 -8.48,-3.59 -8.58,-8.23 -0.09,-4.64 3.59,-8.48 8.23,-8.58 0.14,0 0.27,0 0.41,0 l 12.92,0.05 c 4.64,-0.11 8.49,3.57 8.6,8.21 0.11,4.64 -3.57,8.49 -8.21,8.6 -0.15,0 -0.3,0 -0.44,0" />
  <path
     id="Path_779"
     data-name="Path 779"
     class="cls-14"
     d="m 161.22003,132.87 c 0,0.97 -0.79,1.76 -1.76,1.76 -0.97,0 -1.76,-0.79 -1.76,-1.76 0,-0.97 0.79,-1.76 1.76,-1.76 v 0 c 0.97,0 1.76,0.79 1.76,1.76 v 0" />
  <path
     id="Path_780"
     data-name="Path 780"
     class="cls-14"
     d="m 173.61003,132.87 c 0,0.97 -0.79,1.76 -1.76,1.76 -0.97,0 -1.76,-0.79 -1.76,-1.76 0,-0.97 0.79,-1.76 1.76,-1.76 v 0 c 0.97,0 1.76,0.79 1.76,1.76 v 0" />
  <path
     id="Path_781"
     data-name="Path 781"
     class="cls-14"
     d="m 186.00003,132.87 c 0,0.97 -0.79,1.76 -1.76,1.76 -0.97,0 -1.76,-0.79 -1.76,-1.76 0,-0.97 0.79,-1.76 1.76,-1.76 v 0 c 0.97,0 1.76,0.79 1.76,1.76 v 0" />
  <path
     id="Path_782"
     data-name="Path 782"
     class="cls-14"
     d="m 198.39003,132.87 c 0,0.97 -0.79,1.76 -1.76,1.76 -0.97,0 -1.76,-0.79 -1.76,-1.76 0,-0.97 0.79,-1.76 1.76,-1.76 0.97,0 1.76,0.79 1.76,1.76 v 0" />
  <path
     id="Path_783"
     data-name="Path 783"
     class="cls-14"
     d="m 210.78003,132.87 c 0,0.97 -0.79,1.76 -1.76,1.76 -0.97,0 -1.76,-0.79 -1.76,-1.76 0,-0.97 0.79,-1.76 1.76,-1.76 0.97,0 1.76,0.79 1.76,1.76 v 0" />
  <path
     id="Path_784"
     data-name="Path 784"
     class="cls-14"
     d="m 161.22003,145.26 c 0,0.97 -0.79,1.76 -1.76,1.76 -0.97,0 -1.76,-0.79 -1.76,-1.76 0,-0.97 0.79,-1.76 1.76,-1.76 v 0 c 0.97,0 1.76,0.79 1.76,1.76 v 0" />
  <path
     id="Path_785"
     data-name="Path 785"
     class="cls-14"
     d="m 173.61003,145.26 c 0,0.97 -0.79,1.76 -1.76,1.76 -0.97,0 -1.76,-0.79 -1.76,-1.76 0,-0.97 0.79,-1.76 1.76,-1.76 v 0 c 0.97,0 1.76,0.79 1.76,1.76 v 0" />
  <path
     id="Path_786"
     data-name="Path 786"
     class="cls-14"
     d="m 186.00003,145.26 c 0,0.97 -0.79,1.76 -1.76,1.76 -0.97,0 -1.76,-0.79 -1.76,-1.76 0,-0.97 0.79,-1.76 1.76,-1.76 v 0 c 0.97,0 1.76,0.79 1.76,1.76 v 0" />
  <path
     id="Path_787"
     data-name="Path 787"
     class="cls-14"
     d="m 198.39003,145.26 c 0,0.97 -0.79,1.76 -1.76,1.76 -0.97,0 -1.76,-0.79 -1.76,-1.76 0,-0.97 0.79,-1.76 1.76,-1.76 0.97,0 1.76,0.79 1.76,1.76 v 0" />
  <path
     id="Path_788"
     data-name="Path 788"
     class="cls-14"
     d="m 210.78003,145.26 c 0,0.97 -0.79,1.76 -1.76,1.76 -0.97,0 -1.76,-0.79 -1.76,-1.76 0,-0.97 0.79,-1.76 1.76,-1.76 0.97,0 1.76,0.79 1.76,1.76 v 0" />
  <path
     id="Path_789"
     data-name="Path 789"
     class="cls-14"
     d="m 161.22003,157.65 c 0,0.97 -0.79,1.76 -1.76,1.76 -0.97,0 -1.76,-0.79 -1.76,-1.76 0,-0.97 0.79,-1.76 1.76,-1.76 v 0 c 0.97,0 1.76,0.79 1.76,1.76" />
  <path
     id="Path_790"
     data-name="Path 790"
     class="cls-14"
     d="m 173.61003,157.65 c 0,0.97 -0.79,1.76 -1.76,1.76 -0.97,0 -1.76,-0.79 -1.76,-1.76 0,-0.97 0.79,-1.76 1.76,-1.76 v 0 c 0.97,0 1.76,0.79 1.76,1.76" />
  <path
     id="Path_791"
     data-name="Path 791"
     class="cls-14"
     d="m 186.00003,157.65 c 0,0.97 -0.79,1.76 -1.76,1.76 -0.97,0 -1.76,-0.79 -1.76,-1.76 0,-0.97 0.79,-1.76 1.76,-1.76 v 0 c 0.97,0 1.76,0.79 1.76,1.76" />
  <path
     id="Path_792"
     data-name="Path 792"
     class="cls-14"
     d="m 198.39003,157.65 c 0,0.97 -0.79,1.76 -1.76,1.76 -0.97,0 -1.76,-0.79 -1.76,-1.76 0,-0.97 0.79,-1.76 1.76,-1.76 0.97,0 1.76,0.79 1.76,1.76" />
  <path
     id="Path_793"
     data-name="Path 793"
     class="cls-14"
     d="m 210.78003,157.65 c 0,0.97 -0.79,1.76 -1.76,1.76 -0.97,0 -1.76,-0.79 -1.76,-1.76 0,-0.97 0.79,-1.76 1.76,-1.76 0.97,0 1.76,0.79 1.76,1.76" />
  <path
     id="Path_794"
     data-name="Path 794"
     class="cls-14"
     d="m 161.22003,170.04 c 0,0.97 -0.79,1.76 -1.76,1.76 -0.97,0 -1.76,-0.79 -1.76,-1.76 0,-0.97 0.79,-1.76 1.76,-1.76 v 0 c 0.97,0 1.76,0.79 1.76,1.76 v 0" />
  <path
     id="Path_795"
     data-name="Path 795"
     class="cls-14"
     d="m 173.61003,170.04 c 0,0.97 -0.79,1.76 -1.76,1.76 -0.97,0 -1.76,-0.79 -1.76,-1.76 0,-0.97 0.79,-1.76 1.76,-1.76 v 0 c 0.97,0 1.76,0.79 1.76,1.76 v 0" />
  <path
     id="Path_796"
     data-name="Path 796"
     class="cls-14"
     d="m 186.00003,170.04 c 0,0.97 -0.79,1.76 -1.76,1.76 -0.97,0 -1.76,-0.79 -1.76,-1.76 0,-0.97 0.79,-1.76 1.76,-1.76 v 0 c 0.97,0 1.76,0.79 1.76,1.76 v 0" />
  <path
     id="Path_797"
     data-name="Path 797"
     class="cls-14"
     d="m 198.39003,170.04 c 0,0.97 -0.79,1.76 -1.76,1.76 -0.97,0 -1.76,-0.79 -1.76,-1.76 0,-0.97 0.79,-1.76 1.76,-1.76 0.97,0 1.76,0.79 1.76,1.76 v 0" />
  <path
     id="Path_798"
     data-name="Path 798"
     class="cls-14"
     d="m 210.78003,170.04 c 0,0.97 -0.79,1.76 -1.76,1.76 -0.97,0 -1.76,-0.79 -1.76,-1.76 0,-0.97 0.79,-1.76 1.76,-1.76 0.97,0 1.76,0.79 1.76,1.76 v 0" />
  <path
     id="Path_799"
     data-name="Path 799"
     class="cls-14"
     d="m 161.22003,182.43 c 0,0.97 -0.79,1.76 -1.76,1.76 -0.97,0 -1.76,-0.79 -1.76,-1.76 0,-0.97 0.79,-1.76 1.76,-1.76 v 0 c 0.97,0 1.76,0.79 1.76,1.76 v 0" />
  <path
     id="Path_800"
     data-name="Path 800"
     class="cls-14"
     d="m 173.61003,182.43 c 0,0.97 -0.79,1.76 -1.76,1.76 -0.97,0 -1.76,-0.79 -1.76,-1.76 0,-0.97 0.79,-1.76 1.76,-1.76 v 0 c 0.97,0 1.76,0.79 1.76,1.76 v 0" />
  <path
     id="Path_801"
     data-name="Path 801"
     class="cls-14"
     d="m 186.00003,182.43 c 0,0.97 -0.79,1.76 -1.76,1.76 -0.97,0 -1.76,-0.79 -1.76,-1.76 0,-0.97 0.79,-1.76 1.76,-1.76 v 0 c 0.97,0 1.76,0.79 1.76,1.76 v 0" />
  <path
     id="Path_802"
     data-name="Path 802"
     class="cls-14"
     d="m 198.39003,182.43 c 0,0.97 -0.79,1.76 -1.76,1.75 -0.97,0 -1.76,-0.79 -1.76,-1.76 0,-0.97 0.79,-1.75 1.76,-1.75 0.97,0 1.76,0.79 1.76,1.76 v 0" />
  <path
     id="Path_803"
     data-name="Path 803"
     class="cls-14"
     d="m 210.78003,182.43 c 0,0.97 -0.79,1.76 -1.76,1.75 -0.97,0 -1.76,-0.79 -1.76,-1.76 0,-0.97 0.79,-1.75 1.76,-1.75 0.97,0 1.76,0.79 1.76,1.76 v 0" />
</svg>
