<svg width="301" height="278" viewBox="0 0 301 278" fill="none" xmlns="http://www.w3.org/2000/svg">
<path d="M263.849 30.3949C264.791 29.4532 264.791 27.957 263.825 26.9913C262.86 26.0256 261.387 26.0501 260.446 26.9913C259.504 27.9325 259.48 29.4532 260.421 30.3944C261.363 31.3357 262.908 31.3357 263.849 30.3944" fill="#A6C8DB"/>
<path d="M263.849 30.3949C264.791 29.4532 264.791 27.957 263.825 26.9913C262.86 26.0256 261.387 26.0501 260.446 26.9913C259.504 27.9325 259.48 29.4532 260.421 30.3944C261.363 31.3357 262.908 31.3357 263.849 30.3944" fill="#A6C8DB"/>
<path d="M263.849 30.3949C264.791 29.4532 264.791 27.957 263.825 26.9913C262.86 26.0256 261.387 26.0501 260.446 26.9913C259.504 27.9325 259.48 29.4532 260.421 30.3944C261.363 31.3357 262.908 31.3357 263.849 30.3944" fill="#A6C8DB"/>
<path d="M268.909 35.4544C269.851 34.5127 269.851 33.0165 268.885 32.0508C267.919 31.0852 266.446 31.1092 265.505 32.0504C264.564 32.9916 264.54 34.5132 265.482 35.4544C266.423 36.3957 267.968 36.3957 268.909 35.4544Z" fill="#A6C8DB"/>
<path d="M268.909 35.4544C269.851 34.5127 269.851 33.0165 268.885 32.0508C267.919 31.0852 266.446 31.1092 265.505 32.0504C264.564 32.9916 264.54 34.5132 265.482 35.4544C266.423 36.3957 267.968 36.3957 268.909 35.4544Z" fill="#A6C8DB"/>
<path d="M268.909 35.4544C269.851 34.5127 269.851 33.0165 268.885 32.0508C267.919 31.0852 266.446 31.1092 265.505 32.0504C264.564 32.9916 264.54 34.5132 265.482 35.4544C266.423 36.3957 267.968 36.3957 268.909 35.4544Z" fill="#A6C8DB"/>
<path d="M273.969 40.515C274.911 39.5733 274.911 38.0771 273.945 37.1114C272.979 36.1457 271.506 36.1697 270.565 37.1109C269.624 38.0522 269.6 39.5737 270.542 40.515C271.483 41.4562 273.028 41.4562 273.969 40.515Z" fill="#A6C8DB"/>
<path d="M273.969 40.515C274.911 39.5733 274.911 38.0771 273.945 37.1114C272.979 36.1457 271.506 36.1697 270.565 37.1109C269.624 38.0522 269.6 39.5737 270.542 40.515C271.483 41.4562 273.028 41.4562 273.969 40.515Z" fill="#A6C8DB"/>
<path d="M273.969 40.515C274.911 39.5733 274.911 38.0771 273.945 37.1114C272.979 36.1457 271.506 36.1697 270.565 37.1109C269.624 38.0522 269.6 39.5737 270.542 40.515C271.483 41.4562 273.028 41.4562 273.969 40.515Z" fill="#A6C8DB"/>
<path d="M279.029 45.575C279.971 44.6333 279.971 43.1371 279.005 42.1715C278.04 41.2058 276.566 41.2298 275.625 42.171C274.684 43.1122 274.66 44.6338 275.602 45.575C276.543 46.5163 278.088 46.5163 279.029 45.575Z" fill="#A6C8DB"/>
<path d="M279.029 45.575C279.971 44.6333 279.971 43.1371 279.005 42.1715C278.04 41.2058 276.566 41.2298 275.625 42.171C274.684 43.1122 274.66 44.6338 275.602 45.575C276.543 46.5163 278.088 46.5163 279.029 45.575Z" fill="#A6C8DB"/>
<path d="M279.029 45.575C279.971 44.6333 279.971 43.1371 279.005 42.1715C278.04 41.2058 276.566 41.2298 275.625 42.171C274.684 43.1122 274.66 44.6338 275.602 45.575C276.543 46.5163 278.088 46.5163 279.029 45.575Z" fill="#A6C8DB"/>
<path d="M279.029 35.4544C279.971 34.5127 279.971 33.0165 279.005 32.0509C278.04 31.0852 276.567 31.1092 275.625 32.0504C274.684 32.9916 274.66 34.5127 275.602 35.4544C276.544 36.3961 278.088 36.3957 279.029 35.4544Z" fill="#A6C8DB"/>
<path d="M279.029 35.4544C279.971 34.5127 279.971 33.0165 279.005 32.0509C278.04 31.0852 276.567 31.1092 275.625 32.0504C274.684 32.9916 274.66 34.5127 275.602 35.4544C276.544 36.3961 278.088 36.3957 279.029 35.4544Z" fill="#A6C8DB"/>
<path d="M279.029 35.4544C279.971 34.5127 279.971 33.0165 279.005 32.0509C278.04 31.0852 276.567 31.1092 275.625 32.0504C274.684 32.9916 274.66 34.5127 275.602 35.4544C276.544 36.3961 278.088 36.3957 279.029 35.4544Z" fill="#A6C8DB"/>
<path d="M284.089 40.515C285.031 39.5733 285.031 38.0771 284.066 37.1114C283.1 36.1457 281.627 36.1697 280.685 37.1109C279.744 38.0522 279.72 39.5733 280.662 40.515C281.604 41.4567 283.148 41.4562 284.089 40.515Z" fill="#A6C8DB"/>
<path d="M284.089 40.515C285.031 39.5733 285.031 38.0771 284.066 37.1114C283.1 36.1457 281.627 36.1697 280.685 37.1109C279.744 38.0522 279.72 39.5733 280.662 40.515C281.604 41.4567 283.148 41.4562 284.089 40.515Z" fill="#A6C8DB"/>
<path d="M284.089 40.515C285.031 39.5733 285.031 38.0771 284.066 37.1114C283.1 36.1457 281.627 36.1697 280.685 37.1109C279.744 38.0522 279.72 39.5733 280.662 40.515C281.604 41.4567 283.148 41.4562 284.089 40.515Z" fill="#A6C8DB"/>
<path d="M279.029 25.3343C279.971 24.3926 279.971 22.8964 279.005 21.9307C278.04 20.9651 276.566 20.989 275.625 21.9303C274.684 22.8715 274.66 24.3926 275.602 25.3343C276.543 26.276 278.088 26.2755 279.029 25.3343Z" fill="#A6C8DB"/>
<path d="M279.029 25.3343C279.971 24.3926 279.971 22.8964 279.005 21.9307C278.04 20.9651 276.566 20.989 275.625 21.9303C274.684 22.8715 274.66 24.3926 275.602 25.3343C276.543 26.276 278.088 26.2755 279.029 25.3343Z" fill="#A6C8DB"/>
<path d="M279.029 25.3343C279.971 24.3926 279.971 22.8964 279.005 21.9307C278.04 20.9651 276.566 20.989 275.625 21.9303C274.684 22.8715 274.66 24.3926 275.602 25.3343C276.543 26.276 278.088 26.2755 279.029 25.3343Z" fill="#A6C8DB"/>
<path d="M289.15 35.4544C290.091 34.5127 290.091 33.0165 289.126 32.0509C288.16 31.0852 286.687 31.1092 285.746 32.0504C284.804 32.9916 284.78 34.5127 285.722 35.4544C286.664 36.3961 288.208 36.3957 289.15 35.4544Z" fill="#A6C8DB"/>
<path d="M289.15 35.4544C290.091 34.5127 290.091 33.0165 289.126 32.0509C288.16 31.0852 286.687 31.1092 285.746 32.0504C284.804 32.9916 284.78 34.5127 285.722 35.4544C286.664 36.3961 288.208 36.3957 289.15 35.4544Z" fill="#A6C8DB"/>
<path d="M289.15 35.4544C290.091 34.5127 290.091 33.0165 289.126 32.0509C288.16 31.0852 286.687 31.1092 285.746 32.0504C284.804 32.9916 284.78 34.5127 285.722 35.4544C286.664 36.3961 288.208 36.3957 289.15 35.4544Z" fill="#A6C8DB"/>
<path d="M279.03 15.2147C279.972 14.273 279.972 12.7768 279.006 11.8111C278.04 10.8455 276.568 10.8699 275.626 11.8111C274.685 12.7524 274.661 14.2735 275.602 15.2147C276.544 16.1559 278.089 16.1559 279.03 15.2147Z" fill="#A6C8DB"/>
<path d="M279.03 15.2147C279.972 14.273 279.972 12.7768 279.006 11.8111C278.04 10.8455 276.568 10.8699 275.626 11.8111C274.685 12.7524 274.661 14.2735 275.602 15.2147C276.544 16.1559 278.089 16.1559 279.03 15.2147Z" fill="#A6C8DB"/>
<path d="M279.03 15.2147C279.972 14.273 279.972 12.7768 279.006 11.8111C278.04 10.8455 276.568 10.8699 275.626 11.8111C274.685 12.7524 274.661 14.2735 275.602 15.2147C276.544 16.1559 278.089 16.1559 279.03 15.2147Z" fill="#A6C8DB"/>
<path d="M294.21 30.3949C295.152 29.4532 295.152 27.9569 294.186 26.9913C293.22 26.0256 291.747 26.0496 290.806 26.9908C289.865 27.9321 289.841 29.4532 290.782 30.3949C291.724 31.3366 293.269 31.3361 294.21 30.3949Z" fill="#A6C8DB"/>
<path d="M294.21 30.3949C295.152 29.4532 295.152 27.9569 294.186 26.9913C293.22 26.0256 291.747 26.0496 290.806 26.9908C289.865 27.9321 289.841 29.4532 290.782 30.3949C291.724 31.3366 293.269 31.3361 294.21 30.3949Z" fill="#A6C8DB"/>
<path d="M294.21 30.3949C295.152 29.4532 295.152 27.9569 294.186 26.9913C293.22 26.0256 291.747 26.0496 290.806 26.9908C289.865 27.9321 289.841 29.4532 290.782 30.3949C291.724 31.3366 293.269 31.3361 294.21 30.3949Z" fill="#A6C8DB"/>
<path d="M279.03 5.09407C279.971 4.15284 279.972 2.65616 279.006 1.6905C278.04 0.72483 276.568 0.748339 275.626 1.69004C274.684 2.63174 274.661 4.15237 275.602 5.09407C276.544 6.03577 278.089 6.03531 279.03 5.09407Z" fill="#A6C8DB"/>
<path d="M279.03 5.09407C279.971 4.15284 279.972 2.65616 279.006 1.6905C278.04 0.72483 276.568 0.748339 275.626 1.69004C274.684 2.63174 274.661 4.15237 275.602 5.09407C276.544 6.03577 278.089 6.03531 279.03 5.09407Z" fill="#A6C8DB"/>
<path d="M279.03 5.09407C279.971 4.15284 279.972 2.65616 279.006 1.6905C278.04 0.72483 276.568 0.748339 275.626 1.69004C274.684 2.63174 274.661 4.15237 275.602 5.09407C276.544 6.03577 278.089 6.03531 279.03 5.09407Z" fill="#A6C8DB"/>
<path d="M282.065 89.2444C282.065 90.5762 283.123 91.6342 284.488 91.6342C285.854 91.6342 286.878 90.5756 286.878 89.2444C286.878 87.9133 285.82 86.8208 284.489 86.8208C283.158 86.8208 282.065 87.9133 282.065 89.2444" fill="#A6C8DB"/>
<path d="M282.065 89.2444C282.065 90.5762 283.123 91.6342 284.488 91.6342C285.854 91.6342 286.878 90.5756 286.878 89.2444C286.878 87.9133 285.82 86.8208 284.489 86.8208C283.158 86.8208 282.065 87.9133 282.065 89.2444" fill="#A6C8DB"/>
<path d="M282.065 89.2444C282.065 90.5762 283.123 91.6342 284.488 91.6342C285.854 91.6342 286.878 90.5756 286.878 89.2444C286.878 87.9133 285.82 86.8208 284.489 86.8208C283.158 86.8208 282.065 87.9133 282.065 89.2444" fill="#A6C8DB"/>
<path d="M274.909 89.2449C274.909 90.5767 275.967 91.6347 277.333 91.6347C278.698 91.6347 279.723 90.576 279.723 89.2449C279.723 87.9138 278.664 86.8213 277.333 86.8213C276.002 86.8213 274.909 87.9138 274.909 89.2449Z" fill="#A6C8DB"/>
<path d="M274.909 89.2449C274.909 90.5767 275.967 91.6347 277.333 91.6347C278.698 91.6347 279.723 90.576 279.723 89.2449C279.723 87.9138 278.664 86.8213 277.333 86.8213C276.002 86.8213 274.909 87.9138 274.909 89.2449Z" fill="#A6C8DB"/>
<path d="M274.909 89.2449C274.909 90.5767 275.967 91.6347 277.333 91.6347C278.698 91.6347 279.723 90.576 279.723 89.2449C279.723 87.9138 278.664 86.8213 277.333 86.8213C276.002 86.8213 274.909 87.9138 274.909 89.2449Z" fill="#A6C8DB"/>
<path d="M267.753 89.2444C267.753 90.5762 268.811 91.6342 270.177 91.6342C271.542 91.6342 272.567 90.5756 272.567 89.2444C272.567 87.9133 271.508 86.8208 270.177 86.8208C268.846 86.8208 267.753 87.9133 267.753 89.2444Z" fill="#A6C8DB"/>
<path d="M267.753 89.2444C267.753 90.5762 268.811 91.6342 270.177 91.6342C271.542 91.6342 272.567 90.5756 272.567 89.2444C272.567 87.9133 271.508 86.8208 270.177 86.8208C268.846 86.8208 267.753 87.9133 267.753 89.2444Z" fill="#A6C8DB"/>
<path d="M267.753 89.2444C267.753 90.5762 268.811 91.6342 270.177 91.6342C271.542 91.6342 272.567 90.5756 272.567 89.2444C272.567 87.9133 271.508 86.8208 270.177 86.8208C268.846 86.8208 267.753 87.9133 267.753 89.2444Z" fill="#A6C8DB"/>
<path d="M260.597 89.2444C260.597 90.5762 261.655 91.6342 263.02 91.6342C264.386 91.6342 265.411 90.5756 265.411 89.2444C265.411 87.9133 264.352 86.8208 263.02 86.8208C261.689 86.8208 260.597 87.9133 260.597 89.2444Z" fill="#A6C8DB"/>
<path d="M260.597 89.2444C260.597 90.5762 261.655 91.6342 263.02 91.6342C264.386 91.6342 265.411 90.5756 265.411 89.2444C265.411 87.9133 264.352 86.8208 263.02 86.8208C261.689 86.8208 260.597 87.9133 260.597 89.2444Z" fill="#A6C8DB"/>
<path d="M260.597 89.2444C260.597 90.5762 261.655 91.6342 263.02 91.6342C264.386 91.6342 265.411 90.5756 265.411 89.2444C265.411 87.9133 264.352 86.8208 263.02 86.8208C261.689 86.8208 260.597 87.9133 260.597 89.2444Z" fill="#A6C8DB"/>
<path d="M267.753 96.4007C267.753 97.7325 268.811 98.7904 270.177 98.7904C271.542 98.7904 272.567 97.7318 272.567 96.4007C272.567 95.0696 271.509 93.9771 270.177 93.9771C268.845 93.9771 267.753 95.0696 267.753 96.4007Z" fill="#A6C8DB"/>
<path d="M267.753 96.4007C267.753 97.7325 268.811 98.7904 270.177 98.7904C271.542 98.7904 272.567 97.7318 272.567 96.4007C272.567 95.0696 271.509 93.9771 270.177 93.9771C268.845 93.9771 267.753 95.0696 267.753 96.4007Z" fill="#A6C8DB"/>
<path d="M267.753 96.4007C267.753 97.7325 268.811 98.7904 270.177 98.7904C271.542 98.7904 272.567 97.7318 272.567 96.4007C272.567 95.0696 271.509 93.9771 270.177 93.9771C268.845 93.9771 267.753 95.0696 267.753 96.4007Z" fill="#A6C8DB"/>
<path d="M260.597 96.4007C260.597 97.7325 261.655 98.7904 263.02 98.7904C264.386 98.7904 265.411 97.7318 265.411 96.4007C265.411 95.0696 264.352 93.9771 263.02 93.9771C261.689 93.9771 260.597 95.0696 260.597 96.4007Z" fill="#A6C8DB"/>
<path d="M260.597 96.4007C260.597 97.7325 261.655 98.7904 263.02 98.7904C264.386 98.7904 265.411 97.7318 265.411 96.4007C265.411 95.0696 264.352 93.9771 263.02 93.9771C261.689 93.9771 260.597 95.0696 260.597 96.4007Z" fill="#A6C8DB"/>
<path d="M260.597 96.4007C260.597 97.7325 261.655 98.7904 263.02 98.7904C264.386 98.7904 265.411 97.7318 265.411 96.4007C265.411 95.0696 264.352 93.9771 263.02 93.9771C261.689 93.9771 260.597 95.0696 260.597 96.4007Z" fill="#A6C8DB"/>
<path d="M274.909 103.557C274.909 104.889 275.967 105.947 277.333 105.947C278.698 105.947 279.723 104.888 279.723 103.557C279.723 102.226 278.665 101.133 277.333 101.133C276.001 101.133 274.909 102.226 274.909 103.557Z" fill="#A6C8DB"/>
<path d="M274.909 103.557C274.909 104.889 275.967 105.947 277.333 105.947C278.698 105.947 279.723 104.888 279.723 103.557C279.723 102.226 278.665 101.133 277.333 101.133C276.001 101.133 274.909 102.226 274.909 103.557Z" fill="#A6C8DB"/>
<path d="M274.909 103.557C274.909 104.889 275.967 105.947 277.333 105.947C278.698 105.947 279.723 104.888 279.723 103.557C279.723 102.226 278.665 101.133 277.333 101.133C276.001 101.133 274.909 102.226 274.909 103.557Z" fill="#A6C8DB"/>
<path d="M260.597 103.557C260.597 104.889 261.655 105.947 263.02 105.947C264.386 105.947 265.411 104.888 265.411 103.557C265.411 102.226 264.352 101.133 263.02 101.133C261.689 101.133 260.597 102.226 260.597 103.557Z" fill="#A6C8DB"/>
<path d="M260.597 103.557C260.597 104.889 261.655 105.947 263.02 105.947C264.386 105.947 265.411 104.888 265.411 103.557C265.411 102.226 264.352 101.133 263.02 101.133C261.689 101.133 260.597 102.226 260.597 103.557Z" fill="#A6C8DB"/>
<path d="M260.597 103.557C260.597 104.889 261.655 105.947 263.02 105.947C264.386 105.947 265.411 104.888 265.411 103.557C265.411 102.226 264.352 101.133 263.02 101.133C261.689 101.133 260.597 102.226 260.597 103.557Z" fill="#A6C8DB"/>
<path d="M282.065 110.713C282.065 112.045 283.123 113.103 284.488 113.103C285.854 113.103 286.878 112.044 286.878 110.713C286.878 109.382 285.819 108.29 284.488 108.29C283.157 108.29 282.065 109.382 282.065 110.713Z" fill="#A6C8DB"/>
<path d="M282.065 110.713C282.065 112.045 283.123 113.103 284.488 113.103C285.854 113.103 286.878 112.044 286.878 110.713C286.878 109.382 285.819 108.29 284.488 108.29C283.157 108.29 282.065 109.382 282.065 110.713Z" fill="#A6C8DB"/>
<path d="M282.065 110.713C282.065 112.045 283.123 113.103 284.488 113.103C285.854 113.103 286.878 112.044 286.878 110.713C286.878 109.382 285.819 108.29 284.488 108.29C283.157 108.29 282.065 109.382 282.065 110.713Z" fill="#A6C8DB"/>
<path d="M260.597 110.713C260.597 112.045 261.655 113.103 263.02 113.103C264.386 113.103 265.411 112.044 265.411 110.713C265.411 109.382 264.352 108.29 263.02 108.29C261.689 108.29 260.597 109.382 260.597 110.713Z" fill="#A6C8DB"/>
<path d="M260.597 110.713C260.597 112.045 261.655 113.103 263.02 113.103C264.386 113.103 265.411 112.044 265.411 110.713C265.411 109.382 264.352 108.29 263.02 108.29C261.689 108.29 260.597 109.382 260.597 110.713Z" fill="#A6C8DB"/>
<path d="M260.597 110.713C260.597 112.045 261.655 113.103 263.02 113.103C264.386 113.103 265.411 112.044 265.411 110.713C265.411 109.382 264.352 108.29 263.02 108.29C261.689 108.29 260.597 109.382 260.597 110.713Z" fill="#A6C8DB"/>
<path d="M289.221 117.869C289.221 119.201 290.279 120.259 291.645 120.259C293.01 120.259 294.035 119.201 294.035 117.869C294.035 116.538 292.977 115.446 291.645 115.446C290.313 115.446 289.221 116.538 289.221 117.869Z" fill="#A6C8DB"/>
<path d="M289.221 117.869C289.221 119.201 290.279 120.259 291.645 120.259C293.01 120.259 294.035 119.201 294.035 117.869C294.035 116.538 292.977 115.446 291.645 115.446C290.313 115.446 289.221 116.538 289.221 117.869Z" fill="#A6C8DB"/>
<path d="M289.221 117.869C289.221 119.201 290.279 120.259 291.645 120.259C293.01 120.259 294.035 119.201 294.035 117.869C294.035 116.538 292.977 115.446 291.645 115.446C290.313 115.446 289.221 116.538 289.221 117.869Z" fill="#A6C8DB"/>
<path d="M211.273 175.999C210.331 176.941 210.331 178.437 211.297 179.403C212.263 180.368 213.735 180.344 214.677 179.403C215.618 178.461 215.642 176.941 214.701 176C213.76 175.058 212.215 175.058 211.273 176" fill="#A6C8DB"/>
<path d="M211.273 175.999C210.331 176.941 210.331 178.437 211.297 179.403C212.263 180.368 213.735 180.344 214.677 179.403C215.618 178.461 215.642 176.941 214.701 176C213.76 175.058 212.215 175.058 211.273 176" fill="#A6C8DB"/>
<path d="M211.273 175.999C210.331 176.941 210.331 178.437 211.297 179.403C212.263 180.368 213.735 180.344 214.677 179.403C215.618 178.461 215.642 176.941 214.701 176C213.76 175.058 212.215 175.058 211.273 176" fill="#A6C8DB"/>
<path d="M206.213 170.94C205.272 171.881 205.272 173.378 206.237 174.343C207.203 175.309 208.676 175.285 209.617 174.344C210.559 173.402 210.582 171.881 209.641 170.94C208.7 169.998 207.154 169.998 206.213 170.94Z" fill="#A6C8DB"/>
<path d="M206.213 170.94C205.272 171.881 205.272 173.378 206.237 174.343C207.203 175.309 208.676 175.285 209.617 174.344C210.559 173.402 210.582 171.881 209.641 170.94C208.7 169.998 207.154 169.998 206.213 170.94Z" fill="#A6C8DB"/>
<path d="M206.213 170.94C205.272 171.881 205.272 173.378 206.237 174.343C207.203 175.309 208.676 175.285 209.617 174.344C210.559 173.402 210.582 171.881 209.641 170.94C208.7 169.998 207.154 169.998 206.213 170.94Z" fill="#A6C8DB"/>
<path d="M201.153 165.879C200.211 166.821 200.211 168.317 201.177 169.283C202.143 170.248 203.616 170.224 204.557 169.283C205.498 168.342 205.522 166.82 204.581 165.879C203.639 164.938 202.094 164.938 201.153 165.879Z" fill="#A6C8DB"/>
<path d="M201.153 165.879C200.211 166.821 200.211 168.317 201.177 169.283C202.143 170.248 203.616 170.224 204.557 169.283C205.498 168.342 205.522 166.82 204.581 165.879C203.639 164.938 202.094 164.938 201.153 165.879Z" fill="#A6C8DB"/>
<path d="M201.153 165.879C200.211 166.821 200.211 168.317 201.177 169.283C202.143 170.248 203.616 170.224 204.557 169.283C205.498 168.342 205.522 166.82 204.581 165.879C203.639 164.938 202.094 164.938 201.153 165.879Z" fill="#A6C8DB"/>
<path d="M196.093 160.819C195.151 161.761 195.151 163.257 196.117 164.223C197.083 165.188 198.556 165.164 199.497 164.223C200.438 163.282 200.462 161.76 199.521 160.819C198.579 159.878 197.034 159.878 196.093 160.819Z" fill="#A6C8DB"/>
<path d="M196.093 160.819C195.151 161.761 195.151 163.257 196.117 164.223C197.083 165.188 198.556 165.164 199.497 164.223C200.438 163.282 200.462 161.76 199.521 160.819C198.579 159.878 197.034 159.878 196.093 160.819Z" fill="#A6C8DB"/>
<path d="M196.093 160.819C195.151 161.761 195.151 163.257 196.117 164.223C197.083 165.188 198.556 165.164 199.497 164.223C200.438 163.282 200.462 161.76 199.521 160.819C198.579 159.878 197.034 159.878 196.093 160.819Z" fill="#A6C8DB"/>
<path d="M196.093 170.94C195.151 171.881 195.151 173.378 196.117 174.343C197.083 175.309 198.556 175.285 199.497 174.344C200.438 173.402 200.462 171.881 199.52 170.94C198.579 169.998 197.034 169.998 196.093 170.94Z" fill="#A6C8DB"/>
<path d="M196.093 170.94C195.151 171.881 195.151 173.378 196.117 174.343C197.083 175.309 198.556 175.285 199.497 174.344C200.438 173.402 200.462 171.881 199.52 170.94C198.579 169.998 197.034 169.998 196.093 170.94Z" fill="#A6C8DB"/>
<path d="M196.093 170.94C195.151 171.881 195.151 173.378 196.117 174.343C197.083 175.309 198.556 175.285 199.497 174.344C200.438 173.402 200.462 171.881 199.52 170.94C198.579 169.998 197.034 169.998 196.093 170.94Z" fill="#A6C8DB"/>
<path d="M191.033 165.879C190.091 166.821 190.091 168.317 191.057 169.283C192.022 170.248 193.496 170.224 194.437 169.283C195.378 168.342 195.402 166.821 194.46 165.879C193.519 164.937 191.974 164.938 191.033 165.879Z" fill="#A6C8DB"/>
<path d="M191.033 165.879C190.091 166.821 190.091 168.317 191.057 169.283C192.022 170.248 193.496 170.224 194.437 169.283C195.378 168.342 195.402 166.821 194.46 165.879C193.519 164.937 191.974 164.938 191.033 165.879Z" fill="#A6C8DB"/>
<path d="M191.033 165.879C190.091 166.821 190.091 168.317 191.057 169.283C192.022 170.248 193.496 170.224 194.437 169.283C195.378 168.342 195.402 166.821 194.46 165.879C193.519 164.937 191.974 164.938 191.033 165.879Z" fill="#A6C8DB"/>
<path d="M196.093 181.06C195.151 182.001 195.151 183.498 196.117 184.463C197.083 185.429 198.556 185.405 199.497 184.464C200.438 183.523 200.462 182.001 199.521 181.06C198.579 180.118 197.034 180.118 196.093 181.06Z" fill="#A6C8DB"/>
<path d="M196.093 181.06C195.151 182.001 195.151 183.498 196.117 184.463C197.083 185.429 198.556 185.405 199.497 184.464C200.438 183.523 200.462 182.001 199.521 181.06C198.579 180.118 197.034 180.118 196.093 181.06Z" fill="#A6C8DB"/>
<path d="M196.093 181.06C195.151 182.001 195.151 183.498 196.117 184.463C197.083 185.429 198.556 185.405 199.497 184.464C200.438 183.523 200.462 182.001 199.521 181.06C198.579 180.118 197.034 180.118 196.093 181.06Z" fill="#A6C8DB"/>
<path d="M185.973 170.94C185.031 171.881 185.031 173.378 185.997 174.343C186.962 175.309 188.436 175.285 189.377 174.344C190.318 173.402 190.342 171.881 189.4 170.94C188.459 169.998 186.914 169.998 185.973 170.94Z" fill="#A6C8DB"/>
<path d="M185.973 170.94C185.031 171.881 185.031 173.378 185.997 174.343C186.962 175.309 188.436 175.285 189.377 174.344C190.318 173.402 190.342 171.881 189.4 170.94C188.459 169.998 186.914 169.998 185.973 170.94Z" fill="#A6C8DB"/>
<path d="M185.973 170.94C185.031 171.881 185.031 173.378 185.997 174.343C186.962 175.309 188.436 175.285 189.377 174.344C190.318 173.402 190.342 171.881 189.4 170.94C188.459 169.998 186.914 169.998 185.973 170.94Z" fill="#A6C8DB"/>
<path d="M196.092 191.179C195.151 192.121 195.151 193.617 196.116 194.583C197.082 195.549 198.555 195.524 199.496 194.583C200.437 193.642 200.461 192.121 199.52 191.179C198.579 190.238 197.034 190.238 196.092 191.179Z" fill="#A6C8DB"/>
<path d="M196.092 191.179C195.151 192.121 195.151 193.617 196.116 194.583C197.082 195.549 198.555 195.524 199.496 194.583C200.437 193.642 200.461 192.121 199.52 191.179C198.579 190.238 197.034 190.238 196.092 191.179Z" fill="#A6C8DB"/>
<path d="M196.092 191.179C195.151 192.121 195.151 193.617 196.116 194.583C197.082 195.549 198.555 195.524 199.496 194.583C200.437 193.642 200.461 192.121 199.52 191.179C198.579 190.238 197.034 190.238 196.092 191.179Z" fill="#A6C8DB"/>
<path d="M180.912 175.999C179.971 176.941 179.971 178.437 180.936 179.403C181.902 180.368 183.375 180.344 184.317 179.403C185.258 178.462 185.282 176.941 184.34 175.999C183.398 175.057 181.854 175.058 180.912 175.999Z" fill="#A6C8DB"/>
<path d="M180.912 175.999C179.971 176.941 179.971 178.437 180.936 179.403C181.902 180.368 183.375 180.344 184.317 179.403C185.258 178.462 185.282 176.941 184.34 175.999C183.398 175.057 181.854 175.058 180.912 175.999Z" fill="#A6C8DB"/>
<path d="M180.912 175.999C179.971 176.941 179.971 178.437 180.936 179.403C181.902 180.368 183.375 180.344 184.317 179.403C185.258 178.462 185.282 176.941 184.34 175.999C183.398 175.057 181.854 175.058 180.912 175.999Z" fill="#A6C8DB"/>
<path d="M196.092 201.3C195.151 202.241 195.151 203.738 196.116 204.704C197.082 205.669 198.555 205.646 199.496 204.704C200.438 203.762 200.462 202.242 199.52 201.3C198.578 200.358 197.034 200.359 196.092 201.3Z" fill="#A6C8DB"/>
<path d="M196.092 201.3C195.151 202.241 195.151 203.738 196.116 204.704C197.082 205.669 198.555 205.646 199.496 204.704C200.438 203.762 200.462 202.242 199.52 201.3C198.578 200.358 197.034 200.359 196.092 201.3Z" fill="#A6C8DB"/>
<path d="M196.092 201.3C195.151 202.241 195.151 203.738 196.116 204.704C197.082 205.669 198.555 205.646 199.496 204.704C200.438 203.762 200.462 202.242 199.52 201.3C198.578 200.358 197.034 200.359 196.092 201.3Z" fill="#A6C8DB"/>
<path d="M193.058 117.15C193.058 115.818 192 114.76 190.634 114.76C189.268 114.76 188.244 115.818 188.244 117.15C188.244 118.481 189.302 119.573 190.633 119.573C191.965 119.573 193.057 118.481 193.057 117.15" fill="#A6C8DB"/>
<path d="M193.058 117.15C193.058 115.818 192 114.76 190.634 114.76C189.268 114.76 188.244 115.818 188.244 117.15C188.244 118.481 189.302 119.573 190.633 119.573C191.965 119.573 193.057 118.481 193.057 117.15" fill="#A6C8DB"/>
<path d="M193.058 117.15C193.058 115.818 192 114.76 190.634 114.76C189.268 114.76 188.244 115.818 188.244 117.15C188.244 118.481 189.302 119.573 190.633 119.573C191.965 119.573 193.057 118.481 193.057 117.15" fill="#A6C8DB"/>
<path d="M200.213 117.15C200.213 115.818 199.155 114.76 197.789 114.76C196.424 114.76 195.399 115.818 195.399 117.15C195.399 118.481 196.458 119.573 197.789 119.573C199.12 119.573 200.213 118.481 200.213 117.15Z" fill="#A6C8DB"/>
<path d="M200.213 117.15C200.213 115.818 199.155 114.76 197.789 114.76C196.424 114.76 195.399 115.818 195.399 117.15C195.399 118.481 196.458 119.573 197.789 119.573C199.12 119.573 200.213 118.481 200.213 117.15Z" fill="#A6C8DB"/>
<path d="M200.213 117.15C200.213 115.818 199.155 114.76 197.789 114.76C196.424 114.76 195.399 115.818 195.399 117.15C195.399 118.481 196.458 119.573 197.789 119.573C199.12 119.573 200.213 118.481 200.213 117.15Z" fill="#A6C8DB"/>
<path d="M207.369 117.15C207.369 115.818 206.311 114.76 204.946 114.76C203.58 114.76 202.555 115.818 202.555 117.15C202.555 118.481 203.614 119.573 204.946 119.573C206.277 119.573 207.369 118.481 207.369 117.15Z" fill="#A6C8DB"/>
<path d="M207.369 117.15C207.369 115.818 206.311 114.76 204.946 114.76C203.58 114.76 202.555 115.818 202.555 117.15C202.555 118.481 203.614 119.573 204.946 119.573C206.277 119.573 207.369 118.481 207.369 117.15Z" fill="#A6C8DB"/>
<path d="M207.369 117.15C207.369 115.818 206.311 114.76 204.946 114.76C203.58 114.76 202.555 115.818 202.555 117.15C202.555 118.481 203.614 119.573 204.946 119.573C206.277 119.573 207.369 118.481 207.369 117.15Z" fill="#A6C8DB"/>
<path d="M214.525 117.15C214.525 115.818 213.467 114.76 212.102 114.76C210.736 114.76 209.711 115.818 209.711 117.15C209.711 118.481 210.771 119.573 212.102 119.573C213.433 119.573 214.525 118.481 214.525 117.15Z" fill="#A6C8DB"/>
<path d="M214.525 117.15C214.525 115.818 213.467 114.76 212.102 114.76C210.736 114.76 209.711 115.818 209.711 117.15C209.711 118.481 210.771 119.573 212.102 119.573C213.433 119.573 214.525 118.481 214.525 117.15Z" fill="#A6C8DB"/>
<path d="M214.525 117.15C214.525 115.818 213.467 114.76 212.102 114.76C210.736 114.76 209.711 115.818 209.711 117.15C209.711 118.481 210.771 119.573 212.102 119.573C213.433 119.573 214.525 118.481 214.525 117.15Z" fill="#A6C8DB"/>
<path d="M207.369 109.993C207.369 108.662 206.311 107.604 204.946 107.604C203.58 107.604 202.555 108.662 202.555 109.993C202.555 111.324 203.614 112.417 204.946 112.417C206.277 112.417 207.369 111.324 207.369 109.993Z" fill="#A6C8DB"/>
<path d="M207.369 109.993C207.369 108.662 206.311 107.604 204.946 107.604C203.58 107.604 202.555 108.662 202.555 109.993C202.555 111.324 203.614 112.417 204.946 112.417C206.277 112.417 207.369 111.324 207.369 109.993Z" fill="#A6C8DB"/>
<path d="M207.369 109.993C207.369 108.662 206.311 107.604 204.946 107.604C203.58 107.604 202.555 108.662 202.555 109.993C202.555 111.324 203.614 112.417 204.946 112.417C206.277 112.417 207.369 111.324 207.369 109.993Z" fill="#A6C8DB"/>
<path d="M214.525 109.993C214.525 108.662 213.467 107.604 212.102 107.604C210.736 107.604 209.711 108.662 209.711 109.993C209.711 111.324 210.77 112.417 212.102 112.417C213.434 112.417 214.525 111.324 214.525 109.993Z" fill="#A6C8DB"/>
<path d="M214.525 109.993C214.525 108.662 213.467 107.604 212.102 107.604C210.736 107.604 209.711 108.662 209.711 109.993C209.711 111.324 210.77 112.417 212.102 112.417C213.434 112.417 214.525 111.324 214.525 109.993Z" fill="#A6C8DB"/>
<path d="M214.525 109.993C214.525 108.662 213.467 107.604 212.102 107.604C210.736 107.604 209.711 108.662 209.711 109.993C209.711 111.324 210.77 112.417 212.102 112.417C213.434 112.417 214.525 111.324 214.525 109.993Z" fill="#A6C8DB"/>
<path d="M200.213 102.837C200.213 101.505 199.155 100.447 197.789 100.447C196.424 100.447 195.399 101.506 195.399 102.837C195.399 104.168 196.458 105.261 197.789 105.261C199.121 105.261 200.213 104.168 200.213 102.837Z" fill="#A6C8DB"/>
<path d="M200.213 102.837C200.213 101.505 199.155 100.447 197.789 100.447C196.424 100.447 195.399 101.506 195.399 102.837C195.399 104.168 196.458 105.261 197.789 105.261C199.121 105.261 200.213 104.168 200.213 102.837Z" fill="#A6C8DB"/>
<path d="M200.213 102.837C200.213 101.505 199.155 100.447 197.789 100.447C196.424 100.447 195.399 101.506 195.399 102.837C195.399 104.168 196.458 105.261 197.789 105.261C199.121 105.261 200.213 104.168 200.213 102.837Z" fill="#A6C8DB"/>
<path d="M214.525 102.837C214.525 101.505 213.467 100.447 212.102 100.447C210.736 100.447 209.711 101.506 209.711 102.837C209.711 104.168 210.77 105.261 212.102 105.261C213.434 105.261 214.525 104.168 214.525 102.837Z" fill="#A6C8DB"/>
<path d="M214.525 102.837C214.525 101.505 213.467 100.447 212.102 100.447C210.736 100.447 209.711 101.506 209.711 102.837C209.711 104.168 210.77 105.261 212.102 105.261C213.434 105.261 214.525 104.168 214.525 102.837Z" fill="#A6C8DB"/>
<path d="M214.525 102.837C214.525 101.505 213.467 100.447 212.102 100.447C210.736 100.447 209.711 101.506 209.711 102.837C209.711 104.168 210.77 105.261 212.102 105.261C213.434 105.261 214.525 104.168 214.525 102.837Z" fill="#A6C8DB"/>
<path d="M193.058 95.6809C193.058 94.3491 192 93.2911 190.634 93.2911C189.268 93.2911 188.244 94.3497 188.244 95.6809C188.244 97.012 189.303 98.1045 190.634 98.1045C191.965 98.1045 193.058 97.012 193.058 95.6809Z" fill="#A6C8DB"/>
<path d="M193.058 95.6809C193.058 94.3491 192 93.2911 190.634 93.2911C189.268 93.2911 188.244 94.3497 188.244 95.6809C188.244 97.012 189.303 98.1045 190.634 98.1045C191.965 98.1045 193.058 97.012 193.058 95.6809Z" fill="#A6C8DB"/>
<path d="M193.058 95.6809C193.058 94.3491 192 93.2911 190.634 93.2911C189.268 93.2911 188.244 94.3497 188.244 95.6809C188.244 97.012 189.303 98.1045 190.634 98.1045C191.965 98.1045 193.058 97.012 193.058 95.6809Z" fill="#A6C8DB"/>
<path d="M214.525 95.6809C214.525 94.3491 213.467 93.2911 212.102 93.2911C210.736 93.2911 209.711 94.3497 209.711 95.6809C209.711 97.012 210.77 98.1045 212.102 98.1045C213.434 98.1045 214.525 97.012 214.525 95.6809Z" fill="#A6C8DB"/>
<path d="M214.525 95.6809C214.525 94.3491 213.467 93.2911 212.102 93.2911C210.736 93.2911 209.711 94.3497 209.711 95.6809C209.711 97.012 210.77 98.1045 212.102 98.1045C213.434 98.1045 214.525 97.012 214.525 95.6809Z" fill="#A6C8DB"/>
<path d="M214.525 95.6809C214.525 94.3491 213.467 93.2911 212.102 93.2911C210.736 93.2911 209.711 94.3497 209.711 95.6809C209.711 97.012 210.77 98.1045 212.102 98.1045C213.434 98.1045 214.525 97.012 214.525 95.6809Z" fill="#A6C8DB"/>
<path d="M185.901 88.5246C185.901 87.1935 184.843 86.1349 183.478 86.1349C182.112 86.1349 181.087 87.1928 181.087 88.5246C181.087 89.8564 182.146 90.9482 183.478 90.9482C184.809 90.9482 185.901 89.8557 185.901 88.5246Z" fill="#A6C8DB"/>
<path d="M185.901 88.5246C185.901 87.1935 184.843 86.1349 183.478 86.1349C182.112 86.1349 181.087 87.1928 181.087 88.5246C181.087 89.8564 182.146 90.9482 183.478 90.9482C184.809 90.9482 185.901 89.8557 185.901 88.5246Z" fill="#A6C8DB"/>
<path d="M185.901 88.5246C185.901 87.1935 184.843 86.1349 183.478 86.1349C182.112 86.1349 181.087 87.1928 181.087 88.5246C181.087 89.8564 182.146 90.9482 183.478 90.9482C184.809 90.9482 185.901 89.8557 185.901 88.5246Z" fill="#A6C8DB"/>
<path d="M16.8939 239.24C17.8356 240.182 19.3318 240.182 20.2975 239.216C21.2632 238.25 21.2387 236.778 20.2975 235.836C19.3563 234.895 17.8356 234.871 16.8944 235.812C15.9532 236.753 15.9532 238.298 16.8944 239.239" fill="#A6C8DB"/>
<path d="M16.8939 239.24C17.8356 240.182 19.3318 240.182 20.2975 239.216C21.2632 238.25 21.2387 236.778 20.2975 235.836C19.3563 234.895 17.8356 234.871 16.8944 235.812C15.9532 236.753 15.9532 238.298 16.8944 239.239" fill="#A6C8DB"/>
<path d="M16.8939 239.24C17.8356 240.182 19.3318 240.182 20.2975 239.216C21.2632 238.25 21.2387 236.778 20.2975 235.836C19.3563 234.895 17.8356 234.871 16.8944 235.812C15.9532 236.753 15.9532 238.298 16.8944 239.239" fill="#A6C8DB"/>
<path d="M11.8346 244.299C12.7763 245.241 14.2725 245.241 15.2382 244.275C16.2039 243.31 16.1799 241.837 15.2387 240.895C14.2974 239.954 12.7759 239.931 11.8346 240.872C10.8934 241.813 10.8934 243.358 11.8346 244.299Z" fill="#A6C8DB"/>
<path d="M11.8346 244.299C12.7763 245.241 14.2725 245.241 15.2382 244.275C16.2039 243.31 16.1799 241.837 15.2387 240.895C14.2974 239.954 12.7759 239.931 11.8346 240.872C10.8934 241.813 10.8934 243.358 11.8346 244.299Z" fill="#A6C8DB"/>
<path d="M11.8346 244.299C12.7763 245.241 14.2725 245.241 15.2382 244.275C16.2039 243.31 16.1799 241.837 15.2387 240.895C14.2974 239.954 12.7759 239.931 11.8346 240.872C10.8934 241.813 10.8934 243.358 11.8346 244.299Z" fill="#A6C8DB"/>
<path d="M6.77409 249.36C7.71579 250.301 9.212 250.301 10.1777 249.336C11.1433 248.37 11.1194 246.897 10.1781 245.955C9.23689 245.014 7.71533 244.991 6.77409 245.932C5.83285 246.873 5.83285 248.418 6.77409 249.36Z" fill="#A6C8DB"/>
<path d="M6.77409 249.36C7.71579 250.301 9.212 250.301 10.1777 249.336C11.1433 248.37 11.1194 246.897 10.1781 245.955C9.23689 245.014 7.71533 244.991 6.77409 245.932C5.83285 246.873 5.83285 248.418 6.77409 249.36Z" fill="#A6C8DB"/>
<path d="M6.77409 249.36C7.71579 250.301 9.212 250.301 10.1777 249.336C11.1433 248.37 11.1194 246.897 10.1781 245.955C9.23689 245.014 7.71533 244.991 6.77409 245.932C5.83285 246.873 5.83285 248.418 6.77409 249.36Z" fill="#A6C8DB"/>
<path d="M1.71403 254.42C2.65573 255.361 4.15194 255.361 5.11761 254.396C6.08327 253.43 6.05931 251.957 5.11807 251.016C4.17683 250.074 2.65527 250.051 1.71403 250.992C0.772796 251.933 0.772794 253.478 1.71403 254.42Z" fill="#A6C8DB"/>
<path d="M1.71403 254.42C2.65573 255.361 4.15194 255.361 5.11761 254.396C6.08327 253.43 6.05931 251.957 5.11807 251.016C4.17683 250.074 2.65527 250.051 1.71403 250.992C0.772796 251.933 0.772794 253.478 1.71403 254.42Z" fill="#A6C8DB"/>
<path d="M1.71403 254.42C2.65573 255.361 4.15194 255.361 5.11761 254.396C6.08327 253.43 6.05931 251.957 5.11807 251.016C4.17683 250.074 2.65527 250.051 1.71403 250.992C0.772796 251.933 0.772794 253.478 1.71403 254.42Z" fill="#A6C8DB"/>
<path d="M11.8346 254.42C12.7763 255.361 14.2725 255.361 15.2382 254.396C16.2039 253.43 16.1799 251.957 15.2387 251.016C14.2974 250.074 12.7763 250.05 11.8346 250.992C10.8929 251.934 10.8934 253.478 11.8346 254.42Z" fill="#A6C8DB"/>
<path d="M11.8346 254.42C12.7763 255.361 14.2725 255.361 15.2382 254.396C16.2039 253.43 16.1799 251.957 15.2387 251.016C14.2974 250.074 12.7763 250.05 11.8346 250.992C10.8929 251.934 10.8934 253.478 11.8346 254.42Z" fill="#A6C8DB"/>
<path d="M11.8346 254.42C12.7763 255.361 14.2725 255.361 15.2382 254.396C16.2039 253.43 16.1799 251.957 15.2387 251.016C14.2974 250.074 12.7763 250.05 11.8346 250.992C10.8929 251.934 10.8934 253.478 11.8346 254.42Z" fill="#A6C8DB"/>
<path d="M6.77409 259.48C7.71579 260.422 9.212 260.422 10.1777 259.456C11.1433 258.49 11.1194 257.017 10.1781 256.076C9.23689 255.135 7.71579 255.111 6.77409 256.053C5.83239 256.994 5.83285 258.539 6.77409 259.48Z" fill="#A6C8DB"/>
<path d="M6.77409 259.48C7.71579 260.422 9.212 260.422 10.1777 259.456C11.1433 258.49 11.1194 257.017 10.1781 256.076C9.23689 255.135 7.71579 255.111 6.77409 256.053C5.83239 256.994 5.83285 258.539 6.77409 259.48Z" fill="#A6C8DB"/>
<path d="M6.77409 259.48C7.71579 260.422 9.212 260.422 10.1777 259.456C11.1433 258.49 11.1194 257.017 10.1781 256.076C9.23689 255.135 7.71579 255.111 6.77409 256.053C5.83239 256.994 5.83285 258.539 6.77409 259.48Z" fill="#A6C8DB"/>
<path d="M21.9548 254.42C22.8965 255.361 24.3927 255.361 25.3583 254.396C26.324 253.43 26.3 251.957 25.3588 251.016C24.4176 250.074 22.8965 250.05 21.9548 250.992C21.0131 251.934 21.0135 253.478 21.9548 254.42Z" fill="#A6C8DB"/>
<path d="M21.9548 254.42C22.8965 255.361 24.3927 255.361 25.3583 254.396C26.324 253.43 26.3 251.957 25.3588 251.016C24.4176 250.074 22.8965 250.05 21.9548 250.992C21.0131 251.934 21.0135 253.478 21.9548 254.42Z" fill="#A6C8DB"/>
<path d="M21.9548 254.42C22.8965 255.361 24.3927 255.361 25.3583 254.396C26.324 253.43 26.3 251.957 25.3588 251.016C24.4176 250.074 22.8965 250.05 21.9548 250.992C21.0131 251.934 21.0135 253.478 21.9548 254.42Z" fill="#A6C8DB"/>
<path d="M11.8346 264.54C12.7763 265.482 14.2725 265.482 15.2382 264.516C16.2039 263.551 16.1799 262.077 15.2387 261.136C14.2974 260.195 12.7763 260.171 11.8346 261.113C10.8929 262.054 10.8934 263.599 11.8346 264.54Z" fill="#A6C8DB"/>
<path d="M11.8346 264.54C12.7763 265.482 14.2725 265.482 15.2382 264.516C16.2039 263.551 16.1799 262.077 15.2387 261.136C14.2974 260.195 12.7763 260.171 11.8346 261.113C10.8929 262.054 10.8934 263.599 11.8346 264.54Z" fill="#A6C8DB"/>
<path d="M11.8346 264.54C12.7763 265.482 14.2725 265.482 15.2382 264.516C16.2039 263.551 16.1799 262.077 15.2387 261.136C14.2974 260.195 12.7763 260.171 11.8346 261.113C10.8929 262.054 10.8934 263.599 11.8346 264.54Z" fill="#A6C8DB"/>
<path d="M32.0746 254.42C33.0163 255.362 34.5125 255.362 35.4782 254.396C36.4438 253.43 36.4194 251.958 35.4782 251.017C34.5369 250.075 33.0158 250.051 32.0746 250.993C31.1334 251.934 31.1334 253.479 32.0746 254.42Z" fill="#A6C8DB"/>
<path d="M32.0746 254.42C33.0163 255.362 34.5125 255.362 35.4782 254.396C36.4438 253.43 36.4194 251.958 35.4782 251.017C34.5369 250.075 33.0158 250.051 32.0746 250.993C31.1334 251.934 31.1334 253.479 32.0746 254.42Z" fill="#A6C8DB"/>
<path d="M32.0746 254.42C33.0163 255.362 34.5125 255.362 35.4782 254.396C36.4438 253.43 36.4194 251.958 35.4782 251.017C34.5369 250.075 33.0158 250.051 32.0746 250.993C31.1334 251.934 31.1334 253.479 32.0746 254.42Z" fill="#A6C8DB"/>
<path d="M16.8945 269.6C17.8362 270.542 19.3324 270.542 20.298 269.576C21.2637 268.611 21.2397 267.137 20.2985 266.196C19.3573 265.255 17.8362 265.231 16.8945 266.173C15.9528 267.114 15.9532 268.659 16.8945 269.6Z" fill="#A6C8DB"/>
<path d="M16.8945 269.6C17.8362 270.542 19.3324 270.542 20.298 269.576C21.2637 268.611 21.2397 267.137 20.2985 266.196C19.3573 265.255 17.8362 265.231 16.8945 266.173C15.9528 267.114 15.9532 268.659 16.8945 269.6Z" fill="#A6C8DB"/>
<path d="M16.8945 269.6C17.8362 270.542 19.3324 270.542 20.298 269.576C21.2637 268.611 21.2397 267.137 20.2985 266.196C19.3573 265.255 17.8362 265.231 16.8945 266.173C15.9528 267.114 15.9532 268.659 16.8945 269.6Z" fill="#A6C8DB"/>
<path d="M42.195 254.42C43.1362 255.361 44.6329 255.362 45.5986 254.396C46.5642 253.43 46.5407 251.958 45.599 251.016C44.6573 250.074 43.1367 250.051 42.195 250.993C41.2533 251.934 41.2538 253.479 42.195 254.42Z" fill="#A6C8DB"/>
<path d="M42.195 254.42C43.1362 255.361 44.6329 255.362 45.5986 254.396C46.5642 253.43 46.5407 251.958 45.599 251.016C44.6573 250.074 43.1367 250.051 42.195 250.993C41.2533 251.934 41.2538 253.479 42.195 254.42Z" fill="#A6C8DB"/>
<path d="M42.195 254.42C43.1362 255.361 44.6329 255.362 45.5986 254.396C46.5642 253.43 46.5407 251.958 45.599 251.016C44.6573 250.074 43.1367 250.051 42.195 250.993C41.2533 251.934 41.2538 253.479 42.195 254.42Z" fill="#A6C8DB"/>
<path d="M114.637 266.172C113.695 265.23 112.199 265.23 111.233 266.196C110.267 267.161 110.292 268.634 111.233 269.575C112.174 270.517 113.695 270.541 114.636 269.6C115.577 268.658 115.577 267.113 114.636 266.172" fill="#A6C8DB"/>
<path d="M114.637 266.172C113.695 265.23 112.199 265.23 111.233 266.196C110.267 267.161 110.292 268.634 111.233 269.575C112.174 270.517 113.695 270.541 114.636 269.6C115.577 268.658 115.577 267.113 114.636 266.172" fill="#A6C8DB"/>
<path d="M114.637 266.172C113.695 265.23 112.199 265.23 111.233 266.196C110.267 267.161 110.292 268.634 111.233 269.575C112.174 270.517 113.695 270.541 114.636 269.6C115.577 268.658 115.577 267.113 114.636 266.172" fill="#A6C8DB"/>
<path d="M119.696 261.112C118.754 260.17 117.258 260.17 116.292 261.136C115.327 262.102 115.351 263.575 116.292 264.516C117.233 265.457 118.755 265.481 119.696 264.54C120.637 263.598 120.637 262.053 119.696 261.112Z" fill="#A6C8DB"/>
<path d="M119.696 261.112C118.754 260.17 117.258 260.17 116.292 261.136C115.327 262.102 115.351 263.575 116.292 264.516C117.233 265.457 118.755 265.481 119.696 264.54C120.637 263.598 120.637 262.053 119.696 261.112Z" fill="#A6C8DB"/>
<path d="M119.696 261.112C118.754 260.17 117.258 260.17 116.292 261.136C115.327 262.102 115.351 263.575 116.292 264.516C117.233 265.457 118.755 265.481 119.696 264.54C120.637 263.598 120.637 262.053 119.696 261.112Z" fill="#A6C8DB"/>
<path d="M124.756 256.052C123.815 255.11 122.319 255.11 121.353 256.076C120.387 257.042 120.411 258.515 121.352 259.456C122.294 260.397 123.815 260.421 124.756 259.48C125.698 258.538 125.698 256.993 124.756 256.052Z" fill="#A6C8DB"/>
<path d="M124.756 256.052C123.815 255.11 122.319 255.11 121.353 256.076C120.387 257.042 120.411 258.515 121.352 259.456C122.294 260.397 123.815 260.421 124.756 259.48C125.698 258.538 125.698 256.993 124.756 256.052Z" fill="#A6C8DB"/>
<path d="M124.756 256.052C123.815 255.11 122.319 255.11 121.353 256.076C120.387 257.042 120.411 258.515 121.352 259.456C122.294 260.397 123.815 260.421 124.756 259.48C125.698 258.538 125.698 256.993 124.756 256.052Z" fill="#A6C8DB"/>
<path d="M129.816 250.992C128.875 250.05 127.379 250.05 126.413 251.016C125.447 251.982 125.471 253.455 126.412 254.396C127.354 255.337 128.875 255.361 129.816 254.42C130.758 253.478 130.758 251.933 129.816 250.992Z" fill="#A6C8DB"/>
<path d="M129.816 250.992C128.875 250.05 127.379 250.05 126.413 251.016C125.447 251.982 125.471 253.455 126.412 254.396C127.354 255.337 128.875 255.361 129.816 254.42C130.758 253.478 130.758 251.933 129.816 250.992Z" fill="#A6C8DB"/>
<path d="M129.816 250.992C128.875 250.05 127.379 250.05 126.413 251.016C125.447 251.982 125.471 253.455 126.412 254.396C127.354 255.337 128.875 255.361 129.816 254.42C130.758 253.478 130.758 251.933 129.816 250.992Z" fill="#A6C8DB"/>
<path d="M119.696 250.992C118.754 250.05 117.258 250.05 116.292 251.016C115.327 251.982 115.351 253.455 116.292 254.396C117.233 255.337 118.754 255.361 119.696 254.42C120.638 253.478 120.637 251.933 119.696 250.992Z" fill="#A6C8DB"/>
<path d="M119.696 250.992C118.754 250.05 117.258 250.05 116.292 251.016C115.327 251.982 115.351 253.455 116.292 254.396C117.233 255.337 118.754 255.361 119.696 254.42C120.638 253.478 120.637 251.933 119.696 250.992Z" fill="#A6C8DB"/>
<path d="M119.696 250.992C118.754 250.05 117.258 250.05 116.292 251.016C115.327 251.982 115.351 253.455 116.292 254.396C117.233 255.337 118.754 255.361 119.696 254.42C120.638 253.478 120.637 251.933 119.696 250.992Z" fill="#A6C8DB"/>
<path d="M124.756 245.932C123.815 244.99 122.319 244.99 121.353 245.955C120.387 246.921 120.411 248.394 121.352 249.336C122.294 250.277 123.815 250.301 124.756 249.359C125.698 248.417 125.698 246.873 124.756 245.932Z" fill="#A6C8DB"/>
<path d="M124.756 245.932C123.815 244.99 122.319 244.99 121.353 245.955C120.387 246.921 120.411 248.394 121.352 249.336C122.294 250.277 123.815 250.301 124.756 249.359C125.698 248.417 125.698 246.873 124.756 245.932Z" fill="#A6C8DB"/>
<path d="M124.756 245.932C123.815 244.99 122.319 244.99 121.353 245.955C120.387 246.921 120.411 248.394 121.352 249.336C122.294 250.277 123.815 250.301 124.756 249.359C125.698 248.417 125.698 246.873 124.756 245.932Z" fill="#A6C8DB"/>
<path d="M109.576 250.992C108.634 250.05 107.138 250.05 106.172 251.016C105.207 251.982 105.23 253.455 106.172 254.396C107.113 255.337 108.634 255.361 109.576 254.42C110.517 253.478 110.517 251.933 109.576 250.992Z" fill="#A6C8DB"/>
<path d="M109.576 250.992C108.634 250.05 107.138 250.05 106.172 251.016C105.207 251.982 105.23 253.455 106.172 254.396C107.113 255.337 108.634 255.361 109.576 254.42C110.517 253.478 110.517 251.933 109.576 250.992Z" fill="#A6C8DB"/>
<path d="M109.576 250.992C108.634 250.05 107.138 250.05 106.172 251.016C105.207 251.982 105.23 253.455 106.172 254.396C107.113 255.337 108.634 255.361 109.576 254.42C110.517 253.478 110.517 251.933 109.576 250.992Z" fill="#A6C8DB"/>
<path d="M119.696 240.871C118.754 239.93 117.258 239.93 116.292 240.895C115.327 241.861 115.351 243.334 116.292 244.275C117.233 245.217 118.754 245.241 119.696 244.299C120.638 243.357 120.637 241.813 119.696 240.871Z" fill="#A6C8DB"/>
<path d="M119.696 240.871C118.754 239.93 117.258 239.93 116.292 240.895C115.327 241.861 115.351 243.334 116.292 244.275C117.233 245.217 118.754 245.241 119.696 244.299C120.638 243.357 120.637 241.813 119.696 240.871Z" fill="#A6C8DB"/>
<path d="M119.696 240.871C118.754 239.93 117.258 239.93 116.292 240.895C115.327 241.861 115.351 243.334 116.292 244.275C117.233 245.217 118.754 245.241 119.696 244.299C120.638 243.357 120.637 241.813 119.696 240.871Z" fill="#A6C8DB"/>
<path d="M99.4559 250.992C98.5142 250.05 97.018 250.05 96.0523 251.016C95.0867 251.981 95.1111 253.454 96.0523 254.395C96.9936 255.336 98.5147 255.36 99.4559 254.419C100.397 253.478 100.397 251.933 99.4559 250.992Z" fill="#A6C8DB"/>
<path d="M99.4559 250.992C98.5142 250.05 97.018 250.05 96.0523 251.016C95.0867 251.981 95.1111 253.454 96.0523 254.395C96.9936 255.336 98.5147 255.36 99.4559 254.419C100.397 253.478 100.397 251.933 99.4559 250.992Z" fill="#A6C8DB"/>
<path d="M99.4559 250.992C98.5142 250.05 97.018 250.05 96.0523 251.016C95.0867 251.981 95.1111 253.454 96.0523 254.395C96.9936 255.336 98.5147 255.36 99.4559 254.419C100.397 253.478 100.397 251.933 99.4559 250.992Z" fill="#A6C8DB"/>
<path d="M114.636 235.811C113.694 234.87 112.198 234.87 111.232 235.835C110.267 236.801 110.291 238.274 111.232 239.215C112.173 240.157 113.694 240.181 114.636 239.239C115.578 238.297 115.577 236.753 114.636 235.811Z" fill="#A6C8DB"/>
<path d="M114.636 235.811C113.694 234.87 112.198 234.87 111.232 235.835C110.267 236.801 110.291 238.274 111.232 239.215C112.173 240.157 113.694 240.181 114.636 239.239C115.578 238.297 115.577 236.753 114.636 235.811Z" fill="#A6C8DB"/>
<path d="M114.636 235.811C113.694 234.87 112.198 234.87 111.232 235.835C110.267 236.801 110.291 238.274 111.232 239.215C112.173 240.157 113.694 240.181 114.636 239.239C115.578 238.297 115.577 236.753 114.636 235.811Z" fill="#A6C8DB"/>
<path d="M89.3355 250.992C88.3943 250.05 86.8976 250.05 85.932 251.016C84.9663 251.981 84.9898 253.454 85.9315 254.396C86.8732 255.337 88.3938 255.361 89.3355 254.419C90.2772 253.477 90.2768 251.933 89.3355 250.992Z" fill="#A6C8DB"/>
<path d="M89.3355 250.992C88.3943 250.05 86.8976 250.05 85.932 251.016C84.9663 251.981 84.9898 253.454 85.9315 254.396C86.8732 255.337 88.3938 255.361 89.3355 254.419C90.2772 253.477 90.2768 251.933 89.3355 250.992Z" fill="#A6C8DB"/>
<path d="M89.3355 250.992C88.3943 250.05 86.8976 250.05 85.932 251.016C84.9663 251.981 84.9898 253.454 85.9315 254.396C86.8732 255.337 88.3938 255.361 89.3355 254.419C90.2772 253.477 90.2768 251.933 89.3355 250.992Z" fill="#A6C8DB"/>
<path d="M174.213 265.09C174.213 263.39 175.573 261.987 177.316 261.987C179.058 261.987 180.334 263.39 180.334 265.09C180.334 266.79 178.974 268.107 177.316 268.107C175.573 268.107 174.213 266.79 174.213 265.09ZM174.213 246.898C174.213 245.198 175.573 243.837 177.316 243.837C179.058 243.837 180.334 245.198 180.334 246.898C180.334 248.598 178.974 249.958 177.316 249.958C175.573 249.958 174.213 248.598 174.213 246.898ZM183.309 274.186C183.309 272.486 184.67 271.083 186.413 271.083C188.156 271.083 189.43 272.485 189.43 274.186C189.43 275.886 188.07 277.203 186.413 277.203C184.67 277.203 183.309 275.843 183.309 274.186ZM201.502 274.186C201.502 272.486 202.862 271.083 204.605 271.083C206.348 271.083 207.622 272.485 207.622 274.186C207.622 275.886 206.262 277.203 204.605 277.203C202.862 277.203 201.502 275.843 201.502 274.186ZM192.406 265.09C192.406 263.39 193.766 261.987 195.508 261.987C197.25 261.987 198.526 263.39 198.526 265.09C198.526 266.79 197.166 268.107 195.508 268.107C193.766 268.107 192.406 266.79 192.406 265.09ZM210.598 265.09C210.598 263.39 211.958 261.987 213.701 261.987C215.444 261.987 216.719 263.389 216.719 265.09C216.719 266.79 215.358 268.107 213.701 268.107C211.958 268.107 210.598 266.79 210.598 265.09ZM183.309 255.994C183.309 254.294 184.67 252.934 186.413 252.934C188.156 252.934 189.43 254.294 189.43 255.994C189.43 257.694 188.07 259.011 186.413 259.011C184.67 259.011 183.309 257.694 183.309 255.994ZM192.406 255.994C192.406 254.294 193.766 252.934 195.508 252.934C197.25 252.934 198.526 254.294 198.526 255.994C198.526 257.694 197.166 259.011 195.508 259.011C193.766 259.011 192.406 257.694 192.406 255.994ZM201.502 255.994C201.502 254.294 202.862 252.934 204.605 252.934C206.348 252.934 207.622 254.294 207.622 255.994C207.622 257.694 206.262 259.011 204.605 259.011C202.862 259.011 201.502 257.694 201.502 255.994ZM192.406 246.898C192.406 245.198 193.766 243.837 195.508 243.837C197.25 243.837 198.526 245.198 198.526 246.898C198.526 248.598 197.166 249.958 195.508 249.958C193.766 249.958 192.406 248.598 192.406 246.898ZM210.598 246.855C210.598 245.155 211.958 243.795 213.701 243.795C215.444 243.795 216.719 245.154 216.719 246.854C216.719 248.554 215.358 249.914 213.701 249.914C211.958 249.914 210.598 248.554 210.598 246.854M183.309 237.844C183.309 236.186 184.67 234.784 186.413 234.784C188.156 234.784 189.43 236.186 189.43 237.844C189.43 239.502 188.07 240.905 186.413 240.905C184.67 240.905 183.309 239.545 183.309 237.844ZM201.502 237.801C201.502 236.143 202.862 234.741 204.605 234.741C206.348 234.741 207.622 236.143 207.622 237.801C207.622 239.458 206.262 240.861 204.605 240.861C202.862 240.861 201.502 239.501 201.502 237.801" fill="#E04A4A"/>
</svg>
