<svg width="28" height="28" viewBox="0 0 28 28" fill="none" xmlns="http://www.w3.org/2000/svg">
<path d="M21.8309 17.8803C21.277 17.3263 21.277 16.4461 21.845 15.8781C22.4131 15.31 23.2795 15.3244 23.8332 15.8781C24.3869 16.4318 24.4012 17.3263 23.8475 17.88C23.2938 18.4337 22.3849 18.4337 21.8312 17.88" fill="white"/>
<path d="M18.8545 20.8566C18.3005 20.3027 18.3005 19.4225 18.8686 18.8544C19.4366 18.2864 20.3033 18.3005 20.857 18.8541C21.4107 19.4078 21.4245 20.3029 20.8708 20.8566C20.3171 21.4103 19.4082 21.4103 18.8545 20.8566Z" fill="white"/>
<path d="M15.8778 23.8337C15.3238 23.2797 15.3238 22.3995 15.8919 21.8315C16.46 21.2634 17.3266 21.2775 17.8803 21.8312C18.434 22.3849 18.4478 23.28 17.8941 23.8337C17.3404 24.3874 16.4315 24.3874 15.8778 23.8337Z" fill="white"/>
<path d="M12.9011 26.8102C12.3471 26.2563 12.3471 25.3761 12.9152 24.808C13.4833 24.24 14.3499 24.2541 14.9036 24.8078C15.4573 25.3615 15.4711 26.2565 14.9174 26.8102C14.3637 27.3639 13.4548 27.3639 12.9011 26.8102Z" fill="white"/>
<path d="M12.9011 20.8566C12.3471 20.3027 12.3471 19.4225 12.9152 18.8544C13.4833 18.2864 14.3499 18.3005 14.9036 18.8541C15.4573 19.4078 15.4714 20.3027 14.9174 20.8566C14.3634 21.4106 13.4548 21.4103 12.9011 20.8566Z" fill="white"/>
<path d="M9.9243 23.8337C9.37033 23.2797 9.37033 22.3995 9.9384 21.8315C10.5065 21.2634 11.3731 21.2775 11.9268 21.8312C12.4805 22.3849 12.4946 23.2797 11.9406 23.8337C11.3866 24.3877 10.478 24.3874 9.9243 23.8337Z" fill="white"/>
<path d="M12.9011 14.903C12.3471 14.349 12.3471 13.4689 12.9152 12.9008C13.4833 12.3327 14.3499 12.3468 14.9036 12.9005C15.4573 13.4542 15.4714 14.349 14.9174 14.903C14.3634 15.457 13.4548 15.4567 12.9011 14.903Z" fill="white"/>
<path d="M6.94761 20.8566C6.39364 20.3027 6.39364 19.4225 6.96172 18.8544C7.52979 18.2864 8.3964 18.3005 8.9501 18.8541C9.5038 19.4078 9.5179 20.3027 8.96393 20.8566C8.40996 21.4106 7.50131 21.4103 6.94761 20.8566Z" fill="white"/>
<path d="M12.9008 8.95011C12.3468 8.39614 12.3468 7.51597 12.9149 6.9479C13.4829 6.37983 14.3493 6.3942 14.903 6.9479C15.4567 7.5016 15.4708 8.39641 14.9171 8.95011C14.3634 9.50381 13.4545 9.50381 12.9008 8.95011Z" fill="white"/>
<path d="M3.97081 17.8801C3.41684 17.3261 3.41684 16.4459 3.98491 15.8779C4.55298 15.3098 5.41959 15.3239 5.97329 15.8776C6.52699 16.4313 6.54109 17.3261 5.98712 17.8801C5.43315 18.434 4.52451 18.4338 3.97081 17.8801Z" fill="white"/>
<path d="M12.9007 2.99677C12.347 2.44307 12.3468 1.56263 12.9148 0.994557C13.4829 0.426486 14.3493 0.440316 14.9032 0.994286C15.4572 1.54826 15.471 2.4428 14.9171 2.99677C14.3631 3.55074 13.4544 3.55047 12.9007 2.99677Z" fill="white"/>
</svg>
