<?xml version="1.0" encoding="iso-8859-1"?>
<!-- Uploaded to: SVG Repo, www.svgrepo.com, Generator: SVG Repo Mixer Tools -->
<!DOCTYPE svg PUBLIC "-//W3C//DTD SVG 1.1//EN" "http://www.w3.org/Graphics/SVG/1.1/DTD/svg11.dtd">
<svg fill="#2AC0B6" height="800px" width="800px" version="1.1" id="Capa_1" xmlns="http://www.w3.org/2000/svg"
	xmlns:xlink="http://www.w3.org/1999/xlink" viewBox="0 0 56 56" xml:space="preserve">
	<path d="M47.533,0H8.467C3.798,0,0,3.798,0,8.467v39.066C0,52.202,3.798,56,8.467,56h39.066C52.202,56,56,52.202,56,47.533V8.467
	C56,3.798,52.202,0,47.533,0z M50,27c0,0.553-0.447,1-1,1s-1-0.447-1-1v-6.586L34.167,34.247C34.691,35.038,35,35.983,35,37
	c0,2.757-2.243,5-5,5s-5-2.243-5-5c0-1.017,0.309-1.962,0.833-2.753l-10.08-10.08C14.962,24.691,14.017,25,13,25
	s-1.962-0.309-2.753-0.833l-6.54,6.54l-1.414-1.414l6.54-6.54C8.309,21.962,8,21.017,8,20c0-2.757,2.243-5,5-5s5,2.243,5,5
	c0,1.017-0.309,1.962-0.833,2.753l10.08,10.08C28.038,32.309,28.983,32,30,32s1.962,0.309,2.753,0.833L46.586,19H40
	c-0.553,0-1-0.447-1-1s0.447-1,1-1h10V27z" />
</svg>