<?xml version="1.0" encoding="UTF-8"?>
<svg width="1200pt" height="1200pt" version="1.1" viewBox="0 0 1200 1200" xmlns="http://www.w3.org/2000/svg">
 <g fill="#2cc9c0" fill-rule="evenodd">
  <path d="m479.16 262.61c0 13.234-10.73 23.961-23.965 23.961-13.234 0-23.965-10.727-23.965-23.961s10.73-23.965 23.965-23.965c13.234 0 23.965 10.73 23.965 23.965"/>
  <path d="m823.22 298.8c-2.9414-1.7031-6.9258-1.5859-11.207 0.73047-4.7891 2.5938-10.211 8.0742-14.426 15.383-4.2227 7.3086-6.2656 14.734-6.1094 20.184 0.13281 4.8594 2.0273 8.375 4.9688 10.066 2.9414 1.7031 6.9258 1.5859 11.207-0.73047 4.7891-2.5938 10.211-8.0742 14.426-15.371 4.2227-7.3086 6.2656-14.746 6.1094-20.184-0.13281-4.8711-2.0156-8.375-4.9688-10.078z"/>
  <path d="m791.02 224.83c-1.1406-0.5625-2.4844-0.52734-3.5898 0.10938-1.0938 0.63672-1.8008 1.7773-1.8828 3.0469 0 0-0.60156 9.8047 0.26562 17.809 0.42188 3.9375 1.2734 7.4531 2.4961 9.5898 3.9961 6.9102 12.852 9.2891 19.766 5.293 6.9102-3.9961 9.2891-12.852 5.293-19.766-1.2344-2.125-3.8633-4.6211-7.0547-6.9492-6.5039-4.7539-15.289-9.1328-15.289-9.1328z"/>
  <path d="m633.74 1106c0 18.793-15.234 34.031-34.031 34.031-18.793 0-34.031-15.238-34.031-34.031 0-18.797 15.238-34.031 34.031-34.031 18.797 0 34.031 15.234 34.031 34.031"/>
  <path d="m810.82 1078.1c0-2.0898-1.6914-3.7812-3.7812-3.7812h-55.789c-2.1016 0-3.793 1.6914-3.793 3.7812v55.789c0 2.0898 1.6914 3.793 3.793 3.793h55.789c2.0898 0 3.7812-1.7031 3.7812-3.793z"/>
  <path d="m423.56 1074.9c-0.68359-1.1758-1.9336-1.8945-3.2773-1.8945-1.3555 0-2.6055 0.71875-3.2773 1.8945l-33.66 58.297c-0.68359 1.1758-0.68359 2.6172 0 3.7812 0.67188 1.1758 1.9219 1.8945 3.2773 1.8945h67.32c1.3438 0 2.5938-0.71875 3.2773-1.8945 0.67188-1.1641 0.67188-2.6055 0-3.7812z"/>
  <path d="m839.16 952.84c0-101.61-69.098-149.27-125.23-190.96-17.051-12.66-32.762-24.707-44.125-37.98-9.9492-11.594-16.441-24.07-16.441-39.109 0-15.203 6.5742-28.234 16.633-40.586 11.398-13.992 27.133-27.012 44.23-40.586 56.051-44.484 124.93-94.598 124.93-190.38v-0.14453c-0.035156-5.8086-2.4492-11.762-8.0898-17.23-7.7383-7.5352-23.832-15.047-46.68-20.965-6.3945-1.668-12.938 2.1836-14.605 8.5938-1.6562 6.3945 2.1953 12.938 8.5938 14.594 13.105 3.3945 23.566 7.1055 30.73 11.207 1.9805 1.1289 4.1055 2.9531 5.293 4.0312-0.38281 0.42188-0.85156 0.875-1.2734 1.2109-3.5742 2.832-8.8789 5.3984-15.574 7.9336-37.078 13.98-111.82 23.27-197.84 23.27-86.027 0-160.77-9.2891-197.84-23.27-6.6953-2.5312-12-5.1016-15.574-7.9336-0.42188-0.33594-0.88672-0.79297-1.2852-1.2109 1.1992-1.0781 3.3242-2.9023 5.3047-4.0312 7.1641-4.1055 17.629-7.8125 30.719-11.207 6.4062-1.6562 10.262-8.1953 8.6055-14.594-1.668-6.4062-8.207-10.262-14.605-8.5938-22.848 5.9141-38.941 13.43-46.691 20.965-5.6289 5.4727-8.0391 11.426-8.0742 17.23v0.14453c0 95.785 68.879 145.89 124.93 190.38 17.102 13.57 32.832 26.594 44.23 40.586 10.055 12.348 16.633 25.379 16.633 40.586 0 15.035-6.4922 27.516-16.441 39.109-11.363 13.273-27.07 25.32-44.125 37.98-56.137 41.688-125.23 89.352-125.23 190.96v76.066c0 4.7148 2.7617 8.9883 7.0547 10.922 0 0 0.44531 0.20312 1.2617 0.57422 32.879 14.82 70.523 14.82 103.4 0 0.81641-0.37109 1.2617-0.57422 1.2617-0.57422 4.2969-1.9336 7.0547-6.2031 7.0547-10.922v-70.777c0-16.402 13.297-29.688 29.699-29.688 16.391 0 29.688 13.285 29.688 29.688v70.777c0 4.7148 2.7617 8.9883 7.0547 10.922 0 0 0.45703 0.20312 1.2734 0.57422 32.867 14.82 70.523 14.82 103.39 0 0.81641-0.37109 1.2734-0.57422 1.2734-0.57422 4.2969-1.9336 7.0547-6.2031 7.0547-10.922v-70.777c0-16.402 13.297-29.688 29.688-29.688 16.402 0 29.688 13.285 29.688 29.688v70.777c0 4.7148 2.7734 8.9883 7.0664 10.922 0 0 0.44531 0.20312 1.2617 0.57422 32.879 14.82 70.523 14.82 103.39 0 0.81641-0.37109 1.2734-0.57422 1.2734-0.57422 4.2969-1.9336 7.0547-6.2031 7.0547-10.922v-76.066z"/>
  <path d="m580.14 440.79c2.0625-14.531 14.977-25.332 29.902-24.516 13.703 0.75781 24.648 11.051 26.711 24.098-12.047 0.38281-24.422 0.57422-37.043 0.57422-6.5898 0-13.117-0.046875-19.57-0.15625zm-105.59-7.2344-3.4922-17.82c-0.25391-1.2969 0.17969-2.6172 1.1406-3.5039 0.97266-0.89844 2.3164-1.2227 3.5898-0.875l56.762 15.73c1.2734 0.34766 2.2578 1.3203 2.6289 2.5781 0.35937 1.2617 0.046874 2.6172-0.82813 3.6016l-4.9805 5.5195c-19.645-1.2617-38.062-3.0234-54.816-5.2305zm261.21-1.5352c10.883-1.6445 20.953-3.4805 30.07-5.4844l-1.8477-20.773c-0.13281-1.5469-1.2109-2.8555-2.7109-3.3008-1.5-0.43359-3.1211 0.10938-4.0664 1.3438l-21.445 28.211zm-16.414-69.887c0.64844-1.9805-0.43359-4.1172-2.4258-4.7773l-40.848-13.379c-1.9805-0.64844-4.1172 0.43359-4.7656 2.4258l-13.379 40.848c-0.66016 1.9805 0.43359 4.1172 2.4102 4.7773l40.848 13.367c1.9922 0.66016 4.1289-0.43359 4.7773-2.4102l13.379-40.848zm-198.85 3.7695c0.45703-1.1992 0.26562-2.543-0.50391-3.5742-0.76953-1.0312-2.0039-1.5977-3.2891-1.5117-17.09 1.1055-32.855-10.5-36.48-27.73-1.4023-6.7188-0.78125-13.379 1.4414-19.379 0.45703-1.1992 0.26562-2.543-0.50391-3.5742-0.76953-1.0195-2.0039-1.5977-3.2773-1.5117-2.0039 0.13281-4.0195 0.39453-6.0352 0.82812-22.992 4.8242-37.727 27.406-32.902 50.398 4.8359 22.992 27.422 37.727 50.41 32.902 14.82-3.1211 26.219-13.609 31.141-26.844zm58.055-17.051-18.012-11.762c-1.7383-1.1406-4.0938-0.64844-5.2305 1.1055-1.1406 1.7539-0.64844 4.0938 1.1055 5.2305l15.395 10.055-18 3.793c-2.0391 0.42188-3.3477 2.4375-2.9297 4.4766 0.43359 2.0391 2.4375 3.3477 4.4883 2.9297l19.02-3.9961-5.3281 15.168c-0.69531 1.9688 0.34766 4.1289 2.3164 4.8242s4.1289-0.34766 4.8242-2.3164l6.2891-17.902 20.027 13.078c1.7539 1.1406 4.0938 0.64844 5.2305-1.1055 1.1406-1.7539 0.64844-4.0938-1.0938-5.2305l-15.406-10.055 18-3.793c2.0391-0.42188 3.3594-2.4375 2.9297-4.4766-0.43359-2.0391-2.4375-3.3477-4.4883-2.9297l-21.695 4.5586 8.4609-24.098c0.69531-1.9688-0.33594-4.1289-2.3047-4.8242-1.9805-0.68359-4.1406 0.34766-4.8242 2.3164l-8.7734 24.949zm162.35-70.164-15.984-4.7031c-2.0039-0.58984-4.1172 0.5625-4.7031 2.5664-0.58984 2.0039 0.5625 4.1055 2.5664 4.6914l13.559 3.9844-6.8398 9.8047-15.371-4.5117c-2.0039-0.58984-4.1172 0.5625-4.7031 2.5547-0.58984 2.0039 0.5625 4.1172 2.5664 4.7031l12.938 3.8047-7.7148 11.062c-1.1875 1.7148-0.76953 4.0781 0.94922 5.2695 1.7031 1.1992 4.0664 0.78125 5.2578-0.9375l9.168-13.152 11.473 3.3711-8.0742 11.594c-1.1992 1.7148-0.78125 4.0781 0.9375 5.2695 1.7148 1.1992 4.0664 0.78125 5.2695-0.9375l9.5273-13.668 15.996 4.6914c2.0039 0.58984 4.1055-0.55078 4.6914-2.5547 0.58984-2.0039-0.5625-4.1055-2.5664-4.7031l-13.547-3.9844 6.8398-9.8047 15.371 4.5234c2.0039 0.58984 4.1055-0.5625 4.6914-2.5664 0.58984-2.0039-0.55078-4.1055-2.5547-4.6914l-12.949-3.8047 7.7148-11.062c1.1992-1.7148 0.78125-4.0781-0.9375-5.2695-1.7148-1.1992-4.0781-0.78125-5.2695 0.9375l-9.168 13.141-11.473-3.3711 8.0898-11.578c1.1875-1.7148 0.76953-4.0781-0.94922-5.2695-1.7031-1.1992-4.0664-0.78125-5.2578 0.9375l-9.5391 13.668zm-79.332-28.129c-0.058593-1.6328-1.1641-3.0469-2.7461-3.4922-1.5703-0.44531-3.2656 0.16797-4.1758 1.5352l-13.402 20.027s-23.195-6.5625-23.195-6.5625c-1.5859-0.45703-3.2656 0.16797-4.1758 1.5352-0.91016 1.3555-0.83984 3.1562 0.16797 4.4414l14.902 18.949s-13.414 20.027-13.414 20.027c-0.91016 1.3555-0.83984 3.1562 0.17969 4.4414 1.0078 1.2852 2.7344 1.7773 4.2734 1.2109l22.633-8.3164 14.902 18.938c1.0078 1.2969 2.7344 1.7891 4.2734 1.2109 1.5352-0.5625 2.543-2.0508 2.4727-3.6953l-0.91016-24.086s22.621-8.3164 22.621-8.3164c1.5352-0.5625 2.5312-2.0625 2.4727-3.6953-0.058594-1.6445-1.1758-3.0469-2.7461-3.4922l-23.195-6.5742-0.92578-24.086zm-265.59-40.488c-0.43359-2.0508-2.4375-3.3594-4.4766-2.9297l-27.434 5.7617c-2.0508 0.43359-3.3594 2.4375-2.9297 4.4883l20.797 98.965c0.43359 2.0508 2.4375 3.3594 4.4766 2.9297l27.434-5.7617c2.0391-0.43359 3.3477-2.4375 2.9297-4.4883zm133.79 31.02c-0.79297-0.96094-2.0039-1.4766-3.2539-1.3672-1.2344 0.10938-2.3516 0.81641-2.9648 1.8945l-19.922 35.062c-0.78125 1.3672-0.63672 3.0586 0.35938 4.2734l25.559 31.199c0.79297 0.96094 2.0039 1.4766 3.2383 1.3672 1.2461-0.10938 2.3633-0.81641 2.9766-1.9062l19.922-35.062c0.76953-1.3555 0.625-3.0469-0.35938-4.2617l-25.559-31.199zm207.38 56.195 11.473 3.3711 6.8398-9.8047-11.473-3.3711zm-111.24-105.34c-10.5-6.8516-26.34-2.1367-35.102 11.281-8.7617 13.43-6.6953 29.82 3.793 36.672 10.5 6.8516 26.34 2.1367 35.102-11.281 8.7617-13.414 6.707-29.82-3.793-36.672zm86.711-25.234c-1.4883-0.66016-3.2539-0.30078-4.3438 0.92578l-25.895 28.621c-1.1055 1.2109-1.2969 3-0.48047 4.4141l19.223 33.48c0.81641 1.4141 2.4492 2.1484 4.0547 1.8125l37.777-7.9336c1.5977-0.33594 2.8086-1.668 2.9766-3.3008l4.1289-38.375c0.17969-1.6328-0.71875-3.1914-2.207-3.8516l-35.23-15.793zm-181.87-12.422c0.070313-1.1523-0.40625-2.2812-1.2852-3.0469-0.875-0.76953-2.0508-1.0938-3.1914-0.875l-52.066 9.8867c-1.7031 0.32422-2.9766 1.7656-3.0703 3.5039l-2.8672 52.309c-0.058594 1.1641 0.42188 2.293 1.2852 3.0586 0.875 0.76953 2.0625 1.0781 3.2031 0.86328l52.055-9.875c1.7148-0.32422 2.9766-1.7773 3.0703-3.5156zm308.39-3.0703c0.71875-1.1406 0.79297-2.5664 0.16797-3.7578-0.61328-1.1992-1.8125-1.9805-3.1562-2.0508l-18.863-1.0312c-1.3672-0.070312-2.6641 0.60156-3.3945 1.7539l-34.43 54.406c-0.71875 1.1289-0.78125 2.5547-0.16797 3.7578 0.61328 1.1875 1.8125 1.9688 3.1562 2.0391l18.863 1.0312c1.3672 0.070312 2.6758-0.60156 3.4062-1.7539l34.414-54.395zm-204.86-41.762c-0.26562-1.332-1.2344-2.4258-2.5312-2.8438-1.2852-0.42188-2.7109-0.12109-3.707 0.79297l-40.906 37.117c-0.99609 0.89844-1.4414 2.2695-1.1523 3.5898 0.27734 1.3203 1.2344 2.3867 2.5195 2.8086l51.91 17.004c1.2852 0.42188 2.6875 0.12109 3.6953-0.76953 1.0078-0.89844 1.4648-2.2695 1.1875-3.5898zm-237.16 55.535c15.469 4.8242 30.012 2.7969 42.254-11.555 1.3555-1.5859 1.1641-3.9727-0.43359-5.3281-1.5859-1.3555-3.9727-1.1641-5.3281 0.42188-9.8984 11.629-21.719 13.141-34.234 9.2383-1.9922-0.625-4.1172 0.49219-4.7383 2.4844-0.625 1.9922 0.49219 4.1172 2.4844 4.7383zm305.48-45.539c1.9805 0.64844 4.1289-0.43359 4.7773-2.4258 3.3477-10.246 14.398-15.84 24.648-12.48 10.246 3.3477 15.84 14.398 12.492 24.648-0.66016 1.9805 0.43359 4.1172 2.4102 4.7773l22.164 7.2617c1.9805 0.64844 4.1289-0.43359 4.7773-2.4258 8.6641-26.449-5.7852-54.961-32.23-63.625-26.449-8.6641-54.961 5.7852-63.625 32.23-0.64844 1.9805 0.43359 4.1172 2.4258 4.7773l22.164 7.2617zm-311.59-10.98c-7.3672-0.39453-13.68 5.2578-14.09 12.625-0.39453 7.3789 5.2578 13.691 12.625 14.09 7.3789 0.40625 13.691-5.2422 14.09-12.625 0.40625-7.3672-5.2578-13.68-12.625-14.09zm154.32-13.105-26.809 17.316c-1.7539 1.1289-2.2578 3.4805-1.1289 5.2305 1.1406 1.7539 3.4805 2.2578 5.2305 1.1172l24.371-15.73 4.9336 23.473c0.43359 2.0391 2.4375 3.3477 4.4766 2.9297 2.0391-0.43359 3.3594-2.4375 2.9297-4.4883l-5.5312-26.316 22.211-14.352c1.7656-1.1406 2.2578-3.4805 1.1289-5.2305-1.1289-1.7539-3.4805-2.2578-5.2305-1.1289l-19.777 12.781-5.8672-27.949c-0.43359-2.0508-2.4375-3.3594-4.4766-2.9297-2.0508 0.43359-3.3594 2.4375-2.9297 4.4766l6.4688 30.805zm-115.6 3.5273c-7.3672-0.40625-13.68 5.2578-14.09 12.625-0.40625 7.3672 5.2578 13.68 12.625 14.09 7.3672 0.40625 13.68-5.2578 14.09-12.625 0.40625-7.3672-5.2578-13.68-12.625-14.09z"/>
 </g>
</svg>
