<svg width="239" height="111" viewBox="0 0 239 111" fill="none" xmlns="http://www.w3.org/2000/svg">
<path d="M199.488 23.8044C197.286 26.0068 193.787 26.0068 191.528 23.7483C189.27 21.4898 189.327 18.0455 191.528 15.8441C193.73 13.6427 197.286 13.5856 199.487 15.787C201.689 17.9883 201.689 21.6019 199.487 23.8033" fill="#B95050"/>
<path d="M211.322 35.6375C209.12 37.8399 205.621 37.8399 203.362 35.5814C201.104 33.3229 201.16 29.8775 203.361 27.6761C205.562 25.4748 209.121 25.4198 211.322 27.6212C213.524 29.8225 213.524 33.4361 211.322 35.6375" fill="#B95050"/>
<path d="M223.157 47.4725C220.955 49.6749 217.455 49.6749 215.197 47.4164C212.938 45.1579 212.994 41.7125 215.196 39.5111C217.397 37.3097 220.956 37.2548 223.157 39.4561C225.358 41.6575 225.358 45.2711 223.157 47.4725Z" fill="#B95050"/>
<path d="M234.991 59.3079C232.789 61.5104 229.289 61.5104 227.031 59.2518C224.772 56.9933 224.829 53.5479 227.03 51.3465C229.231 49.1452 232.79 49.0902 234.991 51.2916C237.193 53.4929 237.193 57.1065 234.991 59.3079" fill="#B95050"/>
<path d="M211.322 59.3079C209.12 61.5104 205.621 61.5104 203.362 59.2518C201.104 56.9933 201.16 53.5479 203.361 51.3465C205.562 49.1452 209.12 49.0891 211.322 51.2916C213.525 53.494 213.524 57.1065 211.322 59.3079Z" fill="#B95050"/>
<path d="M223.157 71.1419C220.955 73.3443 217.455 73.3443 215.197 71.0858C212.938 68.8273 212.994 65.3819 215.196 63.1805C217.397 60.9792 220.955 60.9231 223.157 63.1256C225.359 65.328 225.358 68.9405 223.157 71.1419Z" fill="#B95050"/>
<path d="M187.653 59.3079C185.45 61.5104 181.951 61.5104 179.692 59.2518C177.434 56.9933 177.49 53.5479 179.691 51.3465C181.893 49.1452 185.45 49.0891 187.653 51.2916C189.855 53.494 189.854 57.1065 187.653 59.3079Z" fill="#B95050"/>
<path d="M211.322 82.9769C209.12 85.1793 205.621 85.1793 203.362 82.9208C201.104 80.6623 201.16 77.2169 203.361 75.0155C205.562 72.8141 209.12 72.7581 211.322 74.9605C213.525 77.163 213.524 80.7755 211.322 82.9769Z" fill="#B95050"/>
<path d="M163.984 59.3088C161.782 61.5112 158.282 61.5112 156.024 59.2527C153.765 56.9942 153.822 53.5499 156.024 51.3485C158.225 49.1471 161.783 49.0911 163.984 51.2924C166.185 53.4938 166.185 57.1074 163.984 59.3088Z" fill="#B95050"/>
<path d="M199.487 94.8118C197.285 97.0143 193.786 97.0143 191.527 94.7558C189.269 92.4973 189.325 89.0518 191.526 86.8505C193.727 84.6491 197.285 84.593 199.487 86.7955C201.69 88.9979 201.689 92.6104 199.487 94.8118Z" fill="#B95050"/>
<path d="M140.314 59.3089C138.113 61.5102 134.612 61.5113 132.354 59.2528C130.095 56.9943 130.15 53.55 132.353 51.3475C134.555 49.1451 138.112 49.0901 140.314 51.2925C142.517 53.495 142.516 57.1075 140.314 59.3089Z" fill="#B95050"/>
<path d="M48.0876 23.8049C45.8852 26.0073 42.3858 26.0073 40.1273 23.7488C37.8688 21.4903 37.926 18.046 40.1273 15.8446C42.3287 13.6432 45.8852 13.5861 48.0865 15.7875C50.2879 17.9888 50.2879 21.6024 48.0865 23.8038" fill="#B95050"/>
<path d="M59.9212 35.638C57.7188 37.8404 54.2194 37.8404 51.9609 35.5819C49.7024 33.3234 49.7585 29.878 51.9598 27.6766C54.1612 25.4753 57.7198 25.4203 59.9212 27.6216C62.1226 29.823 62.1226 33.4366 59.9212 35.638" fill="#B95050"/>
<path d="M71.7557 47.4729C69.5532 49.6754 66.0539 49.6754 63.7954 47.4169C61.5369 45.1584 61.593 41.713 63.7943 39.5116C65.9957 37.3102 69.5543 37.2552 71.7557 39.4566C73.957 41.658 73.957 45.2716 71.7557 47.4729Z" fill="#B95050"/>
<path d="M83.5904 59.3084C81.388 61.5108 77.8886 61.5108 75.6301 59.2523C73.3716 56.9938 73.4277 53.5484 75.629 51.347C77.8304 49.1457 81.389 49.0907 83.5904 51.2921C85.7918 53.4934 85.7918 57.107 83.5904 59.3084" fill="#B95050"/>
<path d="M59.9212 59.3084C57.7188 61.5108 54.2194 61.5108 51.9609 59.2523C49.7024 56.9938 49.7585 53.5484 51.9598 51.347C54.1612 49.1457 57.7188 49.0896 59.9212 51.2921C62.1237 53.4945 62.1226 57.107 59.9212 59.3084Z" fill="#B95050"/>
<path d="M71.7557 71.1419C69.5532 73.3443 66.0539 73.3443 63.7954 71.0858C61.5369 68.8273 61.593 65.3819 63.7943 63.1805C65.9957 60.9792 69.5532 60.9231 71.7557 63.1256C73.9581 65.328 73.957 68.9405 71.7557 71.1419Z" fill="#B95050"/>
<path d="M36.2515 59.3084C34.0491 61.5108 30.5498 61.5108 28.2912 59.2523C26.0327 56.9938 26.0888 53.5484 28.2902 51.347C30.4915 49.1457 34.0491 49.0896 36.2515 51.2921C38.454 53.4945 38.4529 57.107 36.2515 59.3084Z" fill="#B95050"/>
<path d="M59.9212 82.9773C57.7188 85.1798 54.2194 85.1798 51.9609 82.9213C49.7024 80.6628 49.7585 77.2173 51.9598 75.016C54.1612 72.8146 57.7188 72.7586 59.9212 74.961C62.1237 77.1634 62.1226 80.776 59.9212 82.9773Z" fill="#B95050"/>
<path d="M48.0865 94.8123C45.884 97.0147 42.3847 97.0147 40.1262 94.7562C37.8677 92.4977 37.9238 89.0523 40.1251 86.8509C42.3265 84.6496 45.884 84.5935 48.0865 86.796C50.2889 88.9984 50.2879 92.6109 48.0865 94.8123Z" fill="#B95050"/>
</svg>
