<svg width="262" height="111" viewBox="0 0 262 111" fill="none" xmlns="http://www.w3.org/2000/svg">
<path d="M222.488 23.8044C220.286 26.0068 216.787 26.0068 214.528 23.7483C212.27 21.4898 212.327 18.0455 214.528 15.8441C216.73 13.6427 220.286 13.5856 222.487 15.787C224.689 17.9883 224.689 21.6019 222.487 23.8033" fill="#B95050"/>
<path d="M234.322 35.6375C232.12 37.8399 228.621 37.8399 226.362 35.5814C224.104 33.3229 224.16 29.8775 226.361 27.6761C228.562 25.4748 232.121 25.4198 234.322 27.6212C236.524 29.8225 236.524 33.4361 234.322 35.6375Z" fill="#B95050"/>
<path d="M246.157 47.4725C243.955 49.6749 240.455 49.6749 238.197 47.4164C235.938 45.1579 235.994 41.7125 238.196 39.5111C240.397 37.3097 243.956 37.2548 246.157 39.4561C248.358 41.6575 248.358 45.2711 246.157 47.4725Z" fill="#B95050"/>
<path d="M257.991 59.3079C255.789 61.5104 252.289 61.5104 250.031 59.2518C247.772 56.9933 247.829 53.5479 250.03 51.3465C252.231 49.1452 255.79 49.0902 257.991 51.2916C260.193 53.4929 260.193 57.1065 257.991 59.3079Z" fill="#B95050"/>
<path d="M234.322 59.3079C232.12 61.5104 228.621 61.5104 226.362 59.2518C224.104 56.9933 224.16 53.5479 226.361 51.3465C228.562 49.1452 232.12 49.0891 234.322 51.2916C236.525 53.494 236.524 57.1065 234.322 59.3079Z" fill="#B95050"/>
<path d="M246.157 71.1419C243.955 73.3443 240.455 73.3443 238.197 71.0858C235.938 68.8273 235.994 65.3819 238.196 63.1805C240.397 60.9792 243.955 60.9231 246.157 63.1256C248.359 65.328 248.358 68.9405 246.157 71.1419Z" fill="#B95050"/>
<path d="M210.653 59.3079C208.45 61.5104 204.951 61.5104 202.692 59.2518C200.434 56.9933 200.49 53.5479 202.691 51.3465C204.893 49.1452 208.45 49.0891 210.653 51.2916C212.855 53.494 212.854 57.1065 210.653 59.3079Z" fill="#B95050"/>
<path d="M234.322 82.9769C232.12 85.1793 228.621 85.1793 226.362 82.9208C224.104 80.6623 224.16 77.2169 226.361 75.0155C228.562 72.8141 232.12 72.7581 234.322 74.9605C236.525 77.163 236.524 80.7755 234.322 82.9769Z" fill="#B95050"/>
<path d="M186.984 59.3088C184.782 61.5112 181.282 61.5112 179.024 59.2527C176.765 56.9942 176.822 53.5499 179.024 51.3485C181.225 49.1471 184.783 49.0911 186.984 51.2924C189.185 53.4938 189.185 57.1074 186.984 59.3088Z" fill="#B95050"/>
<path d="M222.487 94.8118C220.285 97.0143 216.786 97.0143 214.527 94.7558C212.269 92.4973 212.325 89.0518 214.526 86.8505C216.727 84.6491 220.285 84.593 222.487 86.7955C224.69 88.9979 224.689 92.6104 222.487 94.8118Z" fill="#B95050"/>
<path d="M163.314 59.3089C161.113 61.5102 157.612 61.5113 155.354 59.2528C153.095 56.9943 153.15 53.55 155.353 51.3475C157.555 49.1451 161.112 49.0901 163.314 51.2925C165.517 53.495 165.516 57.1075 163.314 59.3089Z" fill="#B95050"/>
<path d="M71.0876 23.8044C68.8852 26.0068 65.3858 26.0068 63.1273 23.7483C60.8688 21.4898 60.926 18.0455 63.1273 15.8441C65.3287 13.6427 68.8852 13.5856 71.0865 15.787C73.2879 17.9883 73.2879 21.6019 71.0865 23.8033" fill="#B95050"/>
<path d="M82.9215 35.6375C80.719 37.8399 77.2197 37.8399 74.9612 35.5814C72.7027 33.3229 72.7587 29.8775 74.9601 27.6761C77.1615 25.4748 80.7201 25.4198 82.9215 27.6212C85.1228 29.8225 85.1228 33.4361 82.9215 35.6375Z" fill="#B95050"/>
<path d="M94.7559 47.4725C92.5535 49.6749 89.0541 49.6749 86.7956 47.4164C84.5371 45.1579 84.5932 41.7125 86.7946 39.5111C88.9959 37.3097 92.5546 37.2548 94.7559 39.4561C96.9573 41.6575 96.9573 45.2711 94.7559 47.4725Z" fill="#B95050"/>
<path d="M106.591 59.3079C104.388 61.5104 100.889 61.5104 98.6304 59.2518C96.3719 56.9933 96.4279 53.5479 98.6293 51.3465C100.831 49.1452 104.389 49.0902 106.591 51.2916C108.792 53.4929 108.792 57.1065 106.591 59.3079Z" fill="#B95050"/>
<path d="M82.9215 59.3079C80.719 61.5104 77.2197 61.5104 74.9612 59.2518C72.7027 56.9933 72.7587 53.5479 74.9601 51.3465C77.1615 49.1452 80.719 49.0891 82.9215 51.2916C85.1239 53.494 85.1228 57.1065 82.9215 59.3079Z" fill="#B95050"/>
<path d="M94.7559 71.1419C92.5535 73.3443 89.0541 73.3443 86.7956 71.0858C84.5371 68.8273 84.5932 65.3819 86.7946 63.1805C88.9959 60.9792 92.5535 60.9231 94.7559 63.1256C96.9584 65.328 96.9573 68.9405 94.7559 71.1419Z" fill="#B95050"/>
<path d="M59.2515 59.3079C57.0491 61.5104 53.5498 61.5104 51.2912 59.2518C49.0327 56.9933 49.0888 53.5479 51.2902 51.3465C53.4915 49.1452 57.0491 49.0891 59.2515 51.2916C61.454 53.494 61.4529 57.1065 59.2515 59.3079Z" fill="#B95050"/>
<path d="M82.9215 82.9769C80.719 85.1793 77.2197 85.1793 74.9612 82.9208C72.7027 80.6623 72.7587 77.2169 74.9601 75.0155C77.1615 72.8141 80.719 72.7581 82.9215 74.9605C85.1239 77.163 85.1228 80.7755 82.9215 82.9769Z" fill="#B95050"/>
<path d="M35.583 59.3088C33.3805 61.5112 29.8812 61.5112 27.6227 59.2527C25.3642 56.9942 25.4213 53.5499 27.6227 51.3485C29.8241 49.1471 33.3816 49.0911 35.583 51.2924C37.7843 53.4938 37.7843 57.1074 35.583 59.3088Z" fill="#B95050"/>
<path d="M71.0865 94.8118C68.884 97.0143 65.3847 97.0143 63.1262 94.7558C60.8677 92.4973 60.9238 89.0518 63.1251 86.8505C65.3265 84.6491 68.884 84.593 71.0865 86.7955C73.2889 88.9979 73.2879 92.6104 71.0865 94.8118Z" fill="#B95050"/>
<path d="M11.9136 59.3089C9.71227 61.5102 6.21186 61.5113 3.95335 59.2528C1.69485 56.9943 1.74984 53.55 3.95228 51.3475C6.15473 49.1451 9.71119 49.0901 11.9136 51.2925C14.1161 53.495 14.115 57.1075 11.9136 59.3089Z" fill="#B95050"/>
</svg>
