<?xml version="1.0" encoding="UTF-8"?>
<svg width="1200pt" height="1200pt" version="1.1" viewBox="0 0 1200 1200" xmlns="http://www.w3.org/2000/svg">
 <g fill="#2cc9c0">
  <path d="m858 914.6 39.52 39.539 56.539-56.539-39.457-39.602c-17.387 20.293-36.309 39.215-56.602 56.602z"/>
  <path d="m982.42 925.88-56.539 56.539 171.74 171.72v0.003906c3.8047 3.6406 8.8633 5.6719 14.129 5.6719s10.324-2.0312 14.129-5.6719l28.262-28.141c3.75-3.75 5.8555-8.8359 5.8555-14.141 0-5.3008-2.1055-10.391-5.8555-14.141z"/>
  <path d="m520.42 780c-36.266 0.33203-72.188-7.0234-105.4-21.578-31.242-12.641-65.805-14.496-98.219-5.2812-4 0.98047-7.5781 2.3594-11.34 3.5781 61.402 56.062 142.3 85.879 225.39 83.082 83.098-2.793 161.81-37.98 219.3-98.039l-172.4 32.859c-18.914 3.5273-38.105 5.3281-57.34 5.3789z"/>
  <path d="m666.26 644.9c-26.543 18.289-56.543 30.957-88.16 37.223-39.875 9.3672-81.445 8.7422-121.02-1.8203-45.883-12.27-93.926-14.176-140.64-5.582l-69.441 11.379v0.003906c8.3672 13.848 17.766 27.043 28.121 39.477 10.281-4.6055 20.934-8.3438 31.84-11.18 41.184-11.418 85.004-8.75 124.5 7.582 43.891 18.391 92.328 23.047 138.92 13.359l218-41.559c21.434-32.859 36.594-69.402 44.723-107.78l-53.602 8.9805c-40.949 8.1406-79.605 25.184-113.24 49.918z"/>
  <path d="m612.2 498.8c-33.875-10.746-70.082-11.828-104.54-3.1211-27.625 5.8086-53.523 17.949-75.66 35.461-38.996 33.016-85.574 55.844-135.56 66.438l-82.18 17.078v0.003906c3.6719 11.609 8.0039 23.004 12.977 34.121l82.699-13.52h0.003906c52.777-9.7812 107.09-7.457 158.84 6.7969 33.012 8.5781 67.625 8.9141 100.8 0.98047 26.117-5.1602 50.938-15.488 73-30.379 38.516-28.344 82.809-47.844 129.72-57.102l66.422-11.121c0.62109-8.1016 1.2383-16.18 1.2383-24.441 0-6.8203-0.60156-13.5-1.0195-20.219l-59.16 10.32v0.003906c-55.91 10.617-113.61 6.7266-167.58-11.301z"/>
  <path d="m520 1e3c127.3 0 249.39-50.57 339.41-140.59 90.02-90.016 140.59-212.11 140.59-339.41s-50.57-249.39-140.59-339.41c-90.016-90.02-212.11-140.59-339.41-140.59s-249.39 50.57-339.41 140.59c-90.02 90.016-140.59 212.11-140.59 339.41 0.14844 127.26 50.766 249.26 140.75 339.25 89.984 89.988 211.99 140.61 339.25 140.75zm0-920c7.1445 0 13.746 3.8125 17.32 10 3.5742 6.1875 3.5742 13.812 0 20-3.5742 6.1875-10.176 10-17.32 10-101.79 0.12891-199.7 39.109-273.73 108.98-74.023 69.875-118.58 165.37-124.58 266.99-5.9922 101.62 27.027 201.69 92.324 279.79s157.94 128.32 259.01 140.41c101.07 12.098 202.95-14.848 284.83-75.328 81.879-60.48 137.58-149.93 155.73-250.1 18.156-100.16-2.6133-203.48-58.059-288.85-55.445-85.367-141.39-146.35-240.28-170.5-5.1758-1.2383-9.6406-4.4844-12.414-9.0234-2.7734-4.5391-3.6211-9.9961-2.3633-15.164 1.2617-5.168 4.5312-9.6211 9.082-12.375 4.5508-2.7539 10.012-3.5781 15.172-2.2969 109.04 26.59 203.8 93.805 264.95 187.91 61.145 94.105 84.059 208.01 64.055 318.44-20 110.43-81.41 209.06-171.68 275.74-90.27 66.68-202.59 96.387-314.02 83.043-111.43-13.34-213.57-68.719-285.54-154.83-71.977-86.105-108.36-196.44-101.73-308.47 6.6328-112.04 55.785-217.3 137.42-294.32 81.633-77.012 189.59-119.95 301.82-120.05zm360 440c0 95.477-37.93 187.05-105.44 254.56-67.512 67.512-159.08 105.44-254.56 105.44s-187.05-37.93-254.56-105.44c-67.512-67.512-105.44-159.08-105.44-254.56s37.93-187.05 105.44-254.56c67.512-67.512 159.08-105.44 254.56-105.44 95.445 0.10938 186.95 38.074 254.44 105.56 67.488 67.492 105.45 158.99 105.56 254.44z"/>
  <path d="m200 520c0.09375 18.676 1.8281 37.309 5.1797 55.68l83.16-17.262v0.003906c43.523-9.2227 84.074-29.121 118-57.902 26.988-21.562 58.621-36.559 92.398-43.801 41.996-10.496 86.098-8.9297 127.24 4.5195 47.453 15.609 98.105 18.852 147.16 9.4219l61.039-10.66c-7.125-37.062-20.801-72.555-40.379-104.82l-590.34 120.4c-2.1875 14.711-3.3438 29.551-3.4609 44.422z"/>
  <path d="m502.76 304.92c-42.215-12.805-86.898-15.207-130.24-7l-97.301 16.379c-29.125 34.652-50.559 75.098-62.879 118.66l556.68-113.48c-17.203-21.207-37.027-40.145-59-56.359-3.5 2.4805-6.8398 5.0391-9.8789 7.4219v-0.003907c-24.555 18.434-52.922 31.145-83.02 37.199-37.695 9.2188-77.164 8.2461-114.36-2.8164z"/>
  <path d="m327.58 264.92 38.301-6.4414c49.875-9.2695 101.25-6.3242 149.74 8.5781 30.246 8.7266 62.262 9.2891 92.801 1.6406 23.809-4.793 46.312-14.637 66-28.859-54-29.91-115.54-43.461-177.1-39.008-61.566 4.4531-120.51 26.719-169.64 64.09z"/>
 </g>
</svg>
