<?xml version="1.0" encoding="iso-8859-1"?>
<!-- Uploaded to: SVG Repo, www.svgrepo.com, Generator: SVG Repo Mixer Tools -->
<!DOCTYPE svg PUBLIC "-//W3C//DTD SVG 1.1//EN" "http://www.w3.org/Graphics/SVG/1.1/DTD/svg11.dtd">
<svg fill="#fff" height="800px" width="800px" version="1.1" id="Capa_1" xmlns="http://www.w3.org/2000/svg" xmlns:xlink="http://www.w3.org/1999/xlink" 
	 viewBox="0 0 220.842 220.842" xml:space="preserve">
<path d="M179.271,65.755h-29.279c-4.971,0-9,4.029-9,9v29.279c0,4.971,4.029,9,9,9h5.64v12.307c0,4.922-4.004,8.926-8.925,8.926
	h-27.285V49.294h11.472c3.305,0,6.345-1.812,7.917-4.719c1.571-2.907,1.424-6.442-0.386-9.208L117.952,4.073
	C116.29,1.531,113.458,0,110.421,0s-5.869,1.531-7.531,4.073L82.418,35.367c-1.81,2.766-1.957,6.301-0.386,9.208
	c1.572,2.907,4.612,4.719,7.917,4.719h11.472v84.973H74.136c-4.921,0-8.925-4.004-8.925-8.926V111.25
	c8.583-3.548,14.64-12.006,14.64-21.855c0-13.035-10.604-23.64-23.64-23.64s-23.64,10.604-23.64,23.64
	c0,9.85,6.057,18.308,14.64,21.855v14.091c0,14.847,12.078,26.926,26.925,26.926h27.285v23.08
	c-8.583,3.548-14.64,12.006-14.64,21.855c0,13.035,10.604,23.64,23.64,23.64s23.64-10.604,23.64-23.64
	c0-9.85-6.057-18.308-14.64-21.855v-23.08h27.285c14.847,0,26.925-12.079,26.925-26.926v-12.307h5.64c4.971,0,9-4.029,9-9V74.755
	C188.271,69.784,184.241,65.755,179.271,65.755z"/>
</svg>